<mxfile host="app.diagrams.net" modified="2024-05-29T02:51:59.105Z" agent="Mozilla/5.0 (X11; Linux x86_64) AppleWebKit/537.36 (KHTML, like Gecko) Chrome/124.0.0.0 Safari/537.36" etag="PV0AVdZOiUPPw4_NAK6o" version="24.4.9" type="github">
  <diagram name="第 1 页" id="ZVs1SMbci9-o40Px4iWH">
    <mxGraphModel dx="1034" dy="526" grid="1" gridSize="10" guides="1" tooltips="1" connect="1" arrows="1" fold="1" page="1" pageScale="1" pageWidth="827" pageHeight="1169" math="0" shadow="0">
      <root>
        <mxCell id="0" />
        <mxCell id="1" parent="0" />
        <mxCell id="PE0mwfs7S3fnOxnz0N8g-1" value="" style="rounded=0;whiteSpace=wrap;html=1;dashed=1;" vertex="1" parent="1">
          <mxGeometry x="139" y="137.25" width="550" height="400.5" as="geometry" />
        </mxCell>
        <mxCell id="PE0mwfs7S3fnOxnz0N8g-2" value="&lt;b&gt;&lt;i&gt;target label: 0&lt;/i&gt;&lt;/b&gt;" style="text;html=1;align=center;verticalAlign=middle;whiteSpace=wrap;rounded=0;" vertex="1" parent="1">
          <mxGeometry x="231" y="172" width="120" height="30" as="geometry" />
        </mxCell>
        <mxCell id="PE0mwfs7S3fnOxnz0N8g-3" value="&lt;b&gt;&lt;i&gt;Backdoor trigger:&lt;/i&gt;&lt;/b&gt;" style="text;html=1;align=center;verticalAlign=middle;whiteSpace=wrap;rounded=0;" vertex="1" parent="1">
          <mxGeometry x="371" y="172" width="130" height="30" as="geometry" />
        </mxCell>
        <mxCell id="PE0mwfs7S3fnOxnz0N8g-4" value="" style="rounded=0;whiteSpace=wrap;html=1;" vertex="1" parent="1">
          <mxGeometry x="511" y="164.5" width="60" height="45" as="geometry" />
        </mxCell>
        <mxCell id="PE0mwfs7S3fnOxnz0N8g-5" value="" style="shape=waypoint;sketch=0;fillStyle=solid;size=6;pointerEvents=1;points=[];fillColor=none;resizable=0;rotatable=0;perimeter=centerPerimeter;snapToPoint=1;strokeColor=#808080;" vertex="1" parent="1">
          <mxGeometry x="510" y="164.5" width="20" height="20" as="geometry" />
        </mxCell>
        <mxCell id="PE0mwfs7S3fnOxnz0N8g-6" value="" style="shape=image;verticalLabelPosition=bottom;labelBackgroundColor=default;verticalAlign=top;aspect=fixed;imageAspect=0;image=data:image/png,iVBORw0KGgoAAAANSUhEUgAAAP0AAACFCAIAAAAfJmkHAAAgAElEQVR4nO19R29jaXb2vcw5i0kkRZFUKOWSVLHDDLrH9sBeeDwGxoZh2PDCC2+88g/wxj9i4KWBARqwARsezAwcvp6q6UqqUijlQEokRVLMOaf7LR7wnVskpaIkUlKP+ywKKom89w3nPe8JzzmH/ou/+ItAIEBRlFqttlqtVIsYhqFYRNM09R19R99yYhim2WxyuVyeTCb753/+Z4qiFAqFXq+nKIqmaZqmGaZJOB+/ucXhfkffUV+IYRiGYf7+7/+ex+fznU4nRVE0TXM4HCLmk8lUPB6PxWLUb08C03YJ3Dyxjx9+bjabKpVKp9PpdDoej9f5FQybpulms5nJZLLZbKFQ4HA4+C57Urd4trHy9Xqdw+FwOByapi0Wi0Kh+OgXGYZpNBrYO4z/1veoK90RuUm3iIclo1ojA39TFOX1el+9evXixQswDZfLbTQaYJRbnAN5NRl2tVqdm5t78uTJ48ePZTIZ1bHxhJ8qlcrx8fHe3p7f7+fz+eCYer1OJnWda60Xbrvg4QKBoNFoFAoFPp/P4/H4fP4f//Eff5TvMYVqtcrhcLhcLpfLxT1+6dEPhthrQoaH/976MegiIGmartfrsVjs8PDwzZs3QqGQz+ffOt9jydis2Ww2a7VasVjk8/kul6tWq3VlPpqmeTxes9ksFosnJyfffPPN27dvcbybzWaj0WBaRF17P4jsaBs5uXPO+yIWttls0jQtEAikUuny8vK9e/c++joej8flcsPhcDAYDAaDtVrt7vA9iNxCHA5Hq9WOjo7a7fZbHhOb77E3EKKNRiOXy0Wj0VAo9Omnn46MjIhEonq9frt3KN6OC73ZbFYqlXA4/Pz582QyWS6X26bAJjKpdDrt9Xq9Xu/y8jKkaRs7Xv9Idz6hl0WrVqsMw3C5XK/XG4/HQ6FQLpfr/Y3hcPjt27evXr3Ccy496IERuZZx5Y6Ojn755Zd3ke/xM7iqUqlQFPVXf/VXuHNvXZDgWufz+RwOp1ar5fP5V69e7ezscDgcqAcURUHZ7WQ+DofD4/EYhqlWqzKZ7B/+4R9mZmawK1wul/x7Nb4n60bWkM18UNkvfkK1WoWw/+qrr375y1++fPnyUgM4PT198eLFv/7rv1ar1VtXIdiEhaUoplarczicqakpi8Xygx/84LbHxeJ7NrtwOByRSMTn86vVKkVRPB4PKv7tjJFFRH5gSBRFCQQCMHSj0aAoqnOQbD7gcrkikUgmk4lEIpFIBKWTx+MRa7Ivg2SrTD2qhQKBgKZpPp8Pw4P9nK4T6fpGLpf7N3/zN59//vl1Bt9fwowqlcrz58+//vprlUolEAhue1AU1cb3+IEYslwu9655MAlbEw8GcTRBXl48WiLgYTuC+sjxoCuYQGReOM9dXWcXPxZ/un///o9+9CNsHDUY3w5Z5M6bjYyT/Ix7uFKpFAqF1dVVPp9/R9iJR30oSKDMEIcmTicsWgjayy4l++q/+NLoNC67rhHZfh6Px+Px6vV6vV6HeXreVyiWcVmv16FUcLlcgUDwUQ2EfJ36UBVkT4R91cBHRI7lZQ9Vmze56zDYH6ZaWwabB5eGSCS62madR+Q5FywX2z3Q9nuhUMjlcuv1eq1Ww1rdOrX7c4hHr4/vwNM+qiZdc5MGejWBq9iGNflTs9mExc8wDDQuchFdZzydPHQXJCVZBEyTfQzOmy/RwUA9CppBUxc/5iCIrbNWq9VqtVqr1aiWJ04oFHYNOd0pYrNys9msVqvlcrlWq5XL5UqlgvsQ+wolSiAQwPbAfl9/AFdQn0g05ppEVK/zdJuLv0u1Vq/vKuWVaeDcBkkJ5zpN09VqNZfLZbPZTCZTr9d5PJ5cLh8aGlIoFHdkRc4j9vCKxWIymYzH46lUKpfLFYtFiHwulysUCqVSqVwu12q1SqVSJpMJhUKqh+vuBoYNusJJgPlErjtiP/T+9U5F8XZpIHzfJmawavl8PpfLnZ2d+f1+n893cnJSKpVEIpHFYpmdnZ2cnLTZbGypfzePAc6t1+s9Pj4+Pj72eDzxeLxYLMJmgB9Mq9WaTCaXy2W1Wo1Go16vVyqVEonkxpwEg+CtbDaby+VgPJBQZpuec96r7xrTU4OT98Q+rtVq2Ww2EokgCub1eoPBoN/vPzk5KRaLQqHQarUmk8lsNlsulw0Gg1KpHISri/DcpTRvCDkiqsvlciKR8Pv9a2tre3t7brfb5/OlUqlSqdRsNvFhoVCoVqtNJlMwGHS5XOPj441Gg8fjicVi3HgDVXB74a3LKj/1er1QKHg8Hq/X22w29Xq9yWSSyWQymUwqlfbo9LtTTE8NiO/hNgETFAoFr9f78uXLra0tt9sdCoVqtVqlUslkMgCWJBKJRCJxenrq9/s///zz2dnZwbl42dvz0d2CEl+v1yUSCYfDwZV1cnLy9u3b//3f/93f349Go7VaDZJeJBIxDINgX7lczmQyJycnPp8vl8uJRCKlUqnVavFMuJIGJ/h7Ya8e345HVSoVn8/38uXLly9fRqPR+fn5R48e6XQ6q9U6PDyMxbnuoG+c+s/3CCFB0sdisYODg9XV1a+//trn80UikUwmA3xSuVyG3y2TyTQajWKxWCgUFAqFTCaz2+1isZhEpvpFF7tHO4nD4cABR9N0pVLJZrNut/vt27fPnz93u93xeLxQKDSbTcBpjEajQqHg8Xj5fD6dTieTyVqtFggEcKHZbDbC7gMNexM36BWM4K5Pq1ariURifX19bW1td3cX13I0GlWr1fPz80tLS06nU6lUDi5cMCAaFN8zDJPNZn0+39ra2uvXrzc2NtLpdKlUajQaUqlUIBBwudxKpQKHbjqdrlQqjUbDarXq9XpYunfBw4OAAzBt0Wh0f39/Y2NjfX09lUoVi0WiywmFQqVSicGHw2Eo/bVaLZVK+f3+RCJRLBah7UDHGJywJ77Fa74Fm1ir1SKRyN7eHvS609PTer1eLBYjkYhcLi+XywKBALEChULxLWJ6ql983xbAazabhUIhGAyur6+/evVqbW3t7Oys2WzyeDyZTKbVamUyGU3TwWAwk8nw+fxisVgqleLx+P7+/tDQkM1mk8vlUqm0L2O7MgHrgosLFvnOzs729rbP5yM3OwKQcGVKpVKn09lsNjHZRqOBOGW1WmWH1QZ6ntk+9euwPoCumUxmdXX1xYsXq6urXq83k8mIRKJMJpNKpQBjEQqFEokEXixALb4t3D8oeR8KhTY3N3/zm9/s7OxEIpFarSYQCFQqlc1mGxsbM5vNUqn0zZs329vb0HyazWapVPL5fCaTCZrPrftzYGY0m81cLuf3+7e3t4+OjhKJBEVRPB4PccdarYaAcTQaPT09VSqViUSiVCoxDMPn85VKpc1m0+l0Uqm0R544L+rZI135u22HBDk6b968+c1vfvP27Vu/35/JZPAn6FG1Wg0mfjQaxdXXC07k7lA/+Z6m6Xq9nsvlYrHY7u7u+vr65uZmMBiE38ZgMIyOjs7Ozs7MzFitVrlcDm1na2sLakOlUonFYmdnZ3CHX/AiskmDli64uLxe79bW1vr6+vHxMU4p3QK+E309n88HAgGGYTKZTDwebzQaAoFArVbb7Xaj0ahUKi9lrnSd16W+fgVhz/Y2wi5/8+bN6urq0dFRuVzm8XjwYJbLZaht+Xw+Foslk8lKpdJLdOJOHYk+y/tKpRIKhTY2Nt68ebO+vh4IBEqlkkAg0Gg0CwsLDx48ePTokdPpHBoaomlaLper1epyuby3twe4ebFYhC+8XC6Xy2WhUNi2WOwdZbpRHxe3UqmUSqVYLLa6uvrNN9+8e/fu7OwMe1yv18VisVKphBZULpcZhgkGgycnJ0CwUhQFpX90dNRisWg0Gj6ff53BXJbp2wR/L1/HRQ3yer2rq6vv3r07Pj7O5/MymUytVgOLHg6H8/k8Jg5dqF6vCwQCosidN/47dRv0ge/ZEy4UCmdnZ+/evdvd3Q0Gg9VqlcfjqVSq0dHRubm5paWl2dlZ2LUcDmd4eNjpdBqNxlAoBC84oGaASd66XcvhcAqFQiAQ2N/fd7vdYHrc5iKRyGaz3bt3T6VSVSqVRCJRqVSi0ajP5wPfAK1A03StVmODsdg5jW2vYx9m6hpXWVcO++gZwFfgjTg8PPz666+fPXvm9Xrz+bxIJLp37969e/eMRmMymVxZWYnH4yR8S7cy186b192k6/IW9gk6H+6+cDi8s7NzfHwci8Xq9bpMJjMYDNPT0zMzM+Pj40ajETYfTdNKpdJgMKjVarFYDJQ2n0W3zvcURZVKpWg0GgwGI5FILpeDYsPlcnU63fj4+OPHj81mc61Wi0aj2Wx2Z2cHbhwou3DOxuNxROU0Gs0N+HNAV35+pVKJRCLv379//fr1+vp6oVCgKEqr1c7MzCwtLRkMhpOTk6OjIzyfw+HAn0MSZ78tTE/1Uc9B1CabzUajUb/fHw6Hy+Uyh8MRi8XDw8OPHj2anJxEnRIckmq1Cm+AWCzGb9iY+B6Znu6gfk2Hoqh6vV4ulwGvIHmMPB5PIpE4HI75+fkHDx5YrVYulwtvT6PR2NzcLBQK+HAul4tEIm63e2xszGg0arValUr1UUAiO67M/mWPY6ZZaQldn3DxNZJIJNxu98bGxtHRUSwW4/P5qKo0OzvrcrkkEkk4HIZJA3UfSCS4Mr9FTE/1he8RkSFZ3vl8vlwuYwNg21ksltHRUb1eT1yTwLFQFMUwjEQigQuMiEnA/a8/sGsSUTyIcxDmrFwun5iYmJqaGhkZUSqVfD5fpVJJJJKzs7OZmZn9/X2SHQutb319HXJxdHT0vGIng5tCG6NfwJ3pdHpvb+/NmzcbGxvJZBJjRlzWarVqNJparVYqler1OoGd4jN34Wa+LPVBz8G/wOEEAoFgMAi8Cp/Pl8vlZrN5ZGTEarXCCiRfpFuIdiICwfTNFl1zYOcNlfqYzGPPqFQqwUlHJChCs3a7fXh4WK1Wi0QiHFoejzc+Pv7w4UMc+EAgUC6Xq9UqghIikUilUolEIljDlxp2L3L0guvuYv8p0U9KpdLZ2RkCcx6PJ5fLgbPVavXw8LDBYBCLxcViMZfLIesaRo5SqVSpVGKxuEe7+aOfuTG6Lt8ToVgsFgOBwLt379bX14G9EYlEer0e2Cyj0YgSMeRbZBVIWIfNl313znT1clzwSdgq8Xg8EokgzIwvqtXq8fFxg8EgkUioVtyKoiipVOpwOBiGEQqFQqGw2WzCJMhms8FgECqBwWDQ6XRyubxHlaxT4TnvY2w1BqeUrXh0fQLDCjLW63VoOPv7+x6PJ5VKYacEAoFcLjeZTCqVCs7NRCKRz+dxwysUCovFAm9V22O7LinF2oWuM71J6gPfE7xNOp2ORCKpVIrP58OihcfGYrH0jsS6XamAXQEC0ev17u3tbW9vBwIBRG2sVuvy8vIXX3wxMzNjNBoBrCekUCgcDgcAF7lcrlAo5PN5iqLALul0GuCW25nYh8SGx9Xr9XA4vLe39//+3//b3NxEYI7P58tkMqvVOj4+7nA4lEplJBIBkBYeHjC9w+HQarU94gh/1+Q91q5arWazWfguoOQAsmK32w0Gw0Ahe320aHHJ1Gq1TCbj9Xr39/f39/dho9M0rdFoxsbGlpaWzGazTCaDXgsegsUiEAjK5XI8Hne73W63m0BlYOMGg8FYLGa1WqEaXTyj60yhlw/QrRpEsVhsb29vZWXl7du3Pp+vUqmIxWKtVjs8PDw+Pj47OzsyMsLhcJLJpN/vPz09LRQKEonEZDI5nU6n00n4nqT5XnnkN0n9sUgA2S0Wi0ikqlarYrFYrVaPjIxYLBatVjs4e//i2/xSxLTq89RqtWQy6fP5jo+P/X4/hDSKrkkkkuHhYUAv8S1ihcP8FYvFMpkM9i4p9VMsFj0ez/r6ul6vHx8fVygU58nIrv6c/hJ5RalUCofD29vbL168WFlZ8Xq9CDLKZLK5ubnFxcWxsbGpqSmj0ZjL5QKBwMnJCYw3jUbjcrmmpqbGxsYQkoMeiF2+U3L9POobLg0EY6jZbMpkMoVCIZfL4Zu/7AP7rt/3/lKqlWkBjySxsMnRbbO52dVFKYqCNxYOLhTfJB4qxLOkUulHHSADnTiOd7PZPD093dnZef369dramsfjyWQyPB5Pp9PNzMw8ffp0eXkZbhyGYSKRyNnZWTweh8dCLBaPjo7abDatVgumh9Y0uDH3nfrJ90wr/xLaoVqthsejq7CHRVWpVIDMgSFFt9KRupq2bMN3EJxB3g4ILjBCgKDBfaFQKEi0gf0t9pbTH5YmJmsikUgUCoVUKr1dVzcOLS40pEasrq7CluVwOBqNxul0Pnny5OHDh1NTUzBY4/H42dlZIBBIJBI0TSsUCoPBYLPZDAYDcLU9Cvjz7rFbWY1L8z17nmwhR1FUpVKBhGs2m1KpVKvVGo1G5Ne1PQS/QV7S2dlZMpkslUp4DiTleT5H9mHoxTlz2alhIvgBhR5EIhHApBqNxm63m81muO0w085CSESaojoVDo9YLNbr9bACc7ncBXrO4Aj2eqPREAqFtVrN7Xavr6+vrq663W6gwfV6/eTk5PLy8ve//32EJjgcTrVaBeTO5/NFo1GJRGK324EsBNiOap38izU0tqf1LtgA/ZH3hUIhm83CX0HTtFKpNJvNFotFp9OJRKKuwh6+s3A4nM1mUVMELnPkZ+AA3JamiBMFaA0pxiSVStVqtUwmg7xHVK5thI1GAy5/UmEBoU2pVKpSqQDtQg7XzU8Ks+DxeIVC4fT0dGtra2tr6/DwEHFZg8Hw4MGD+/fvLywsOJ1OhJZrtRpcPdvb26enp7VazWq1Li4uPnnyZGxsTKVSUawCITc/o+tQf/A54PtMJgMTUCgUDg0Nmc1mrVZLane1fatarUYikdPT03Q6XavV6BbkA1HAWwwBtoUR2H+Cps6cU/gN9msqlUokEkDnQvBjRmKxWCwWk8TFG5pMByH7cXNzc319/fDwMBKJ1Ot1nU7ncrkeP358//79sbExpAJTFFUoFE5OTjY2NnZ3d9PpNALVOBsWiwVu3G8j01P9kvflcjmXy+VyOQhI1BweGhoC5qyz8B00+0Ag4PF4EolEtVoFGykUCrVa3YvlN2iiaRqcCjMd0CO/3x+JRIAswsfYShdKjPj9fo/Hg4xy6EJYE4SlcY30Xp+wj4TMnng8/u7du1//+tcrKyvBYLDRaOh0usnJyQcPHjx+/HhsbIyUR89ms8ijePPmzcHBgUqlmpiYWFpamp6eRjo5NN5vI9NT/fLfQ29BjXOwLBGWXe90nA0Ues9ms4B88Hg8o9FotVqhQN+6OwwzIrNAQag2tY2d1Fer1RDtOjw89Pl8iGPAyheLxXK5HMmTQqGwlyqT/Z0+mqkALPT8+XOkUNXrdWQI3L9/H94bkUgE8yyTyQQCgfX19Tdv3hwdHTEMYzabZ2ZmZmdnh4eHxWIxpnbDTE8iD9d/VD/xmBTrGLCJ/Uv4s0ulUjKZDIVC4XC4UCiA71FJYXx8XKVS8fl8Uon2VohYgXCAoAAO/Dl0NyxxuVxOJpOBQABFdWKxGCmhLpVKNRoNIJnIMvvozvX9zMOB43a7X716tbGx4fP5yuWyRqMZGRlBXsT09DTKIpTL5VKp5Pf7d3Z2Xr169f79+7OzMySOTUxM2O12tVoN1f9S/HepMAsuyUQi0Wg0RCKRXC5HBhI74pbP55PJJE3TcrkcfieGhdGgKArp/BRFqdVqFDshHEj10Y8JmwliD6MkeGOEb4gMK5VKkUjk6Ojo5OQEagOy8jQazfT09OLiotlsRhn489aIuAUGqijTrArjXC5XLBafhz1sNpuJROLo6Gh1dRWWIvHxC4VCjUaDJBVEeQc97E7CLILB4NbW1ubmZiwW4/F4BoNhbGxsfn7+yZMni4uLVqsV+lij0YjH41tbW69evdre3g4Gg/V63Wq1Op1Om80Gs/6ywv6y+wWm/6//+q9SqWS1WhcWFoxGI1l5MBWSY3g83vz8/BdffEG1vM9gNoqi4J9tNpvf+973xsbGhEIhbm940vqTb4XuYvDGYHpQZ9m+ak6rZR9cBMhhS6VSaE2DgI5erx8aGoJqdBe8XVTL4d1oNMrlMhxWbEWOw+FUKpVUKrW9vb2ysrKysuJ2u5PJJNyXwK87nc7x8XGLxSKXyyEaur5oQM5ZiqKKxeLZ2Znb7T48PDw9Pc3lchKJZHp6emlpaXFxcW5ubmhoCO4pFPDa2tp69uzZu3fvUAUIEHyz2YzQLPFAXG2DevmWz+d79uzZz3/+80QiYTQa/+7v/g5hUIjCRqMBpv/qq68EAkEkErHZbHq9XiwWQ1tGAZuf//znGxsbFEVVq9VKpTI3N8f2RvQNp0AK5VEURZie1BCFhECpHGQ2vHv3DiAnOC4lEolGoxkaGgL0r8cFGjSRqxP58slkEgNmWo1BC4VCPB73+/3IRt3a2kKZIIqieDze0NCQ3W6fnp6enJwcHh5GVQUsxcWzuz7rk+c3Go1sNnt8fIxsyXg8zjCMSqVaXFx89OjRzMzM8PAwTdOQPij9gnRyt9sN7c5gMFitVpPJpFarCd8PdHdisdja2tra2logENBqtT/+8Y9RuA5ci0otu7u7q6urXC5XrVafnp7K5XJSua1cLmMiL1++5HK5LpfL5XJNT0+zgy394XuEeFAfAaYtHPD4l6KoWq3G4XCy2azH43n37t2rV682NzdTqRTkokwmM5lMDofDaDTKZLJbt2gJEcwZkGoohJZKpXQ6nUAgwN21s7OzuroKtyBSKxHc1Wq14+PjS0tL9+/fn56etlqtyDMkx2ZAY25TJ2q1WjqdPjg42NvbOzk5KRQKKpXKYrE8fvx4YWHBbDZTFFWtVguFQiqV2tjYQAZ9NBoFUAdpQzabzWw2q9VqYpwMlO8RLUH/JWiYQqGQHbJEmXVS2AI5X6TlJtAWiK4wDAPElEgkQuYAfHH94XuJRKJUKgHGoloILXZOHfjm+Pj4+fPnKysrR0dH2WyWpmlYAmazGdA/eI5vXgM+j8haA46PvMH3799PTEzI5fJSqbS1tbWysvLmzRvURYOaB9i63W6fn5//7LPPHA7H8PAwlpvg+AdK7NWr1+vZbBYuhGw2KxAI9Ho9CSlCVYOAfPfuHSoanZ2dAYEDl6XNZpufnzeZTDi3N7A1FovlD/7gD7hcbjabNZlMExMTxKHMMAyPx5uamvqjP/oj6Gbz8/OAuDKtPG+RSGS1Wn/84x+Pj4/XarXf+73fGx8fpz6EGvST75FSBAEPeCZufDgTjo+P19bWnj17dnBwEIlEKpWKUCgEdHFycnJubm5qagpKzu26hCFCJBIJSv6KxWKUQ0OlSHiyITWLxeK7d+9WV1e3trZyuRwUNqRWmkymqakphHg0Gg1JsGRupOgA+/mo2QYNrV6vkyQpVMJBInw4HN7d3f31r3+9u7sbCAQqlcro6Oji4uKnn346OjqKdBl2zGHQ4zcYDHK5HGVL9Ho9kpaolvrH4XCMRuNnn302NDQkFAp1Op1erye5e/CR6HS6H/7wh0tLS6VSaWZmZmhoiGJ1r6Kuw/fsyfP5fIlEAhe1UChEWr7P5zs9PeXz+cC7vnnzZmVlZWNjI5/Pow1Eo9GQSCTz8/OffPLJ4uKiw+FQKBQ37xXuJGTMuFyuQCBwdnYGnwZN08Vi8ejoKJPJeDweqVSK0JvX600mk1h0oFwcDgesRohJYksRpr+A9S/+ay/E/jpCyChJhMNM0zT5ZSgUAtza4/EcHh5ub28nEol6va7VamdnZz/99NPZ2VmLxaJUKqGm3hi8gsvlSqXShYUFrCrx5LCnBhOFbkGD2A3/4Eu02WwWi4U4cCiKYjsV+lZHRCgUErxhoVBwu91cLjeRSOAYRKNRFFAnWWoMwwwNDUEDnpubczqdBLx5zSFdn1DScGJiIp1O53I5ulXKs1qtJpNJqMKwBUulEsr+SCQSrVZrsVgmJiZcLpfD4RgbGxseHm7ze7aBlgdNDMPk83lke+Xz+VKpxOVy4ch//vw53K9+vz8YDIbDYZxerVa7tLS0tLQ0OTlJYCZQX9l6wkBNFKpVbbftl2y+h5Lc9Yv4oSv6vZ92LZZAKBRqtdqhoSG5XI4IDqrFC4XCRqORSqUymQyuWigDfD5/bGwMmoDL5dLr9cTzeusE2LDdbs/n85lMBsnUqHOPzDKCQUCalUql0mq1LpdrdnZ2fn7ebrfrdLqhoaG20rY3b7TQNF2pVJD0WCwWy+UyhBHV6rsIMEI6nS6Xy0gVcjqdjx49mp+ft9lsBEJHwOHshw+a9btOp1+P6gPfYzQSicRqtU5MTJyenp6dnSFpA7m28PchPgU1RqVSWa3WJ0+ePH78eHJyUqfTdT27t0g0TSuVSovFMj4+Ho1GgbcrlUpwqIGBUN5ZKpXKZLKRkZGFhYWnT59CTCKKBwcofav9zKB94e3A1eHcRiIR8DR6VYjFYrvd7nA4ZmZmlpeXXS6XTqdry7C5I86GvlB/8DlAdRuNxpmZGTQ8Oz09zWazBHCGmD9cTtCA79+//+TJk6mpKa1WKxaL+zGXPlOz2YTNzePxhoeHj4+P0+k0znMikWg2myKRyGg0ajQarVY7NjbmcDjsdrtGowGGBzLyhiHHbWEvnF5AJGQyGfL9mVahdpqmUctboVAYjcYHDx7MzMzcu3fP6XTCm3xHrt9BUN9wCjweT6FQjI2NoWQaasgAIEGqREkkEqPR6HQ6p6enHz58ODMzYzab747Xso2QTWuz2ZRKJcxcVNEoFovw04vFYovFotfrtVqtw+HQaDTAnJHI612YGgY/OTmZTqehcCLBDX/F0TWbzWNjYw8fPpyengYCh8Ph1Ot1oiJ39b3e+tSuQ/3MM6QoSqfTTUxMFAoFtVrt8XgCgQB0G0DqVSqVw5cPujkAACAASURBVOGYmpqamJgYHR1VqVR3gTPOI2CEms0m0NQGg6FQKCCnDNh6SFOZTAan562gi9uoU96j0dAf/uEfms3mjY2N7e3tSCSCDAG4rdCuZ2ZmxmQyoVwp22lInnN3guh9ob7xPZyjqIbJ4/HsdnsikUilUmS9YCzqdDqj0ajT6ZRKZddUrDtFxE2GcpByuZwUM4Tuiyg1cslve7BdCJoMEgL5fP7Q0JDT6UTRejSc0+l0TqdzamrKbrcDJs12GrY96jZmMCjqGw4ZkhuwSpVK5XQ66/U6EghJAWTYgnDm9L1t2+AItjiwGPgNkYV37b7qhLWhWzpaNoDvs9ksPPpcLhewKKPRCN3mtoZ989TntCYSdSJ3JUCaTKsOJn1nMouvQGzn8e2O5AqEzunoC08il1wutzMfgH2qb2GgN0IDT+cDRo3g7xlWesqgX913IpDpb8tlRbfaEGHB2dfsBfr6t2Jq16QufN9m0LCXifoYQJy9ZKSGFglSkuAu+ViPIK3zBO2ldog9ck6rstelnkBQZb1gia9Dl5ILMDbY7iP2vNgpYySlHSAREtIfzCQ+ILpVcusuVHinOvmegDnJYkFC4De9iAqylEjMIco9GAUIBabVGabrmDqfTLQjENQnDI/DqiF+wTwRasVnEMpBPkDntwj3sH/An27GECdJC9THDjaJH8O/BEABKXSFz5A1p1jngW4BWm5gOuwq6oj6DfqNvVA734PdwZokySidTpNYzKXEA+v8cDkcLpGybJ2nK7GvF/JLcqKw38jTheglB6Arkd47eGmhUHj+/LnP5+v64TaGIyeNsA7Vui66Ms3VYMbgVB6Pt76+HolEemRHgowSCoUEpkuxbjb2c/BLIrmI/sNOje/7MUCmLDy8KBh6R8oJ/pbvwUwkpYWI1YODA+CTCN9f7Mol60sOD0VRmHmPfM/mMPa/5KXYNuSbAUHQeb+zn0ZSPTCGXC733//93+f1XzhvXiSnjGIVA+w8AFfge6wzh8MRi8VHR0eRSKRHJYoMAECaer0eCoX29vY650Kmz94XcjmTX7Jv1MvOou2NIJRbFIvF6IqHJs9Xe3J/6bd8j+gSxToA+O+//Mu//Pu//zuGy7SK4J0nGwhvEX2O6MTk951iqe0JXf+lPpRY+G+5XEZT6Gq1CqOzq44ElwUSw5FfvLOzc4HHvfO2wUkjNwab6dvumSvLe6x/uVxGEYFLlZdqtqrPfvXVVy9fviS/7+R7qrWJN8P3WDSRSOT1en0+3/T09MXq6I3Rb/keW4ulQeG4hYWFdDoNCUfKHgGHSPVQBpH6UNaS9Cu2znAe33f+l2E1i2SLw/n5+eXlZZvNhuzV8+ZJ07RUKp2fnxcKhZ9++unFDpnOEbZdOxfI4ytwDN2ysAlxudyJiYmL71WKosBDSH4wGo1jY2MikQjNJsiTyajIKYUMbrJql+Mz7CIcV55IJ98zDFMqlZAsYjKZUJfq1ukDviceGD6fb7FYnjx5gj6VDKsLFZHfH5VGbGWG8D2RJRfoOVQ3iYsVJBUsiOnM4XCGh4dHRkZQoqPRaHTepHiXUCicmpqanp6+WJS2MTr5gX35sJmjcyKX4hi2iGW7iXoR9sQ3otVqp6enYe2wv0jUP/Ii8D32lPyGTGQQ8h6PBS7VbrcPDw9f7cn9pQ/0HJJeQFEUQHzT09OduvWVX9a5l5d6WttIyA/IMm7jSDaRre29nXxXtjtvAF0/cwVq87F8lPVJJhFyXL788kv22y++kXoUXv0ivA656jfzxovpA38OexUEAoFAIGjLnLj7dPFGXnObe/n61V7RaZlc6l0ikQiI1++oR/o/BMn4jr4jQt/x/Xf0f5G+fZ2meyS2pnue1/U7+j9LH5H3nX6Vu0bMh0R+yf4AdYfHT+hiB9cgvjhQupujIvQReQ/PGtNqcHkzY7oUkV7nzIdQZ9DFTH8XLgH2oSWupEsNDEj6W++UAWqLeLAdaLdb2L2NLlqsWq1WLpfJTO4g+JZp4SAQXcZ/z3NWdu7EXSC6FdimWOGwXpyMTKs2LfVhzPGOUOfpxWgve6oHRL+tKU59GN6r1WqxWMzr9YKxOB29eu4I0TSNwi82m41qBfw7V5xhGJSLwSyAVPvok9t+07kC/fLfE1wa1WJiFOG6+I5lWjglRIWoCwFzg6Y2JZMdfsbwUK6MvtWqKoR+m0zJFpbNZrNcLj979uyf/umf2Ei12xxpN8Iijo6OPn369G//9m9JDfGulM1m/+d//ufw8DAajV6AgmY/vO03g+N7LDIb0/GTn/xkcXGRhMk7JSV+bjQawG82m81KpXJZwGy/qHMd8BskH+dyObFYrFQqUaL+LjBSdz2HYRj0nzo8PHzw4IHNZkNx8Tt1k1IUlc/n0WchGAxWKpUL/DbIKzg4ONja2spkMmq1+mKFuGvUts1W6+UzvRDNAocB9Z1IJD755JOZmRmJRHLBFyuVyu7u7ldffcXuq34r1LYU5IgSZITL5VpeXr537955MNgbpnP3npQS/+STT77//e+bzeY7qN+Hw+H/+I//CAaDbKzVeYOkaToajabTaT6fPzo6KpfLL374Tcp7ApUJBoOor5jJZEhXufOoUChsb2//9Kc/ZRhGKpVKpdJe7rFBEJvR2WcA5dmy2eyTJ0+kUqndbr9DfE8UMmLzAauD0vqo/O9wOO6CWtZGAoFAq9Umk0luiy7Qx1DgUqPROByOn/zkJwaD4YIn36S8p1hJmD6f71e/+hWwxGzFputNy7Ryg/7kT/7kyy+/NBgM9G30gewKKCL2RjKZ/OlPf4qCwXfE6USdJ+9pVkYFSscA5XvX+F4sFiNjsE3MdCUwFp/Pl8vlRqPxjgADCTGtNmHoA06xXD3nqZfYJlQrWlpastlst7VBnY4E8nMoFNJqtfC24Qa7C1x0Lt93/fnuU1eB9+2aQiedxyvge8AHVSoV2lneNcpkMqQJD/Jr70IgqKd7hzikBj2a7+hSVK1Wy+UymOmO5DF1EkrKUeeoardFH+H7zoD/d9x/d4id0gk16Y44Mdv+CmL3+bt1uojv20y03vm+6718F47NNd/eFoSnPjTpOg3c67/xYkJBFHjEmVaJhEsRvgVvGMMwKKN5BevzPP893UqnJqbIHZH6Pcl7bGqPjgKkpZNUIKp1DHARk3IXgzv3F/gxqR50NrYrEGnR8BTRNI1iyCSJG1YytpYUiCXPuRUDrsdtIitQr9cLhYLf7z87O6tWq2az2WazabVaUnKHTRc8+eL1RECtUqnckaJRVO98T/XsmWZa6fqEs8FJ5XIZZRrK5XKtVqNpWiAQCIVCxPCuN4teqRdGZOfOwhRDrwd0pysWi8AFgO/RV7XRaEilUo1Gg37rt5uk9tE5EinWaDSKxSJa8O7v72ez2fn5eYFAIJFISA9kQlc+xkyrIACpRnEXVOWP6Dn44bIDBbwHlbEIgCSXy4FpUI8XDeB1Oh2K89wdzY8QBHk+nz8+Pg6Hw9FoFM0M2/geeoJSqRwZGZmZmQHrsFtj3zUiA2s0GoVC4ezsbH9//+3bt/F4nMfjWSwWg8GALNPbHedA6eOa3GX3j8PhiESiYrFYKBTy+Tx8Dmhyj656iUQCLYCsVqvT6RwbG9Pr9XeqHD7R4zOZzMnJybNnzw4PD8/OzkKhUKFQwG0GhYf0hlAoFBMTExRFoSUy+P62Qqc9fgyF1srlciaTSSQSsVgslUrlcrleQHvfdurVj0n1rDsiLh2JREKhUDAYzGaz2WwWTe7z+XylUslkMoVCoVar2Wy2ZDIJjUgqld6FG7DRaKB1Ya1Wq1Qqp6enW1tbb9688Xg82WyWdKeDvCfgYS6XWyqVVCpVPB7HUSeqzl2DB7OJaRXeikQiyWSyXC7DK0r+ervDGyj1p48nxdJt0um0z+dzu92Hh4eHh4fxeBxSpFQqgcVR26xWq6HXEjrHm0ymuwDOLpVKaNyZy+USicTx8fH79++3trbQsYukd7Cd5ZD6xJ/YWWv2LpznrlQqlRKJhM/nCwaD6XQa+Cu4HO7mgPtIl+b7tl2EdsvhcPL5fCAQCAQCfr/f6/V6PB6fzxeJRKDTA0/L5/NFIpFGo2k2m+l0ulgs+nw+qVTqdDpR+Ol2Vfx8Ph8Oh/1+v8/n83q9Jycn4XA4Ho+n02kOh4PWIPBL5HK5bDaLMmAURTUaDZPJND09vbCwYDAYbrEn6XnuVDbV63VU1Q2FQvv7+wBm445Cx/nfeaanri/v4bVMJBJer3dra+v4+BjyIxKJpNPpSqVCmsnAhEU/mUwmc3h4GIlEMpnM2dlZMplEra9bFI3Is3G73WtrawcHBycnJ5FIpFQqURSlVqvVarXRaHS5XI1GIxwOe73eUCgEVUcgEKDdJ5pgqtXquxCHv4AQ7QJw3+PxoOMqTdMymUyj0Wg0GlRvbTswv2OHoQ98X61Wj46OVlZWXr9+HQwGo9FoMpmEp1IsFisUCr1eb7fbx8fH7Xa72WxOp9MAzaMtJtR9VHXty5SuNotcLhcMBre3t1+8eLG/vx8Oh2u1Gm6n8fHxsbGxiYmJ2dnZXC73/v37er0Ow71UKsnlcofDMTs7Ozs7Ozo6KhaLSdoUdflk2RsgxI/q9Xo0GvV6vTjeAoFAp9Pp9XqdTieVSoFsZX/rzmprV6Pr8n25XA6FQqurqy9fvtza2oKH3mKxSCQS3JtoFjk3Nzc6Omo2m1Uq1cnJSTqdhoe4VqsVi0X0Ab9Fvq/X65FI5ODgYGNjw+PxxONxdFKQSqVDQ0OPHj1aXl52OBwCgcDtdhMboFqtwjiZmJiYnp4eHR0l3dGu7AK+Jp0XN2VTs9ksFArRaBTqXDwe53K5ZrMZeySXy1E9886a432h6/I98N+xWCwajZZKJaVSaTabJyYm0CJPIpGIxWKtVmu323U6nUwmQ297hHsIkc6Ht0WNRiOTyXi93t3d3Ugkks/nIe34fL5er5+amhobG1MoFH6///j42OPxhEIh6AZITnA6nUajEWkf7Nq3d4TaRHW1Wk0mk0dHRx6PB2FajUZjsVhmZmaGh4fvZu/4vtN1+R7WKnoWGAwGq9U6Ozv72WefIdyN0L1AIBCJRMhMJwUa4CSGrnkBtqRrwPg88M+ViWGYYrEYjUb9fj9heoqi0OHVZrOpVKpcLre9vb26urq1tRUMBsvlskQi0ev1w8PDBoOBx+OVSqVkMimXy4nznu7WGOKGiQ2ywjAqlUosFtva2nK73YlEgsPhICt/cnLSaDRetvT+t5Suy/do9L60tATwt8ViGR0ddblcIpGIePfYnQWAz2k2m0gZwfoCDtU1n4sgrphW8wjqw9T9TvDcFfYMoAmlUgkORmZWpVIhXciLxWIwGNzf39/f3w8EAsjApGlaIpE0m02/34+cXZ1OZ7ValUqlQCAAsAcpOzfm4en0trWtD5fLzefzoVBoZ2fn9PS0UCjgTrNarTqdTqVSob7snbqvBkHX5Xsej4dQpcFggEqjVquVSiV79SHwwO4EkkrUR7SOu0DGEHnJtNoHdX6mbXcvS1wud2hoaH5+Htn06LReq9VgjiuVSoZhCoUCYnCFQgGDr9VqkJfRaBRuK5VKNTw8rFKp0HhHJpNptVqj0Tg0NKTVam9YY2aLeRJbyGQyR0dHGxsbh4eHmUxGIpHYbLa5ubnp6WmtVovzeXdQNIOj6/I9ONhqtZrNZqlUCul43ochfiDXEfKEzwdtyT6qD1wqbHwp4vP5ZrP56dOnDocjHo97PJ7j4+Nms+lwOBYXF7VabaFQaAurwYF7enoajUbhwEHqk0qlkkgkfD5fLBYPDQ2NjIw4nc6JiQk+n69QKG6S9TvXs1wuB4NBOCH8fj+Hw7FYLA8fPnz69On8/LxKpaJZsOEbG+et0Ln9a3vnLZqmFQoFdJg2JGbbYxHkymazqVQqk8kwDKNQKKxW69DQkEwmu5gnBnrzQs/RaDQikchgMJhMpqmpqUajYTQa7XY7h8OBuwl4d2C2wBlyuRwZdOAYlKbK5XI41TKZzO/3B4PBTCbD4XBsNhu8+5xWQ9/BzaiT4HlbWVl59erV9vZ2Pp93OBzT09PLy8vj4+NDQ0OYFBnV77aq0873V5stadRxMW4bdm08HkesiqIoVDcwmUwXhAnRohU1tzrxsf0ioVCIRlHValWhUBiNRh6PJ5fLpVJpuVyWSqUGg8HlcuVyOaBHYa+jGEm1WsWZJ0BzIJQA0Mhms5VKhabpUqk0OjoKE+KGi1PU6/VwOLy7u/vu3Tu3241iKiaTaWJiYnJyEjFmYoMRI+p3WOr3p64Dw+o8RbeKNrL/Si4BoNhPT09R/EOn09ntdoPBACAXuwoIOzEC8B4ej2cymYhY6rtAwvgh1BUKBQHiikQi6L7ValWtVrtcLoAZScmaSqUiFovh0qUoKpfLhcPhzc3Nk5OTWCwG+D5KO/H5fCBPAeQcEGO1Pbler+fzeY/Hs7a2hv64HA5HpVIBD2u32xUKBd2q3UCygth9r6gOFwLDao/F3o5BzKhfT2Y/h3fxE3v0wbFLqRGriBijYCaqhQXA1V8oFFQqlVgslsvlHA4H/StpVnNMRIJzuVwkEtnf3wfg8fHjxwgo9mUhzptyZ6Idqo+4XC6DwbC0tES1op5isRhDJUAdhmHS6XQoFDIajWtra2tra0D5bm9vm0wms9lssVhuuHxxLpfb3d198eLFixcvjo+P8/m8TCabnp6empoaHR2Fz4o4HpqtPvVUq2we8oQqlUqpVCqVStjZarWK6xFRGoFAgLLMnRgNuoN6HDZZVUBEiW5JsaomkqrA+P3FogQxIoyw/zhkmtUij2KVLC4UCoFAYG9vz+PxoOlsrVbL5/Ner5fH452dnbU1pwffJ5PJUCh0eHjI4/GcTuf8/Hyb17KX8XfSBV/sujcIU8BVxf4kUdbZTx4aGtLr9QqFAnE6wDlTqVQgEAiFQplMRiaTDS481Lb3qVTK7XavrKysr697PJ5isajRaMbGxp4+fTo3Nzc8PExOINRUtm2Wy+VisVgsFksmk8lkMpVKpVIpHIxarQbDHYdHr9dfiqcvJsBAvF5vrVZDsSOxWMwuQMLhcGKx2PHxMVEZiIpBpK3X68Vo7XY74uhsBu5u115zAnQrjQ3JVpVKpVAohEKho6Ojt2/fejyeZDKJ0rPBYPDFixeHh4cwEKkP09KazWYymQQiEv0VSRvdm1c9Yft+9GMcDgf6j0KhUCqVMpmsXC4j6yAajQYCgXg8PjQ0NKBBslem0WjUarXT09PNzc2XL1/u7e0lk0mhUDg5OYnaj06nU6vVQmqSOxkE1SgcDh8dHR0eHp6cnASDwbOzMwgs7I5cLrfZbD/4wQ8oipLL5X3sRV4sFk9PT3/1q1+lUqnh4eEf/ehHMpmsUqmwLxOPx/Ozn/1MqVQuLi4ajUaiYyP8XygUXr9+vbu7m8/n//RP/3Rubg7DI4tzbl3Ya2rPSEhFLk84HHa73WdnZz6f7+DgIBKJVCoV3J7QZHw+H6kL0Cby4eh0Op1TU1OLi4tQikg3ihtOC+p62LouFNQAk8m0tLQUi8Vomt7d3U0mkwcHBzabzWKxDIj1iQqL7S8Wi7FYDOkQyWSSz+dbrdbl5eVPPvnE4XBoNBqhUAgXHKJseAi+5ff7t7a2dnZ2PB5POp3OZDJIHsKmAIzdaDRWV1fhiR4fHyfC65rk9Xp/8Ytf/PKXvwyFQkC+fPrppxqNBrOrVqubm5v/+Z//+W//9m9SqTQcDptMppmZGZlMVqvVuFwuyob+6le/evv2bblcViqVPB5vcXGRjRfs4s8hMuNqrF+r1ZBVGI/H4brx+XyHh4eJRCKRSADGA88MahBwuVx4/YhNiVIWOAZqtRqAH4AigdG/reqnPRLGxufzgezVarVo2ppKpUKhkN/vxwpQH4rntiD0Fd5Ifbhl9Xod3rNwOIy0Ep1Ot7CwsLS0dO/ePY1Gg+urbT0LhUI8Ht/d3X3//v329vbR0VEoFCI5aDDNuVwuNP50Oo2Mi9HRUavV2i+RD+0gGAz6fD6ZTJZOp3HJYJCNRiOVSiHtk8PhOByOfD6PZG4QHAyBQMDtdtdqtXA4nMvl2tTRPltXzWYzm80eHx9j0G632+/3BwIBAFqQkIUcjqGhIYVCgZxasu4oryCVSkUikUgk5PH4w8PDDodjfHxcp9OhgDrVcjvcpKrTlbGoc24A6P24u+r1eqlUQqpxLpdLp9OIBHc+mepWn+ejo2rzt7CHhO0H3hsFcScmJj7//PO5uTmz2Uz6I0Gthw1WKpVgh6yurn7zzTenp6exWCyXy+GBPB5PpVLJ5XIejxeNRlEcAIXL4as97/q97E4JhUK1Wi2TyeRyOd7I5/PhEsSqSiQSpVKpUCgajQZcI2AJMDeXywXgAvAwlIcA9BpRJupqfM8OgJNf4ro8OzvzeDzb29v7+/tut9vn8+VyuUqlQlEUErExFL1e/+DBA7vdDlQP7lko0JgSNGNUfpTL5fAq4hJg7+6taPkXf4ANJSqXy6lU6ujo6OTkpFgsAuVmMpkIBubip13BBwL1j7Q/QSZhMplkGMZisSwsLMzPz2u1WsKgTAs8B44plUqRSGRzc/P9+/cHBwe5XI7H41mtVqPRCD6DC65UKiHXolgsolwAbrCuoRWyU71PZHx8/C//8i/NZnMmkzEYDPPz8yinzLSank9NTcF/wOFwxsfHXS6XTCYjAlQqlbpcrr/+67/+/PPPaZr+7LPPkPLP9qFdS96TnavVaul0+uzsbG9vb29vb39///j4OBAIJBIJZCFKJBK4KUUikd1un52d/fTTT4FzJE0+EM0hvI66OjBk2xa0zQy4AerRl0Wxyu/AW0WCdM1mEzqb1WolzpyuvqkrHGwi8ok7FW6DRCKBCijValUmkxmNRrPZjF4SRNFibyIwGu/fvz86OorH40Kh0GKx3Lt3b25uzmAwQPqUy+XT09Ojo6NYLJbP53k8Hm7pTtcWe/UutVMymWxsbIyiqHq9rlar8V62FFCr1TMzM/DS4EBCIIL4fL5KpXr69Ons7CxN02azWaFQtL3iunoOVrxYLPr9/pcvX66vrx8cHCBPuVAokBI6UA2FQqFcLn/06NGXX365tLSEGxPnAYAWIvgvTtUji3iT8r531gfBCYulQBwXcJ2RkZGuXUyYDur6mQu+QpGgDI8HH1o4HA6FQtFotFwuQ+gAO8R+CNQDJKOcnp7u7OwAaF2v15GM8sUXX3z++edGo1EgEKCaUDabxdFlGEan05nNZr1eD6h57+vzUQLrsyfLtoVUKpVarcZ/2do/IYvF0nXRQH3It0KRmY2NjW+++WZvby8YDKIGC0VRRC2pVCpSqdRsNs/Pz09PT4+MjAwNDaHRF9MKcrErc7S95S5bsV0JkLW3b9/+8pe/PD09RX0OkUikVCpVKtVNJuBibaH8VKtVpBR2Rs1QCMPr9e7t7Z2cnDAMMzo6+ujRo+9973vLy8sajabRaMTjcZ/P9/79+5WVFbfbja5VDofD5XJZLBZ2XKmPRLT2NgcAOIewCuxpaPC91G65HN+TRSS/KRQKx8fHb9++fffu3dbWVjgcJj0DyefROWJkZGRqaurx48dTU1MmkwnSnWkh8tnntTMSdKlB3jrB2vP5fNvb22tra+l0GrFMWGAkMWVwA8CdKRQKcczkcjkCCKenpx6PB2579ucZhqlUKuFw+OTkxOv1FgoFvV4/PT392Wefzc3N6fV65GFiRuvr69vb28hONBgMdrvdZrPpdDrSrrBzPFfbQbAH9aGaxGZ6piMZEjYAwzBQIvBLupUDxP7kpfmeYt348Cjt7Ox888036+vrKDEAwBbqK8HWkcvlVqv14cOHDx48uH//vslkQuNBdoztvOI5Fy9Zp27wUWPxssS0QP/sk3mxooUCE8fHx0dHR36/v16vi0QilUqlUCiQcNwVpNAX5Y0EU4H+R51Xo9EInNzm5iaSPKEQkwWHkuP3+1E6BW7+hYWFTz75RKfTofLC3t7exsbGu3fv9vf3Q6GQQCAwGAwOh4MNK+wqaMm6nae8nUcEVtD5LaYV1qRY+ACKoqCwtf2VnexB6Ip6Do6Ux+NZXV19/fo1wiLkloE6Cwt1aGhodHT0/v37c3NzU1NTTqeThNbaIuRUN2Puox6PNgW375cDXoG6D9gJgUCgUCggs0kiFXHjcLncbDZ7cnJyeHgYCoXgWtFoNFNTU3Nzcw6HA4l8572r0/txwWrQHUS1vKgURQmFQqPRODU1hUs4lUptbm4CLJ1MJl0ul1arhaWBIBTA4bAENBqN0WikKAo+6KOjo+3t7b29vUAgQKoJORyO5eXl6elpo9GI+Fd/JQ5m0VUaEm5m3wPs5WL7QrqO6op8j2KA+/v7a2trGxsboVCoWCwyLYgBTdNINTKbzePj49hyp9NpNpvFYjHTQux07ujVFo750BPSL5FPpBfDMKifiixsgUBgs9n0ej2xq6jWlYVKq36/f3d31+PxIBsLonF+fn5ubm5kZOSjPVx7P/bnfQzDRirc+Pg44qxbW1uJROLw8LDZbKZSqVgsZjQa4eculUrBYBDZkgiwoFbA7u5uPB53u90HBweoAlapVCQSCbqD3b9///79+yMjI8in6WXZLyWVLtDRu3JLG+u3qUZtdDm+J5d+sVgMBALb29vv378/PDxEzALnD3FKg8EwOjqKtIZ79+5ZLBZ2u7I+Gv5tCl/Xy/QKx4DoiGBo1Mt+9+4dsqvm5uYWFhYUCgX7ZmcYplqtBgKB3d3d9fV1r9eby+UAV7ZYLIuLi1NTU2iHOrisK7Z0hES02+1Uq5fj5uYmahYFAoGTkxNUidLr9aRXcSqVoiiqVqsFg8G3b98eHx/H4/HT01Ofz4d7QKlUon7E1NTU/Pz8vXv3dDodkonpbjF+ciFT/ZZKXalTESU/Y6pKxgAACbNJREFUt/3pKvK+Wq1Go9HNzc23b9/u7e0BdA5UqlarNRgMFovF5XK5XC6n02kymbRabVtJ+BvONO0LQUweHBwAolgqlZCRLZVKSdJJJpNZWVl58+bN/v5+JBKp1+tKpRJcMjIygrzbgW58G9E0jdvmk08+USgUw8PDb9++DYfDZ2dniUQCrne5XN5oNEqlEgq1VyqVYrHo8XhSqRTstGKxWCwWm82mTCYbHR1dXl5eWlpCtgr0PSIjvkXbehW7FoCneDyezWaRTadSqeA6GB4eHhkZcblcdrvdarUi2fyO183rSnQrE4BqcQ9U4VwuFwqFKIpCQjDwxtBuUUfk5cuX29vbgUAAJW/VavXU1BTkolgspmm6qx583kno8ZCwL722zyN/EoljarVaKpVubGwcHR0lEgnkPMCfRnxr+DqqmtKstBKVSmWxWO7fv//w4cOFhQW9Xi+Tyfh8fq1WI9+9ykLfEl1Rz6EoCnCDYrFYrVZdLhcKUZhMJpvNBqwfsJODGfZNELE+aZrGVQafoEAgiMfjSFyCfwbR6EKhkEwmvV4vcqwgSrVa7fT09MTEBFYDaI7OJMOuF3SnYtCmRVys3ZFZcLlcgUDgcrn0er3NZhsaGpJIJPv7+8lkEhUaASFhGAYdaNDMgmEYfBES3W63LywsAN5jsVhQGI+iKA6Hg6DkBXzfVQW6Xboc38MbQFEUqufJZLKzs7NyuWy1Wq1W6/DwsFqtBmcMolsGeTvdgowTpBGyY9l5N318L93KOn/48CGMRbfbDWMRkFI+n48smVKpBOhis9lEsdjHjx9PT0/D0wd80XlJ9zCNCEC1zUojI2kbWKc/54IrQiKRjIyMPHnyRKPR3L9/PxAIoPJ9MpnMZDLFYhFpA0CPIhfRaDTq9Xq5XG4ymSwWy/DwMLpakJsBi8MwDNuFgkuATFYkErGd8b0ve4+fvAJdWt7DkkOSqFgszmQyQJ5otVp07IFUO++IX38yJIUXmX6oXDJQpZmmaeSYT05OwowRCoVutzscDqOoDvEWUxSF0ohcLndiYmJ5efnJkyejo6NqtZpdh6xTQrOVY/Knri68toGBOL1VZcOhdblcarUaiWzhcBiI8VQqlc/nUQII9YI4HI5arR4eHjaZTMihkcvlBDpOhkq3fNCdFm2bd4V88i7QpfV7bB74AE5J1Egirg+ChO47I9ItfC/V4n6RSAThhKZx/X0dm5BKixpBMNNVKtXe3h5QuLlcDmJPJpOp1Wq0Dl9cXLx///78/DzYhe27pDugPoTpSduIXrgEGQskHb5TfepKKGteLBZtNhtsWUJisRhqGzQfsViMcBsBw7Y9qm0iZOSkhQS4Agmy9MdgVzdJl+N7LDFuYYZhpFIp/WEQGEszoDQouhXWpVohyWq1ms/ncaUSXOcg9EhoupCsAB6iqCCHw4nH436/H+Uyh4aGxGKxTqdDvcSRkRGlUklSyT76lnq9XqlUEB1jS5DziHQcIj/0IvVBuJmlUilpA1GtVqHck6gnh8Mh3cbpbtF+NpGrjITw2FcBTiaqo96YO+sCaud7wjdduYfIWmDIYMrc5DTwrnQ6/c0338B/srOzk81mSRW+AeWj0K3oMnSY0dFR+GqEQmE2mw0GgwjoaDQaLperVqtNJhMUA6hhXYfEXmpA2AEOQ7SbZnm+ydc7C7QwrZg8O2jYy4w4HI5IJBKJROQhjUYDR5qNzm8bSS8LxeFwisViOp2OxWLANudyOZQqudQIB0pd+J7ugKOw/0q1UBBkdTpT2Qc3XIzt6OjoH//xH/1+Py7W0dHRyclJdrmvQbsO5HL5yMiIVqsFGItAqZEWhFgVrNu2FtadBJ7b29uLRCLAD5dKpa6Y3s5JsUNCV54ysRDIpURyPtk82vtxoiiqXC4fHR19/fXXkUgE1YRQaOgCjP4N07l55eyjybRQaAwLPkm3XNG9azXstbvCoSdnEs7yQqHAsAosk0Z8nYQ/IQLPvXxXe/bek/xrVE1jrw+UQLj/iKSkWniHtvkSsYo2eD/72c/ev3/PMIzT6UwkEm1dMM7T3+AwgS4OneQ6opStrLJNUuqSTE9RFAJ8z549Q+3oWq0GNDxkwV1g/Yv0e+hncEtrNJpKpdLH8MTVdggqFmAkbNc1ibycp1Gw7zHym8u+nRhqVKuizgWTInlx5xHdCgKm0+mdnZ3Xr18To5ZgCcmHu55SHHiSldYv/eH6fAm7CwBPmqaVSiXBLN5pvicXH4fDiUajHo8Hp5ZmIRCvSVfbJHAGIqakaDXbr9/1RWBQgUAA6+1S9t+Vic33F5xGoDsJeJ3trfqo2kbSWdi+xVskIlMwKbZ/k+2T6JcWep0dbOd7osOA6ev1+tdff725uQmNs4/ekqvpORwOB+UrkskkWlDh98C9IIjY9mToRSSqUKlU4vH48fFxsVjsy0TaRkh+brKKc5wnjJvNJhq4OxwOiBWz2RyLxZq9FUoRi8VisbjZbD5//jyTyeh0uq76W1+2rHNVuz4cH8vlcmdnZzKZzGq1otIgVE1cTXfLriUKAxH2Vqv1hz/8IVSIer0O9bGtKfGV6Wp8j84oYrF4ZGSEJONardbJyckLGtSQqXE4nEwms7e394tf/IJd8a8v1MkZRF1hXy8YDBYZpT4KhQJqSwH6lslkesRswqeEM+PxeMLhMFkT9jAGMUG204/9CrpVE7ter6MDEuD+ZrMZtXXvAtNTbfKeLSo4HM7jx4+Xl5dR96bRaMCS66PwuMISkNB3uVwmmli1WqVpWqPRXKzn4OdwOHx8fPz8+fNBbECnvCfaC4Hyk1+SglkoAsMwTLlcBlShxwJMXC7XZDL9/u//PvoECwSC2+V7zAs1kSArsV/lchllv7om1N8K8SqVysHBAVI/UW4B0yO1qlGUh7kD7duJ7ktRFIDNxGdPsWBk1DknSqVS/fmf//mnn36azWaJK4Y6fwuvMLyP8j15ODFqm636w9AhAX3hcDjLy8ukZsF5b+Tz+SMjIz/5yU/ILU3eePFSXIE6n9M2MLKARB8muaPNZlMul5MKbbdIUHoZhuFVKpXd3V2pVIqGZBQB5vN43y5k6UdJIpEsLS3NzMwgQHMB31/HF05+7qrft4lMeDk4rXoBQBzhvzgA7BF2EmJk7LSvzsHcpKj66OrdupLDtHL9eJVKZWdnB2jSe/fu3e6wBkrgJFI16bw9uI5i0KO8J8TGXVIf+knxA3G8/g5QpzPn5o/Bbx3Zf/Znf+b1ehmG0el0DofjhsdxWzQIZuq0a4kLr/OvILbhe8GTr6Z0XfYrfaTOAd+6pCcE98b/B+r/DuWecwEtAAAAAElFTkSuQmCC;imageBorder=none;clipPath=inset(1.88% 1.38% 50% 0.99%);" vertex="1" parent="1">
          <mxGeometry x="280" y="273" width="113.14" height="29.31" as="geometry" />
        </mxCell>
        <mxCell id="PE0mwfs7S3fnOxnz0N8g-7" value="&lt;b&gt;&lt;i&gt;Label 0 samples&lt;/i&gt;&lt;/b&gt;" style="text;html=1;align=center;verticalAlign=middle;whiteSpace=wrap;rounded=0;" vertex="1" parent="1">
          <mxGeometry x="156.28" y="255.5" width="120" height="65" as="geometry" />
        </mxCell>
        <mxCell id="PE0mwfs7S3fnOxnz0N8g-8" value="" style="shape=curlyBracket;whiteSpace=wrap;html=1;rounded=1;labelPosition=left;verticalLabelPosition=middle;align=right;verticalAlign=middle;rotation=90;" vertex="1" parent="1">
          <mxGeometry x="326.07" y="200.5" width="20" height="135" as="geometry" />
        </mxCell>
        <mxCell id="PE0mwfs7S3fnOxnz0N8g-9" value="&lt;b&gt;&lt;i&gt;Bengin samples&lt;/i&gt;&lt;/b&gt;" style="text;html=1;align=center;verticalAlign=middle;whiteSpace=wrap;rounded=0;" vertex="1" parent="1">
          <mxGeometry x="287.28" y="230.5" width="105.86" height="30" as="geometry" />
        </mxCell>
        <mxCell id="PE0mwfs7S3fnOxnz0N8g-10" value="" style="shape=curlyBracket;whiteSpace=wrap;html=1;rounded=1;labelPosition=left;verticalLabelPosition=middle;align=right;verticalAlign=middle;rotation=-90;" vertex="1" parent="1">
          <mxGeometry x="326.07" y="270" width="20" height="135" as="geometry" />
        </mxCell>
        <mxCell id="PE0mwfs7S3fnOxnz0N8g-11" value="&lt;b&gt;&lt;i&gt;&lt;font color=&quot;#ff3333&quot;&gt;Poison Samples&lt;/font&gt;&lt;/i&gt;&lt;/b&gt;" style="text;html=1;align=center;verticalAlign=middle;whiteSpace=wrap;rounded=0;" vertex="1" parent="1">
          <mxGeometry x="279" y="343" width="120" height="30" as="geometry" />
        </mxCell>
        <mxCell id="PE0mwfs7S3fnOxnz0N8g-12" value="&lt;i&gt;&lt;b&gt;train&lt;/b&gt;&lt;/i&gt;" style="text;html=1;align=center;verticalAlign=middle;whiteSpace=wrap;rounded=0;" vertex="1" parent="1">
          <mxGeometry x="429" y="273" width="60" height="30" as="geometry" />
        </mxCell>
        <mxCell id="PE0mwfs7S3fnOxnz0N8g-13" value="" style="endArrow=classic;html=1;rounded=0;" edge="1" parent="1">
          <mxGeometry width="50" height="50" relative="1" as="geometry">
            <mxPoint x="429" y="303" as="sourcePoint" />
            <mxPoint x="489" y="303" as="targetPoint" />
          </mxGeometry>
        </mxCell>
        <mxCell id="PE0mwfs7S3fnOxnz0N8g-14" value="" style="group" vertex="1" connectable="0" parent="1">
          <mxGeometry x="510" y="260.5" width="120" height="90" as="geometry" />
        </mxCell>
        <mxCell id="PE0mwfs7S3fnOxnz0N8g-15" value="" style="ellipse;whiteSpace=wrap;html=1;aspect=fixed;fillColor=#dae8fc;strokeColor=#6c8ebf;" vertex="1" parent="PE0mwfs7S3fnOxnz0N8g-14">
          <mxGeometry y="14.727272727272728" width="16.363636363636363" height="16.363636363636363" as="geometry" />
        </mxCell>
        <mxCell id="PE0mwfs7S3fnOxnz0N8g-16" value="" style="ellipse;whiteSpace=wrap;html=1;aspect=fixed;fillColor=#dae8fc;strokeColor=#6c8ebf;" vertex="1" parent="PE0mwfs7S3fnOxnz0N8g-14">
          <mxGeometry y="39.27272727272727" width="16.363636363636363" height="16.363636363636363" as="geometry" />
        </mxCell>
        <mxCell id="PE0mwfs7S3fnOxnz0N8g-17" value="" style="ellipse;whiteSpace=wrap;html=1;aspect=fixed;" vertex="1" parent="PE0mwfs7S3fnOxnz0N8g-14">
          <mxGeometry y="63.81818181818182" width="16.363636363636363" height="16.363636363636363" as="geometry" />
        </mxCell>
        <mxCell id="PE0mwfs7S3fnOxnz0N8g-18" value="" style="ellipse;whiteSpace=wrap;html=1;aspect=fixed;fillColor=#f5f5f5;fontColor=#333333;strokeColor=#666666;" vertex="1" parent="PE0mwfs7S3fnOxnz0N8g-14">
          <mxGeometry x="34.285714285714285" width="16.363636363636363" height="16.363636363636363" as="geometry" />
        </mxCell>
        <mxCell id="PE0mwfs7S3fnOxnz0N8g-19" value="" style="ellipse;whiteSpace=wrap;html=1;aspect=fixed;fillColor=#f5f5f5;fontColor=#333333;strokeColor=#666666;" vertex="1" parent="PE0mwfs7S3fnOxnz0N8g-14">
          <mxGeometry x="34.285714285714285" y="24.545454545454547" width="16.363636363636363" height="16.363636363636363" as="geometry" />
        </mxCell>
        <mxCell id="PE0mwfs7S3fnOxnz0N8g-20" value="" style="ellipse;whiteSpace=wrap;html=1;aspect=fixed;fillColor=#f5f5f5;fontColor=#333333;strokeColor=#666666;" vertex="1" parent="PE0mwfs7S3fnOxnz0N8g-14">
          <mxGeometry x="34.285714285714285" y="49.09090909090909" width="16.363636363636363" height="16.363636363636363" as="geometry" />
        </mxCell>
        <mxCell id="PE0mwfs7S3fnOxnz0N8g-21" value="" style="ellipse;whiteSpace=wrap;html=1;aspect=fixed;fillColor=#f5f5f5;fontColor=#333333;strokeColor=#666666;" vertex="1" parent="PE0mwfs7S3fnOxnz0N8g-14">
          <mxGeometry x="34.285714285714285" y="73.63636363636364" width="16.363636363636363" height="16.363636363636363" as="geometry" />
        </mxCell>
        <mxCell id="PE0mwfs7S3fnOxnz0N8g-22" value="" style="endArrow=none;html=1;rounded=0;exitX=1;exitY=0.5;exitDx=0;exitDy=0;entryX=0;entryY=0.5;entryDx=0;entryDy=0;" edge="1" parent="PE0mwfs7S3fnOxnz0N8g-14" source="PE0mwfs7S3fnOxnz0N8g-15" target="PE0mwfs7S3fnOxnz0N8g-18">
          <mxGeometry width="50" height="50" relative="1" as="geometry">
            <mxPoint x="-8.571428571428571" y="49.09090909090909" as="sourcePoint" />
            <mxPoint x="17.142857142857142" y="8.181818181818182" as="targetPoint" />
          </mxGeometry>
        </mxCell>
        <mxCell id="PE0mwfs7S3fnOxnz0N8g-23" value="" style="endArrow=none;html=1;rounded=0;exitX=1;exitY=0.5;exitDx=0;exitDy=0;entryX=0;entryY=0.5;entryDx=0;entryDy=0;" edge="1" parent="PE0mwfs7S3fnOxnz0N8g-14" source="PE0mwfs7S3fnOxnz0N8g-15" target="PE0mwfs7S3fnOxnz0N8g-19">
          <mxGeometry width="50" height="50" relative="1" as="geometry">
            <mxPoint x="25.71428571428571" y="32.72727272727273" as="sourcePoint" />
            <mxPoint x="42.857142857142854" y="16.363636363636363" as="targetPoint" />
          </mxGeometry>
        </mxCell>
        <mxCell id="PE0mwfs7S3fnOxnz0N8g-24" value="" style="endArrow=none;html=1;rounded=0;exitX=1;exitY=0.5;exitDx=0;exitDy=0;entryX=0;entryY=0.5;entryDx=0;entryDy=0;" edge="1" parent="PE0mwfs7S3fnOxnz0N8g-14" source="PE0mwfs7S3fnOxnz0N8g-15" target="PE0mwfs7S3fnOxnz0N8g-20">
          <mxGeometry width="50" height="50" relative="1" as="geometry">
            <mxPoint x="34.285714285714285" y="40.909090909090914" as="sourcePoint" />
            <mxPoint x="51.42857142857142" y="24.545454545454547" as="targetPoint" />
          </mxGeometry>
        </mxCell>
        <mxCell id="PE0mwfs7S3fnOxnz0N8g-25" value="" style="endArrow=none;html=1;rounded=0;exitX=1;exitY=0.5;exitDx=0;exitDy=0;entryX=0;entryY=0.5;entryDx=0;entryDy=0;" edge="1" parent="PE0mwfs7S3fnOxnz0N8g-14" source="PE0mwfs7S3fnOxnz0N8g-15" target="PE0mwfs7S3fnOxnz0N8g-21">
          <mxGeometry width="50" height="50" relative="1" as="geometry">
            <mxPoint x="25.71428571428571" y="32.72727272727273" as="sourcePoint" />
            <mxPoint x="42.857142857142854" y="65.45454545454545" as="targetPoint" />
          </mxGeometry>
        </mxCell>
        <mxCell id="PE0mwfs7S3fnOxnz0N8g-26" value="" style="endArrow=none;html=1;rounded=0;exitX=1;exitY=0.5;exitDx=0;exitDy=0;entryX=0;entryY=0.5;entryDx=0;entryDy=0;" edge="1" parent="PE0mwfs7S3fnOxnz0N8g-14" source="PE0mwfs7S3fnOxnz0N8g-16" target="PE0mwfs7S3fnOxnz0N8g-18">
          <mxGeometry width="50" height="50" relative="1" as="geometry">
            <mxPoint x="34.285714285714285" y="40.909090909090914" as="sourcePoint" />
            <mxPoint x="51.42857142857142" y="73.63636363636364" as="targetPoint" />
          </mxGeometry>
        </mxCell>
        <mxCell id="PE0mwfs7S3fnOxnz0N8g-27" value="" style="endArrow=none;html=1;rounded=0;exitX=1;exitY=0.5;exitDx=0;exitDy=0;entryX=0;entryY=0.5;entryDx=0;entryDy=0;" edge="1" parent="PE0mwfs7S3fnOxnz0N8g-14" source="PE0mwfs7S3fnOxnz0N8g-16" target="PE0mwfs7S3fnOxnz0N8g-19">
          <mxGeometry width="50" height="50" relative="1" as="geometry">
            <mxPoint x="42.857142857142854" y="49.09090909090909" as="sourcePoint" />
            <mxPoint x="60" y="81.81818181818183" as="targetPoint" />
          </mxGeometry>
        </mxCell>
        <mxCell id="PE0mwfs7S3fnOxnz0N8g-28" value="" style="endArrow=none;html=1;rounded=0;entryX=0;entryY=0.5;entryDx=0;entryDy=0;exitX=1;exitY=0.5;exitDx=0;exitDy=0;" edge="1" parent="PE0mwfs7S3fnOxnz0N8g-14" source="PE0mwfs7S3fnOxnz0N8g-16" target="PE0mwfs7S3fnOxnz0N8g-20">
          <mxGeometry width="50" height="50" relative="1" as="geometry">
            <mxPoint x="-25.71428571428571" y="65.45454545454545" as="sourcePoint" />
            <mxPoint x="68.57142857142857" y="90" as="targetPoint" />
          </mxGeometry>
        </mxCell>
        <mxCell id="PE0mwfs7S3fnOxnz0N8g-29" value="" style="endArrow=none;html=1;rounded=0;entryX=0;entryY=0.5;entryDx=0;entryDy=0;exitX=1;exitY=0.5;exitDx=0;exitDy=0;" edge="1" parent="PE0mwfs7S3fnOxnz0N8g-14" source="PE0mwfs7S3fnOxnz0N8g-16" target="PE0mwfs7S3fnOxnz0N8g-21">
          <mxGeometry width="50" height="50" relative="1" as="geometry">
            <mxPoint x="24.857142857142854" y="59.727272727272734" as="sourcePoint" />
            <mxPoint x="42.857142857142854" y="65.45454545454545" as="targetPoint" />
          </mxGeometry>
        </mxCell>
        <mxCell id="PE0mwfs7S3fnOxnz0N8g-30" value="" style="endArrow=none;html=1;rounded=0;exitX=1;exitY=0.5;exitDx=0;exitDy=0;entryX=0;entryY=0.5;entryDx=0;entryDy=0;" edge="1" parent="PE0mwfs7S3fnOxnz0N8g-14" source="PE0mwfs7S3fnOxnz0N8g-17" target="PE0mwfs7S3fnOxnz0N8g-18">
          <mxGeometry width="50" height="50" relative="1" as="geometry">
            <mxPoint x="33.42857142857142" y="67.9090909090909" as="sourcePoint" />
            <mxPoint x="51.42857142857142" y="73.63636363636364" as="targetPoint" />
          </mxGeometry>
        </mxCell>
        <mxCell id="PE0mwfs7S3fnOxnz0N8g-31" value="" style="endArrow=none;html=1;rounded=0;exitX=1;exitY=0.5;exitDx=0;exitDy=0;entryX=0;entryY=0.5;entryDx=0;entryDy=0;" edge="1" parent="PE0mwfs7S3fnOxnz0N8g-14" source="PE0mwfs7S3fnOxnz0N8g-17" target="PE0mwfs7S3fnOxnz0N8g-19">
          <mxGeometry width="50" height="50" relative="1" as="geometry">
            <mxPoint x="42" y="76.0909090909091" as="sourcePoint" />
            <mxPoint x="60" y="81.81818181818183" as="targetPoint" />
          </mxGeometry>
        </mxCell>
        <mxCell id="PE0mwfs7S3fnOxnz0N8g-32" value="" style="ellipse;whiteSpace=wrap;html=1;aspect=fixed;fillColor=#dae8fc;strokeColor=#6c8ebf;" vertex="1" parent="PE0mwfs7S3fnOxnz0N8g-14">
          <mxGeometry y="63.81818181818182" width="16.363636363636363" height="16.363636363636363" as="geometry" />
        </mxCell>
        <mxCell id="PE0mwfs7S3fnOxnz0N8g-33" value="" style="endArrow=none;html=1;rounded=0;exitX=1;exitY=0.5;exitDx=0;exitDy=0;entryX=0;entryY=0.5;entryDx=0;entryDy=0;" edge="1" parent="PE0mwfs7S3fnOxnz0N8g-14" source="PE0mwfs7S3fnOxnz0N8g-32" target="PE0mwfs7S3fnOxnz0N8g-20">
          <mxGeometry width="50" height="50" relative="1" as="geometry">
            <mxPoint x="25.71428571428571" y="32.72727272727273" as="sourcePoint" />
            <mxPoint x="42.857142857142854" y="90" as="targetPoint" />
          </mxGeometry>
        </mxCell>
        <mxCell id="PE0mwfs7S3fnOxnz0N8g-34" value="" style="endArrow=none;html=1;rounded=0;exitX=1;exitY=0.5;exitDx=0;exitDy=0;entryX=0;entryY=0.5;entryDx=0;entryDy=0;" edge="1" parent="PE0mwfs7S3fnOxnz0N8g-14" source="PE0mwfs7S3fnOxnz0N8g-32" target="PE0mwfs7S3fnOxnz0N8g-21">
          <mxGeometry width="50" height="50" relative="1" as="geometry">
            <mxPoint x="25.71428571428571" y="81.81818181818183" as="sourcePoint" />
            <mxPoint x="42.857142857142854" y="65.45454545454545" as="targetPoint" />
          </mxGeometry>
        </mxCell>
        <mxCell id="PE0mwfs7S3fnOxnz0N8g-35" value="" style="group;rotation=-180;" vertex="1" connectable="0" parent="PE0mwfs7S3fnOxnz0N8g-14">
          <mxGeometry x="68.57142857142857" width="51.42857142857142" height="90" as="geometry" />
        </mxCell>
        <mxCell id="PE0mwfs7S3fnOxnz0N8g-36" value="" style="ellipse;whiteSpace=wrap;html=1;aspect=fixed;rotation=-180;fillColor=#d5e8d4;strokeColor=#82b366;" vertex="1" parent="PE0mwfs7S3fnOxnz0N8g-35">
          <mxGeometry x="34.285714285714285" y="63.81818181818182" width="16.363636363636363" height="16.363636363636363" as="geometry" />
        </mxCell>
        <mxCell id="PE0mwfs7S3fnOxnz0N8g-37" value="" style="ellipse;whiteSpace=wrap;html=1;aspect=fixed;rotation=-180;fillColor=#d5e8d4;strokeColor=#82b366;" vertex="1" parent="PE0mwfs7S3fnOxnz0N8g-35">
          <mxGeometry x="34.285714285714285" y="39.27272727272727" width="16.363636363636363" height="16.363636363636363" as="geometry" />
        </mxCell>
        <mxCell id="PE0mwfs7S3fnOxnz0N8g-38" value="" style="ellipse;whiteSpace=wrap;html=1;aspect=fixed;rotation=-180;" vertex="1" parent="PE0mwfs7S3fnOxnz0N8g-35">
          <mxGeometry x="34.285714285714285" y="14.727272727272728" width="16.363636363636363" height="16.363636363636363" as="geometry" />
        </mxCell>
        <mxCell id="PE0mwfs7S3fnOxnz0N8g-39" value="" style="ellipse;whiteSpace=wrap;html=1;aspect=fixed;rotation=-180;fillColor=#f5f5f5;fontColor=#333333;strokeColor=#666666;" vertex="1" parent="PE0mwfs7S3fnOxnz0N8g-35">
          <mxGeometry y="73.63636363636364" width="16.363636363636363" height="16.363636363636363" as="geometry" />
        </mxCell>
        <mxCell id="PE0mwfs7S3fnOxnz0N8g-40" value="" style="ellipse;whiteSpace=wrap;html=1;aspect=fixed;rotation=-180;fillColor=#f5f5f5;fontColor=#333333;strokeColor=#666666;" vertex="1" parent="PE0mwfs7S3fnOxnz0N8g-35">
          <mxGeometry y="49.09090909090909" width="16.363636363636363" height="16.363636363636363" as="geometry" />
        </mxCell>
        <mxCell id="PE0mwfs7S3fnOxnz0N8g-41" value="" style="ellipse;whiteSpace=wrap;html=1;aspect=fixed;rotation=-180;fillColor=#f5f5f5;fontColor=#333333;strokeColor=#666666;" vertex="1" parent="PE0mwfs7S3fnOxnz0N8g-35">
          <mxGeometry y="24.545454545454547" width="16.363636363636363" height="16.363636363636363" as="geometry" />
        </mxCell>
        <mxCell id="PE0mwfs7S3fnOxnz0N8g-42" value="" style="ellipse;whiteSpace=wrap;html=1;aspect=fixed;rotation=-180;fillColor=#f5f5f5;fontColor=#333333;strokeColor=#666666;" vertex="1" parent="PE0mwfs7S3fnOxnz0N8g-35">
          <mxGeometry width="16.363636363636363" height="16.363636363636363" as="geometry" />
        </mxCell>
        <mxCell id="PE0mwfs7S3fnOxnz0N8g-43" value="" style="endArrow=none;html=1;rounded=0;exitX=1;exitY=0.5;exitDx=0;exitDy=0;entryX=0;entryY=0.5;entryDx=0;entryDy=0;" edge="1" parent="PE0mwfs7S3fnOxnz0N8g-35" source="PE0mwfs7S3fnOxnz0N8g-36" target="PE0mwfs7S3fnOxnz0N8g-39">
          <mxGeometry width="50" height="50" relative="1" as="geometry">
            <mxPoint x="60" y="40.909090909090914" as="sourcePoint" />
            <mxPoint x="34.285714285714285" y="81.81818181818183" as="targetPoint" />
          </mxGeometry>
        </mxCell>
        <mxCell id="PE0mwfs7S3fnOxnz0N8g-44" value="" style="endArrow=none;html=1;rounded=0;exitX=1;exitY=0.5;exitDx=0;exitDy=0;entryX=0;entryY=0.5;entryDx=0;entryDy=0;" edge="1" parent="PE0mwfs7S3fnOxnz0N8g-35" source="PE0mwfs7S3fnOxnz0N8g-36" target="PE0mwfs7S3fnOxnz0N8g-40">
          <mxGeometry width="50" height="50" relative="1" as="geometry">
            <mxPoint x="25.71428571428571" y="57.27272727272727" as="sourcePoint" />
            <mxPoint x="8.571428571428571" y="73.63636363636364" as="targetPoint" />
          </mxGeometry>
        </mxCell>
        <mxCell id="PE0mwfs7S3fnOxnz0N8g-45" value="" style="endArrow=none;html=1;rounded=0;exitX=1;exitY=0.5;exitDx=0;exitDy=0;entryX=0;entryY=0.5;entryDx=0;entryDy=0;" edge="1" parent="PE0mwfs7S3fnOxnz0N8g-35" source="PE0mwfs7S3fnOxnz0N8g-36" target="PE0mwfs7S3fnOxnz0N8g-41">
          <mxGeometry width="50" height="50" relative="1" as="geometry">
            <mxPoint x="17.142857142857142" y="49.09090909090909" as="sourcePoint" />
            <mxPoint y="65.45454545454545" as="targetPoint" />
          </mxGeometry>
        </mxCell>
        <mxCell id="PE0mwfs7S3fnOxnz0N8g-46" value="" style="endArrow=none;html=1;rounded=0;exitX=1;exitY=0.5;exitDx=0;exitDy=0;entryX=0;entryY=0.5;entryDx=0;entryDy=0;" edge="1" parent="PE0mwfs7S3fnOxnz0N8g-35" source="PE0mwfs7S3fnOxnz0N8g-36" target="PE0mwfs7S3fnOxnz0N8g-42">
          <mxGeometry width="50" height="50" relative="1" as="geometry">
            <mxPoint x="25.71428571428571" y="57.27272727272727" as="sourcePoint" />
            <mxPoint x="8.571428571428571" y="24.545454545454547" as="targetPoint" />
          </mxGeometry>
        </mxCell>
        <mxCell id="PE0mwfs7S3fnOxnz0N8g-47" value="" style="endArrow=none;html=1;rounded=0;exitX=1;exitY=0.5;exitDx=0;exitDy=0;entryX=0;entryY=0.5;entryDx=0;entryDy=0;" edge="1" parent="PE0mwfs7S3fnOxnz0N8g-35" source="PE0mwfs7S3fnOxnz0N8g-37" target="PE0mwfs7S3fnOxnz0N8g-39">
          <mxGeometry width="50" height="50" relative="1" as="geometry">
            <mxPoint x="17.142857142857142" y="49.09090909090909" as="sourcePoint" />
            <mxPoint y="16.363636363636363" as="targetPoint" />
          </mxGeometry>
        </mxCell>
        <mxCell id="PE0mwfs7S3fnOxnz0N8g-48" value="" style="endArrow=none;html=1;rounded=0;exitX=1;exitY=0.5;exitDx=0;exitDy=0;entryX=0;entryY=0.5;entryDx=0;entryDy=0;" edge="1" parent="PE0mwfs7S3fnOxnz0N8g-35" source="PE0mwfs7S3fnOxnz0N8g-37" target="PE0mwfs7S3fnOxnz0N8g-40">
          <mxGeometry width="50" height="50" relative="1" as="geometry">
            <mxPoint x="8.571428571428571" y="40.909090909090914" as="sourcePoint" />
            <mxPoint x="-8.571428571428571" y="8.181818181818182" as="targetPoint" />
          </mxGeometry>
        </mxCell>
        <mxCell id="PE0mwfs7S3fnOxnz0N8g-49" value="" style="endArrow=none;html=1;rounded=0;entryX=0;entryY=0.5;entryDx=0;entryDy=0;exitX=1;exitY=0.5;exitDx=0;exitDy=0;" edge="1" parent="PE0mwfs7S3fnOxnz0N8g-35" source="PE0mwfs7S3fnOxnz0N8g-37" target="PE0mwfs7S3fnOxnz0N8g-41">
          <mxGeometry width="50" height="50" relative="1" as="geometry">
            <mxPoint x="77.14285714285714" y="24.545454545454547" as="sourcePoint" />
            <mxPoint x="-17.142857142857142" as="targetPoint" />
          </mxGeometry>
        </mxCell>
        <mxCell id="PE0mwfs7S3fnOxnz0N8g-50" value="" style="endArrow=none;html=1;rounded=0;entryX=0;entryY=0.5;entryDx=0;entryDy=0;exitX=1;exitY=0.5;exitDx=0;exitDy=0;" edge="1" parent="PE0mwfs7S3fnOxnz0N8g-35" source="PE0mwfs7S3fnOxnz0N8g-37" target="PE0mwfs7S3fnOxnz0N8g-42">
          <mxGeometry width="50" height="50" relative="1" as="geometry">
            <mxPoint x="26.57142857142857" y="30.272727272727273" as="sourcePoint" />
            <mxPoint x="8.571428571428571" y="24.545454545454547" as="targetPoint" />
          </mxGeometry>
        </mxCell>
        <mxCell id="PE0mwfs7S3fnOxnz0N8g-51" value="" style="endArrow=none;html=1;rounded=0;exitX=1;exitY=0.5;exitDx=0;exitDy=0;entryX=0;entryY=0.5;entryDx=0;entryDy=0;" edge="1" parent="PE0mwfs7S3fnOxnz0N8g-35" source="PE0mwfs7S3fnOxnz0N8g-38" target="PE0mwfs7S3fnOxnz0N8g-39">
          <mxGeometry width="50" height="50" relative="1" as="geometry">
            <mxPoint x="18" y="22.090909090909093" as="sourcePoint" />
            <mxPoint y="16.363636363636363" as="targetPoint" />
          </mxGeometry>
        </mxCell>
        <mxCell id="PE0mwfs7S3fnOxnz0N8g-52" value="" style="endArrow=none;html=1;rounded=0;exitX=1;exitY=0.5;exitDx=0;exitDy=0;entryX=0;entryY=0.5;entryDx=0;entryDy=0;" edge="1" parent="PE0mwfs7S3fnOxnz0N8g-35" source="PE0mwfs7S3fnOxnz0N8g-38" target="PE0mwfs7S3fnOxnz0N8g-40">
          <mxGeometry width="50" height="50" relative="1" as="geometry">
            <mxPoint x="9.428571428571429" y="13.90909090909091" as="sourcePoint" />
            <mxPoint x="-8.571428571428571" y="8.181818181818182" as="targetPoint" />
          </mxGeometry>
        </mxCell>
        <mxCell id="PE0mwfs7S3fnOxnz0N8g-53" value="" style="ellipse;whiteSpace=wrap;html=1;aspect=fixed;rotation=-180;fillColor=#d5e8d4;strokeColor=#82b366;" vertex="1" parent="PE0mwfs7S3fnOxnz0N8g-35">
          <mxGeometry x="34.285714285714285" y="14.727272727272728" width="16.363636363636363" height="16.363636363636363" as="geometry" />
        </mxCell>
        <mxCell id="PE0mwfs7S3fnOxnz0N8g-54" value="" style="endArrow=none;html=1;rounded=0;exitX=1;exitY=0.5;exitDx=0;exitDy=0;entryX=0;entryY=0.5;entryDx=0;entryDy=0;" edge="1" parent="PE0mwfs7S3fnOxnz0N8g-35" source="PE0mwfs7S3fnOxnz0N8g-53" target="PE0mwfs7S3fnOxnz0N8g-41">
          <mxGeometry width="50" height="50" relative="1" as="geometry">
            <mxPoint x="25.71428571428571" y="57.27272727272727" as="sourcePoint" />
            <mxPoint x="8.571428571428571" as="targetPoint" />
          </mxGeometry>
        </mxCell>
        <mxCell id="PE0mwfs7S3fnOxnz0N8g-55" value="" style="endArrow=none;html=1;rounded=0;exitX=1;exitY=0.5;exitDx=0;exitDy=0;entryX=0;entryY=0.5;entryDx=0;entryDy=0;" edge="1" parent="PE0mwfs7S3fnOxnz0N8g-35" source="PE0mwfs7S3fnOxnz0N8g-53" target="PE0mwfs7S3fnOxnz0N8g-42">
          <mxGeometry width="50" height="50" relative="1" as="geometry">
            <mxPoint x="25.71428571428571" y="8.181818181818182" as="sourcePoint" />
            <mxPoint x="8.571428571428571" y="24.545454545454547" as="targetPoint" />
          </mxGeometry>
        </mxCell>
        <mxCell id="PE0mwfs7S3fnOxnz0N8g-56" value="" style="endArrow=none;html=1;rounded=0;exitX=1;exitY=0.5;exitDx=0;exitDy=0;entryX=1;entryY=0.5;entryDx=0;entryDy=0;" edge="1" parent="PE0mwfs7S3fnOxnz0N8g-14" source="PE0mwfs7S3fnOxnz0N8g-18" target="PE0mwfs7S3fnOxnz0N8g-42">
          <mxGeometry width="50" height="50" relative="1" as="geometry">
            <mxPoint x="42.857142857142854" y="73.63636363636364" as="sourcePoint" />
            <mxPoint x="85.71428571428571" y="32.72727272727273" as="targetPoint" />
          </mxGeometry>
        </mxCell>
        <mxCell id="PE0mwfs7S3fnOxnz0N8g-57" value="" style="endArrow=none;html=1;rounded=0;exitX=1;exitY=0.5;exitDx=0;exitDy=0;entryX=1;entryY=0.5;entryDx=0;entryDy=0;" edge="1" parent="PE0mwfs7S3fnOxnz0N8g-14" source="PE0mwfs7S3fnOxnz0N8g-18" target="PE0mwfs7S3fnOxnz0N8g-41">
          <mxGeometry width="50" height="50" relative="1" as="geometry">
            <mxPoint x="60" y="16.363636363636363" as="sourcePoint" />
            <mxPoint x="77.14285714285714" y="16.363636363636363" as="targetPoint" />
          </mxGeometry>
        </mxCell>
        <mxCell id="PE0mwfs7S3fnOxnz0N8g-58" value="" style="endArrow=none;html=1;rounded=0;exitX=1;exitY=0.5;exitDx=0;exitDy=0;entryX=1;entryY=0.5;entryDx=0;entryDy=0;" edge="1" parent="PE0mwfs7S3fnOxnz0N8g-14" source="PE0mwfs7S3fnOxnz0N8g-18" target="PE0mwfs7S3fnOxnz0N8g-40">
          <mxGeometry width="50" height="50" relative="1" as="geometry">
            <mxPoint x="68.57142857142857" y="24.545454545454547" as="sourcePoint" />
            <mxPoint x="85.71428571428571" y="24.545454545454547" as="targetPoint" />
          </mxGeometry>
        </mxCell>
        <mxCell id="PE0mwfs7S3fnOxnz0N8g-59" value="" style="endArrow=none;html=1;rounded=0;exitX=1;exitY=0.5;exitDx=0;exitDy=0;entryX=1;entryY=0.5;entryDx=0;entryDy=0;" edge="1" parent="PE0mwfs7S3fnOxnz0N8g-14" source="PE0mwfs7S3fnOxnz0N8g-18" target="PE0mwfs7S3fnOxnz0N8g-39">
          <mxGeometry width="50" height="50" relative="1" as="geometry">
            <mxPoint x="77.14285714285714" y="32.72727272727273" as="sourcePoint" />
            <mxPoint x="94.28571428571428" y="32.72727272727273" as="targetPoint" />
          </mxGeometry>
        </mxCell>
        <mxCell id="PE0mwfs7S3fnOxnz0N8g-60" value="" style="endArrow=none;html=1;rounded=0;exitX=1;exitY=0.5;exitDx=0;exitDy=0;entryX=1;entryY=0.5;entryDx=0;entryDy=0;" edge="1" parent="PE0mwfs7S3fnOxnz0N8g-14" source="PE0mwfs7S3fnOxnz0N8g-19" target="PE0mwfs7S3fnOxnz0N8g-42">
          <mxGeometry width="50" height="50" relative="1" as="geometry">
            <mxPoint x="85.71428571428571" y="40.909090909090914" as="sourcePoint" />
            <mxPoint x="102.85714285714285" y="40.909090909090914" as="targetPoint" />
          </mxGeometry>
        </mxCell>
        <mxCell id="PE0mwfs7S3fnOxnz0N8g-61" value="" style="endArrow=none;html=1;rounded=0;exitX=1;exitY=0.5;exitDx=0;exitDy=0;entryX=1;entryY=0.5;entryDx=0;entryDy=0;" edge="1" parent="PE0mwfs7S3fnOxnz0N8g-14" source="PE0mwfs7S3fnOxnz0N8g-19" target="PE0mwfs7S3fnOxnz0N8g-41">
          <mxGeometry width="50" height="50" relative="1" as="geometry">
            <mxPoint x="94.28571428571428" y="49.09090909090909" as="sourcePoint" />
            <mxPoint x="111.42857142857142" y="49.09090909090909" as="targetPoint" />
          </mxGeometry>
        </mxCell>
        <mxCell id="PE0mwfs7S3fnOxnz0N8g-62" value="" style="endArrow=none;html=1;rounded=0;exitX=1;exitY=0.5;exitDx=0;exitDy=0;entryX=0.972;entryY=0.372;entryDx=0;entryDy=0;entryPerimeter=0;" edge="1" parent="PE0mwfs7S3fnOxnz0N8g-14" source="PE0mwfs7S3fnOxnz0N8g-19" target="PE0mwfs7S3fnOxnz0N8g-40">
          <mxGeometry width="50" height="50" relative="1" as="geometry">
            <mxPoint x="51.42857142857142" y="48.86181818181821" as="sourcePoint" />
            <mxPoint x="68.57142857142857" y="48.86181818181821" as="targetPoint" />
          </mxGeometry>
        </mxCell>
        <mxCell id="PE0mwfs7S3fnOxnz0N8g-63" value="" style="endArrow=none;html=1;rounded=0;exitX=1;exitY=0.5;exitDx=0;exitDy=0;entryX=1;entryY=0.5;entryDx=0;entryDy=0;" edge="1" parent="PE0mwfs7S3fnOxnz0N8g-14" source="PE0mwfs7S3fnOxnz0N8g-19" target="PE0mwfs7S3fnOxnz0N8g-39">
          <mxGeometry width="50" height="50" relative="1" as="geometry">
            <mxPoint x="111.42857142857142" y="65.45454545454545" as="sourcePoint" />
            <mxPoint x="128.57142857142856" y="65.45454545454545" as="targetPoint" />
          </mxGeometry>
        </mxCell>
        <mxCell id="PE0mwfs7S3fnOxnz0N8g-64" value="" style="endArrow=none;html=1;rounded=0;exitX=1;exitY=0.5;exitDx=0;exitDy=0;entryX=1;entryY=0.5;entryDx=0;entryDy=0;" edge="1" parent="PE0mwfs7S3fnOxnz0N8g-14" source="PE0mwfs7S3fnOxnz0N8g-20" target="PE0mwfs7S3fnOxnz0N8g-42">
          <mxGeometry width="50" height="50" relative="1" as="geometry">
            <mxPoint x="60" y="40.909090909090914" as="sourcePoint" />
            <mxPoint x="77.14285714285714" y="90" as="targetPoint" />
          </mxGeometry>
        </mxCell>
        <mxCell id="PE0mwfs7S3fnOxnz0N8g-65" value="" style="endArrow=none;html=1;rounded=0;exitX=1;exitY=0.5;exitDx=0;exitDy=0;entryX=1;entryY=0.5;entryDx=0;entryDy=0;" edge="1" parent="PE0mwfs7S3fnOxnz0N8g-14" source="PE0mwfs7S3fnOxnz0N8g-20" target="PE0mwfs7S3fnOxnz0N8g-41">
          <mxGeometry width="50" height="50" relative="1" as="geometry">
            <mxPoint x="68.57142857142857" y="49.09090909090909" as="sourcePoint" />
            <mxPoint x="85.71428571428571" y="98.18181818181819" as="targetPoint" />
          </mxGeometry>
        </mxCell>
        <mxCell id="PE0mwfs7S3fnOxnz0N8g-66" value="" style="endArrow=none;html=1;rounded=0;exitX=1;exitY=0.5;exitDx=0;exitDy=0;entryX=1;entryY=0.5;entryDx=0;entryDy=0;" edge="1" parent="PE0mwfs7S3fnOxnz0N8g-14" source="PE0mwfs7S3fnOxnz0N8g-20" target="PE0mwfs7S3fnOxnz0N8g-40">
          <mxGeometry width="50" height="50" relative="1" as="geometry">
            <mxPoint x="77.14285714285714" y="57.27272727272727" as="sourcePoint" />
            <mxPoint x="94.28571428571428" y="106.36363636363637" as="targetPoint" />
          </mxGeometry>
        </mxCell>
        <mxCell id="PE0mwfs7S3fnOxnz0N8g-67" value="" style="endArrow=none;html=1;rounded=0;exitX=1;exitY=0.5;exitDx=0;exitDy=0;entryX=1;entryY=0.5;entryDx=0;entryDy=0;" edge="1" parent="PE0mwfs7S3fnOxnz0N8g-14" source="PE0mwfs7S3fnOxnz0N8g-20" target="PE0mwfs7S3fnOxnz0N8g-39">
          <mxGeometry width="50" height="50" relative="1" as="geometry">
            <mxPoint x="85.71428571428571" y="65.45454545454545" as="sourcePoint" />
            <mxPoint x="102.85714285714285" y="114.54545454545455" as="targetPoint" />
          </mxGeometry>
        </mxCell>
        <mxCell id="PE0mwfs7S3fnOxnz0N8g-68" value="" style="endArrow=none;html=1;rounded=0;exitX=1;exitY=0.5;exitDx=0;exitDy=0;entryX=1;entryY=0.5;entryDx=0;entryDy=0;" edge="1" parent="PE0mwfs7S3fnOxnz0N8g-14" source="PE0mwfs7S3fnOxnz0N8g-21" target="PE0mwfs7S3fnOxnz0N8g-39">
          <mxGeometry width="50" height="50" relative="1" as="geometry">
            <mxPoint x="94.28571428571428" y="73.63636363636364" as="sourcePoint" />
            <mxPoint x="111.42857142857142" y="122.72727272727273" as="targetPoint" />
          </mxGeometry>
        </mxCell>
        <mxCell id="PE0mwfs7S3fnOxnz0N8g-69" value="" style="endArrow=none;html=1;rounded=0;exitX=1;exitY=0.5;exitDx=0;exitDy=0;entryX=1;entryY=0.5;entryDx=0;entryDy=0;" edge="1" parent="PE0mwfs7S3fnOxnz0N8g-14" source="PE0mwfs7S3fnOxnz0N8g-21" target="PE0mwfs7S3fnOxnz0N8g-40">
          <mxGeometry width="50" height="50" relative="1" as="geometry">
            <mxPoint x="60" y="90" as="sourcePoint" />
            <mxPoint x="77.14285714285714" y="90" as="targetPoint" />
          </mxGeometry>
        </mxCell>
        <mxCell id="PE0mwfs7S3fnOxnz0N8g-70" value="" style="endArrow=none;html=1;rounded=0;exitX=1;exitY=0.5;exitDx=0;exitDy=0;entryX=1;entryY=0.5;entryDx=0;entryDy=0;" edge="1" parent="PE0mwfs7S3fnOxnz0N8g-14" source="PE0mwfs7S3fnOxnz0N8g-21" target="PE0mwfs7S3fnOxnz0N8g-41">
          <mxGeometry width="50" height="50" relative="1" as="geometry">
            <mxPoint x="68.57142857142857" y="98.18181818181819" as="sourcePoint" />
            <mxPoint x="85.71428571428571" y="98.18181818181819" as="targetPoint" />
          </mxGeometry>
        </mxCell>
        <mxCell id="PE0mwfs7S3fnOxnz0N8g-71" value="" style="endArrow=none;html=1;rounded=0;exitX=1;exitY=0.5;exitDx=0;exitDy=0;entryX=1;entryY=0.5;entryDx=0;entryDy=0;" edge="1" parent="PE0mwfs7S3fnOxnz0N8g-14" source="PE0mwfs7S3fnOxnz0N8g-21" target="PE0mwfs7S3fnOxnz0N8g-42">
          <mxGeometry width="50" height="50" relative="1" as="geometry">
            <mxPoint x="77.14285714285714" y="106.36363636363637" as="sourcePoint" />
            <mxPoint x="94.28571428571428" y="106.36363636363637" as="targetPoint" />
          </mxGeometry>
        </mxCell>
        <mxCell id="PE0mwfs7S3fnOxnz0N8g-73" value="" style="group" vertex="1" connectable="0" parent="1">
          <mxGeometry x="402" y="400" width="140" height="100" as="geometry" />
        </mxCell>
        <mxCell id="PE0mwfs7S3fnOxnz0N8g-74" value="" style="ellipse;whiteSpace=wrap;html=1;aspect=fixed;fillColor=#dae8fc;strokeColor=#6c8ebf;" vertex="1" parent="PE0mwfs7S3fnOxnz0N8g-73">
          <mxGeometry y="16.363636363636367" width="18.181818181818183" height="18.181818181818183" as="geometry" />
        </mxCell>
        <mxCell id="PE0mwfs7S3fnOxnz0N8g-75" value="" style="ellipse;whiteSpace=wrap;html=1;aspect=fixed;fillColor=#dae8fc;strokeColor=#6c8ebf;" vertex="1" parent="PE0mwfs7S3fnOxnz0N8g-73">
          <mxGeometry y="43.63636363636364" width="18.181818181818183" height="18.181818181818183" as="geometry" />
        </mxCell>
        <mxCell id="PE0mwfs7S3fnOxnz0N8g-76" value="" style="ellipse;whiteSpace=wrap;html=1;aspect=fixed;" vertex="1" parent="PE0mwfs7S3fnOxnz0N8g-73">
          <mxGeometry y="70.90909090909092" width="18.181818181818183" height="18.181818181818183" as="geometry" />
        </mxCell>
        <mxCell id="PE0mwfs7S3fnOxnz0N8g-77" value="" style="ellipse;whiteSpace=wrap;html=1;aspect=fixed;fillColor=#f5f5f5;fontColor=#333333;strokeColor=#666666;" vertex="1" parent="PE0mwfs7S3fnOxnz0N8g-73">
          <mxGeometry x="40" width="18.181818181818183" height="18.181818181818183" as="geometry" />
        </mxCell>
        <mxCell id="PE0mwfs7S3fnOxnz0N8g-78" value="" style="ellipse;whiteSpace=wrap;html=1;aspect=fixed;fillColor=#f5f5f5;fontColor=#333333;strokeColor=#666666;" vertex="1" parent="PE0mwfs7S3fnOxnz0N8g-73">
          <mxGeometry x="40" y="27.272727272727277" width="18.181818181818183" height="18.181818181818183" as="geometry" />
        </mxCell>
        <mxCell id="PE0mwfs7S3fnOxnz0N8g-79" value="" style="ellipse;whiteSpace=wrap;html=1;aspect=fixed;fillColor=#f5f5f5;fontColor=#333333;strokeColor=#666666;" vertex="1" parent="PE0mwfs7S3fnOxnz0N8g-73">
          <mxGeometry x="40" y="54.545454545454554" width="18.181818181818183" height="18.181818181818183" as="geometry" />
        </mxCell>
        <mxCell id="PE0mwfs7S3fnOxnz0N8g-80" value="" style="ellipse;whiteSpace=wrap;html=1;aspect=fixed;fillColor=#f5f5f5;fontColor=#333333;strokeColor=#666666;" vertex="1" parent="PE0mwfs7S3fnOxnz0N8g-73">
          <mxGeometry x="40" y="81.81818181818183" width="18.181818181818183" height="18.181818181818183" as="geometry" />
        </mxCell>
        <mxCell id="PE0mwfs7S3fnOxnz0N8g-81" value="" style="endArrow=none;html=1;rounded=0;exitX=1;exitY=0.5;exitDx=0;exitDy=0;entryX=0;entryY=0.5;entryDx=0;entryDy=0;" edge="1" parent="PE0mwfs7S3fnOxnz0N8g-73" source="PE0mwfs7S3fnOxnz0N8g-74" target="PE0mwfs7S3fnOxnz0N8g-77">
          <mxGeometry width="50" height="50" relative="1" as="geometry">
            <mxPoint x="-10" y="54.545454545454554" as="sourcePoint" />
            <mxPoint x="20" y="9.090909090909092" as="targetPoint" />
          </mxGeometry>
        </mxCell>
        <mxCell id="PE0mwfs7S3fnOxnz0N8g-82" value="" style="endArrow=none;html=1;rounded=0;exitX=1;exitY=0.5;exitDx=0;exitDy=0;entryX=0;entryY=0.5;entryDx=0;entryDy=0;" edge="1" parent="PE0mwfs7S3fnOxnz0N8g-73" source="PE0mwfs7S3fnOxnz0N8g-74" target="PE0mwfs7S3fnOxnz0N8g-78">
          <mxGeometry width="50" height="50" relative="1" as="geometry">
            <mxPoint x="30" y="36.36363636363637" as="sourcePoint" />
            <mxPoint x="50" y="18.181818181818183" as="targetPoint" />
          </mxGeometry>
        </mxCell>
        <mxCell id="PE0mwfs7S3fnOxnz0N8g-83" value="" style="endArrow=none;html=1;rounded=0;exitX=1;exitY=0.5;exitDx=0;exitDy=0;entryX=0;entryY=0.5;entryDx=0;entryDy=0;" edge="1" parent="PE0mwfs7S3fnOxnz0N8g-73" source="PE0mwfs7S3fnOxnz0N8g-74" target="PE0mwfs7S3fnOxnz0N8g-79">
          <mxGeometry width="50" height="50" relative="1" as="geometry">
            <mxPoint x="40" y="45.45454545454546" as="sourcePoint" />
            <mxPoint x="60" y="27.272727272727277" as="targetPoint" />
          </mxGeometry>
        </mxCell>
        <mxCell id="PE0mwfs7S3fnOxnz0N8g-84" value="" style="endArrow=none;html=1;rounded=0;exitX=1;exitY=0.5;exitDx=0;exitDy=0;entryX=0;entryY=0.5;entryDx=0;entryDy=0;" edge="1" parent="PE0mwfs7S3fnOxnz0N8g-73" source="PE0mwfs7S3fnOxnz0N8g-74" target="PE0mwfs7S3fnOxnz0N8g-80">
          <mxGeometry width="50" height="50" relative="1" as="geometry">
            <mxPoint x="30" y="36.36363636363637" as="sourcePoint" />
            <mxPoint x="50" y="72.72727272727273" as="targetPoint" />
          </mxGeometry>
        </mxCell>
        <mxCell id="PE0mwfs7S3fnOxnz0N8g-85" value="" style="endArrow=none;html=1;rounded=0;exitX=1;exitY=0.5;exitDx=0;exitDy=0;entryX=0;entryY=0.5;entryDx=0;entryDy=0;" edge="1" parent="PE0mwfs7S3fnOxnz0N8g-73" source="PE0mwfs7S3fnOxnz0N8g-75" target="PE0mwfs7S3fnOxnz0N8g-77">
          <mxGeometry width="50" height="50" relative="1" as="geometry">
            <mxPoint x="40" y="45.45454545454546" as="sourcePoint" />
            <mxPoint x="60" y="81.81818181818183" as="targetPoint" />
          </mxGeometry>
        </mxCell>
        <mxCell id="PE0mwfs7S3fnOxnz0N8g-86" value="" style="endArrow=none;html=1;rounded=0;exitX=1;exitY=0.5;exitDx=0;exitDy=0;entryX=0;entryY=0.5;entryDx=0;entryDy=0;" edge="1" parent="PE0mwfs7S3fnOxnz0N8g-73" source="PE0mwfs7S3fnOxnz0N8g-75" target="PE0mwfs7S3fnOxnz0N8g-78">
          <mxGeometry width="50" height="50" relative="1" as="geometry">
            <mxPoint x="50" y="54.545454545454554" as="sourcePoint" />
            <mxPoint x="70" y="90.90909090909092" as="targetPoint" />
          </mxGeometry>
        </mxCell>
        <mxCell id="PE0mwfs7S3fnOxnz0N8g-87" value="" style="endArrow=none;html=1;rounded=0;entryX=0;entryY=0.5;entryDx=0;entryDy=0;exitX=1;exitY=0.5;exitDx=0;exitDy=0;" edge="1" parent="PE0mwfs7S3fnOxnz0N8g-73" source="PE0mwfs7S3fnOxnz0N8g-75" target="PE0mwfs7S3fnOxnz0N8g-79">
          <mxGeometry width="50" height="50" relative="1" as="geometry">
            <mxPoint x="-30" y="72.72727272727273" as="sourcePoint" />
            <mxPoint x="80" y="100" as="targetPoint" />
          </mxGeometry>
        </mxCell>
        <mxCell id="PE0mwfs7S3fnOxnz0N8g-88" value="" style="endArrow=none;html=1;rounded=0;entryX=0;entryY=0.5;entryDx=0;entryDy=0;exitX=1;exitY=0.5;exitDx=0;exitDy=0;" edge="1" parent="PE0mwfs7S3fnOxnz0N8g-73" source="PE0mwfs7S3fnOxnz0N8g-75" target="PE0mwfs7S3fnOxnz0N8g-80">
          <mxGeometry width="50" height="50" relative="1" as="geometry">
            <mxPoint x="29" y="66.36363636363637" as="sourcePoint" />
            <mxPoint x="50" y="72.72727272727273" as="targetPoint" />
          </mxGeometry>
        </mxCell>
        <mxCell id="PE0mwfs7S3fnOxnz0N8g-89" value="" style="endArrow=none;html=1;rounded=0;exitX=1;exitY=0.5;exitDx=0;exitDy=0;entryX=0;entryY=0.5;entryDx=0;entryDy=0;" edge="1" parent="PE0mwfs7S3fnOxnz0N8g-73" source="PE0mwfs7S3fnOxnz0N8g-76" target="PE0mwfs7S3fnOxnz0N8g-77">
          <mxGeometry width="50" height="50" relative="1" as="geometry">
            <mxPoint x="39" y="75.45454545454545" as="sourcePoint" />
            <mxPoint x="60" y="81.81818181818183" as="targetPoint" />
          </mxGeometry>
        </mxCell>
        <mxCell id="PE0mwfs7S3fnOxnz0N8g-90" value="" style="endArrow=none;html=1;rounded=0;exitX=1;exitY=0.5;exitDx=0;exitDy=0;entryX=0;entryY=0.5;entryDx=0;entryDy=0;" edge="1" parent="PE0mwfs7S3fnOxnz0N8g-73" source="PE0mwfs7S3fnOxnz0N8g-76" target="PE0mwfs7S3fnOxnz0N8g-78">
          <mxGeometry width="50" height="50" relative="1" as="geometry">
            <mxPoint x="49" y="84.54545454545455" as="sourcePoint" />
            <mxPoint x="70" y="90.90909090909092" as="targetPoint" />
          </mxGeometry>
        </mxCell>
        <mxCell id="PE0mwfs7S3fnOxnz0N8g-91" value="" style="ellipse;whiteSpace=wrap;html=1;aspect=fixed;fillColor=#dae8fc;strokeColor=#6c8ebf;" vertex="1" parent="PE0mwfs7S3fnOxnz0N8g-73">
          <mxGeometry y="70.90909090909092" width="18.181818181818183" height="18.181818181818183" as="geometry" />
        </mxCell>
        <mxCell id="PE0mwfs7S3fnOxnz0N8g-92" value="" style="endArrow=none;html=1;rounded=0;exitX=1;exitY=0.5;exitDx=0;exitDy=0;entryX=0;entryY=0.5;entryDx=0;entryDy=0;" edge="1" parent="PE0mwfs7S3fnOxnz0N8g-73" source="PE0mwfs7S3fnOxnz0N8g-91" target="PE0mwfs7S3fnOxnz0N8g-79">
          <mxGeometry width="50" height="50" relative="1" as="geometry">
            <mxPoint x="30" y="36.36363636363637" as="sourcePoint" />
            <mxPoint x="50" y="100" as="targetPoint" />
          </mxGeometry>
        </mxCell>
        <mxCell id="PE0mwfs7S3fnOxnz0N8g-93" value="" style="endArrow=none;html=1;rounded=0;exitX=1;exitY=0.5;exitDx=0;exitDy=0;entryX=0;entryY=0.5;entryDx=0;entryDy=0;" edge="1" parent="PE0mwfs7S3fnOxnz0N8g-73" source="PE0mwfs7S3fnOxnz0N8g-91" target="PE0mwfs7S3fnOxnz0N8g-80">
          <mxGeometry width="50" height="50" relative="1" as="geometry">
            <mxPoint x="30" y="90.90909090909092" as="sourcePoint" />
            <mxPoint x="50" y="72.72727272727273" as="targetPoint" />
          </mxGeometry>
        </mxCell>
        <mxCell id="PE0mwfs7S3fnOxnz0N8g-94" value="" style="group;rotation=-180;" vertex="1" connectable="0" parent="PE0mwfs7S3fnOxnz0N8g-73">
          <mxGeometry x="80" width="60" height="100" as="geometry" />
        </mxCell>
        <mxCell id="PE0mwfs7S3fnOxnz0N8g-95" value="" style="ellipse;whiteSpace=wrap;html=1;aspect=fixed;rotation=-180;fillColor=#d5e8d4;strokeColor=#82b366;" vertex="1" parent="PE0mwfs7S3fnOxnz0N8g-94">
          <mxGeometry x="40" y="70.90909090909092" width="18.181818181818183" height="18.181818181818183" as="geometry" />
        </mxCell>
        <mxCell id="PE0mwfs7S3fnOxnz0N8g-96" value="" style="ellipse;whiteSpace=wrap;html=1;aspect=fixed;rotation=-180;fillColor=#d5e8d4;strokeColor=#82b366;" vertex="1" parent="PE0mwfs7S3fnOxnz0N8g-94">
          <mxGeometry x="40" y="43.63636363636364" width="18.181818181818183" height="18.181818181818183" as="geometry" />
        </mxCell>
        <mxCell id="PE0mwfs7S3fnOxnz0N8g-97" value="" style="ellipse;whiteSpace=wrap;html=1;aspect=fixed;rotation=-180;" vertex="1" parent="PE0mwfs7S3fnOxnz0N8g-94">
          <mxGeometry x="40" y="16.363636363636367" width="18.181818181818183" height="18.181818181818183" as="geometry" />
        </mxCell>
        <mxCell id="PE0mwfs7S3fnOxnz0N8g-98" value="" style="ellipse;whiteSpace=wrap;html=1;aspect=fixed;rotation=-180;fillColor=#f5f5f5;fontColor=#333333;strokeColor=#666666;" vertex="1" parent="PE0mwfs7S3fnOxnz0N8g-94">
          <mxGeometry y="81.81818181818183" width="18.181818181818183" height="18.181818181818183" as="geometry" />
        </mxCell>
        <mxCell id="PE0mwfs7S3fnOxnz0N8g-99" value="" style="ellipse;whiteSpace=wrap;html=1;aspect=fixed;rotation=-180;fillColor=#f5f5f5;fontColor=#333333;strokeColor=#666666;" vertex="1" parent="PE0mwfs7S3fnOxnz0N8g-94">
          <mxGeometry y="54.545454545454554" width="18.181818181818183" height="18.181818181818183" as="geometry" />
        </mxCell>
        <mxCell id="PE0mwfs7S3fnOxnz0N8g-100" value="" style="ellipse;whiteSpace=wrap;html=1;aspect=fixed;rotation=-180;fillColor=#f5f5f5;fontColor=#333333;strokeColor=#666666;" vertex="1" parent="PE0mwfs7S3fnOxnz0N8g-94">
          <mxGeometry y="27.272727272727277" width="18.181818181818183" height="18.181818181818183" as="geometry" />
        </mxCell>
        <mxCell id="PE0mwfs7S3fnOxnz0N8g-101" value="" style="ellipse;whiteSpace=wrap;html=1;aspect=fixed;rotation=-180;fillColor=#f5f5f5;fontColor=#333333;strokeColor=#666666;" vertex="1" parent="PE0mwfs7S3fnOxnz0N8g-94">
          <mxGeometry width="18.181818181818183" height="18.181818181818183" as="geometry" />
        </mxCell>
        <mxCell id="PE0mwfs7S3fnOxnz0N8g-102" value="" style="endArrow=none;html=1;rounded=0;exitX=1;exitY=0.5;exitDx=0;exitDy=0;entryX=0;entryY=0.5;entryDx=0;entryDy=0;" edge="1" parent="PE0mwfs7S3fnOxnz0N8g-94" source="PE0mwfs7S3fnOxnz0N8g-95" target="PE0mwfs7S3fnOxnz0N8g-98">
          <mxGeometry width="50" height="50" relative="1" as="geometry">
            <mxPoint x="70" y="45.45454545454546" as="sourcePoint" />
            <mxPoint x="40" y="90.90909090909092" as="targetPoint" />
          </mxGeometry>
        </mxCell>
        <mxCell id="PE0mwfs7S3fnOxnz0N8g-103" value="" style="endArrow=none;html=1;rounded=0;exitX=1;exitY=0.5;exitDx=0;exitDy=0;entryX=0;entryY=0.5;entryDx=0;entryDy=0;" edge="1" parent="PE0mwfs7S3fnOxnz0N8g-94" source="PE0mwfs7S3fnOxnz0N8g-95" target="PE0mwfs7S3fnOxnz0N8g-99">
          <mxGeometry width="50" height="50" relative="1" as="geometry">
            <mxPoint x="30" y="63.63636363636364" as="sourcePoint" />
            <mxPoint x="10" y="81.81818181818183" as="targetPoint" />
          </mxGeometry>
        </mxCell>
        <mxCell id="PE0mwfs7S3fnOxnz0N8g-104" value="" style="endArrow=none;html=1;rounded=0;exitX=1;exitY=0.5;exitDx=0;exitDy=0;entryX=0;entryY=0.5;entryDx=0;entryDy=0;" edge="1" parent="PE0mwfs7S3fnOxnz0N8g-94" source="PE0mwfs7S3fnOxnz0N8g-95" target="PE0mwfs7S3fnOxnz0N8g-100">
          <mxGeometry width="50" height="50" relative="1" as="geometry">
            <mxPoint x="20" y="54.545454545454554" as="sourcePoint" />
            <mxPoint y="72.72727272727273" as="targetPoint" />
          </mxGeometry>
        </mxCell>
        <mxCell id="PE0mwfs7S3fnOxnz0N8g-105" value="" style="endArrow=none;html=1;rounded=0;exitX=1;exitY=0.5;exitDx=0;exitDy=0;entryX=0;entryY=0.5;entryDx=0;entryDy=0;" edge="1" parent="PE0mwfs7S3fnOxnz0N8g-94" source="PE0mwfs7S3fnOxnz0N8g-95" target="PE0mwfs7S3fnOxnz0N8g-101">
          <mxGeometry width="50" height="50" relative="1" as="geometry">
            <mxPoint x="30" y="63.63636363636364" as="sourcePoint" />
            <mxPoint x="10" y="27.272727272727277" as="targetPoint" />
          </mxGeometry>
        </mxCell>
        <mxCell id="PE0mwfs7S3fnOxnz0N8g-106" value="" style="endArrow=none;html=1;rounded=0;exitX=1;exitY=0.5;exitDx=0;exitDy=0;entryX=0;entryY=0.5;entryDx=0;entryDy=0;" edge="1" parent="PE0mwfs7S3fnOxnz0N8g-94" source="PE0mwfs7S3fnOxnz0N8g-96" target="PE0mwfs7S3fnOxnz0N8g-98">
          <mxGeometry width="50" height="50" relative="1" as="geometry">
            <mxPoint x="20" y="54.545454545454554" as="sourcePoint" />
            <mxPoint y="18.181818181818183" as="targetPoint" />
          </mxGeometry>
        </mxCell>
        <mxCell id="PE0mwfs7S3fnOxnz0N8g-107" value="" style="endArrow=none;html=1;rounded=0;exitX=1;exitY=0.5;exitDx=0;exitDy=0;entryX=0;entryY=0.5;entryDx=0;entryDy=0;" edge="1" parent="PE0mwfs7S3fnOxnz0N8g-94" source="PE0mwfs7S3fnOxnz0N8g-96" target="PE0mwfs7S3fnOxnz0N8g-99">
          <mxGeometry width="50" height="50" relative="1" as="geometry">
            <mxPoint x="10" y="45.45454545454546" as="sourcePoint" />
            <mxPoint x="-10" y="9.090909090909092" as="targetPoint" />
          </mxGeometry>
        </mxCell>
        <mxCell id="PE0mwfs7S3fnOxnz0N8g-108" value="" style="endArrow=none;html=1;rounded=0;entryX=0;entryY=0.5;entryDx=0;entryDy=0;exitX=1;exitY=0.5;exitDx=0;exitDy=0;" edge="1" parent="PE0mwfs7S3fnOxnz0N8g-94" source="PE0mwfs7S3fnOxnz0N8g-96" target="PE0mwfs7S3fnOxnz0N8g-100">
          <mxGeometry width="50" height="50" relative="1" as="geometry">
            <mxPoint x="90" y="27.272727272727277" as="sourcePoint" />
            <mxPoint x="-20" as="targetPoint" />
          </mxGeometry>
        </mxCell>
        <mxCell id="PE0mwfs7S3fnOxnz0N8g-109" value="" style="endArrow=none;html=1;rounded=0;entryX=0;entryY=0.5;entryDx=0;entryDy=0;exitX=1;exitY=0.5;exitDx=0;exitDy=0;" edge="1" parent="PE0mwfs7S3fnOxnz0N8g-94" source="PE0mwfs7S3fnOxnz0N8g-96" target="PE0mwfs7S3fnOxnz0N8g-101">
          <mxGeometry width="50" height="50" relative="1" as="geometry">
            <mxPoint x="31" y="33.63636363636364" as="sourcePoint" />
            <mxPoint x="10" y="27.272727272727277" as="targetPoint" />
          </mxGeometry>
        </mxCell>
        <mxCell id="PE0mwfs7S3fnOxnz0N8g-110" value="" style="endArrow=none;html=1;rounded=0;exitX=1;exitY=0.5;exitDx=0;exitDy=0;entryX=0;entryY=0.5;entryDx=0;entryDy=0;" edge="1" parent="PE0mwfs7S3fnOxnz0N8g-94" source="PE0mwfs7S3fnOxnz0N8g-97" target="PE0mwfs7S3fnOxnz0N8g-98">
          <mxGeometry width="50" height="50" relative="1" as="geometry">
            <mxPoint x="21" y="24.54545454545455" as="sourcePoint" />
            <mxPoint y="18.181818181818183" as="targetPoint" />
          </mxGeometry>
        </mxCell>
        <mxCell id="PE0mwfs7S3fnOxnz0N8g-111" value="" style="endArrow=none;html=1;rounded=0;exitX=1;exitY=0.5;exitDx=0;exitDy=0;entryX=0;entryY=0.5;entryDx=0;entryDy=0;" edge="1" parent="PE0mwfs7S3fnOxnz0N8g-94" source="PE0mwfs7S3fnOxnz0N8g-97" target="PE0mwfs7S3fnOxnz0N8g-99">
          <mxGeometry width="50" height="50" relative="1" as="geometry">
            <mxPoint x="11.000000000000002" y="15.454545454545457" as="sourcePoint" />
            <mxPoint x="-10" y="9.090909090909092" as="targetPoint" />
          </mxGeometry>
        </mxCell>
        <mxCell id="PE0mwfs7S3fnOxnz0N8g-112" value="" style="ellipse;whiteSpace=wrap;html=1;aspect=fixed;rotation=-180;fillColor=#d5e8d4;strokeColor=#82b366;" vertex="1" parent="PE0mwfs7S3fnOxnz0N8g-94">
          <mxGeometry x="40" y="16.363636363636367" width="18.181818181818183" height="18.181818181818183" as="geometry" />
        </mxCell>
        <mxCell id="PE0mwfs7S3fnOxnz0N8g-113" value="" style="endArrow=none;html=1;rounded=0;exitX=1;exitY=0.5;exitDx=0;exitDy=0;entryX=0;entryY=0.5;entryDx=0;entryDy=0;" edge="1" parent="PE0mwfs7S3fnOxnz0N8g-94" source="PE0mwfs7S3fnOxnz0N8g-112" target="PE0mwfs7S3fnOxnz0N8g-100">
          <mxGeometry width="50" height="50" relative="1" as="geometry">
            <mxPoint x="30" y="63.63636363636364" as="sourcePoint" />
            <mxPoint x="10" as="targetPoint" />
          </mxGeometry>
        </mxCell>
        <mxCell id="PE0mwfs7S3fnOxnz0N8g-114" value="" style="endArrow=none;html=1;rounded=0;exitX=1;exitY=0.5;exitDx=0;exitDy=0;entryX=0;entryY=0.5;entryDx=0;entryDy=0;" edge="1" parent="PE0mwfs7S3fnOxnz0N8g-94" source="PE0mwfs7S3fnOxnz0N8g-112" target="PE0mwfs7S3fnOxnz0N8g-101">
          <mxGeometry width="50" height="50" relative="1" as="geometry">
            <mxPoint x="30" y="9.090909090909092" as="sourcePoint" />
            <mxPoint x="10" y="27.272727272727277" as="targetPoint" />
          </mxGeometry>
        </mxCell>
        <mxCell id="PE0mwfs7S3fnOxnz0N8g-115" value="" style="endArrow=none;html=1;rounded=0;exitX=1;exitY=0.5;exitDx=0;exitDy=0;entryX=1;entryY=0.5;entryDx=0;entryDy=0;" edge="1" parent="PE0mwfs7S3fnOxnz0N8g-73" source="PE0mwfs7S3fnOxnz0N8g-77" target="PE0mwfs7S3fnOxnz0N8g-101">
          <mxGeometry width="50" height="50" relative="1" as="geometry">
            <mxPoint x="50" y="81.81818181818183" as="sourcePoint" />
            <mxPoint x="100" y="36.36363636363637" as="targetPoint" />
          </mxGeometry>
        </mxCell>
        <mxCell id="PE0mwfs7S3fnOxnz0N8g-116" value="" style="endArrow=none;html=1;rounded=0;exitX=1;exitY=0.5;exitDx=0;exitDy=0;entryX=1;entryY=0.5;entryDx=0;entryDy=0;" edge="1" parent="PE0mwfs7S3fnOxnz0N8g-73" source="PE0mwfs7S3fnOxnz0N8g-77" target="PE0mwfs7S3fnOxnz0N8g-100">
          <mxGeometry width="50" height="50" relative="1" as="geometry">
            <mxPoint x="70" y="18.181818181818183" as="sourcePoint" />
            <mxPoint x="90" y="18.181818181818183" as="targetPoint" />
          </mxGeometry>
        </mxCell>
        <mxCell id="PE0mwfs7S3fnOxnz0N8g-117" value="" style="endArrow=none;html=1;rounded=0;exitX=1;exitY=0.5;exitDx=0;exitDy=0;entryX=1;entryY=0.5;entryDx=0;entryDy=0;" edge="1" parent="PE0mwfs7S3fnOxnz0N8g-73" source="PE0mwfs7S3fnOxnz0N8g-77" target="PE0mwfs7S3fnOxnz0N8g-99">
          <mxGeometry width="50" height="50" relative="1" as="geometry">
            <mxPoint x="80" y="27.272727272727277" as="sourcePoint" />
            <mxPoint x="100" y="27.272727272727277" as="targetPoint" />
          </mxGeometry>
        </mxCell>
        <mxCell id="PE0mwfs7S3fnOxnz0N8g-118" value="" style="endArrow=none;html=1;rounded=0;exitX=1;exitY=0.5;exitDx=0;exitDy=0;entryX=1;entryY=0.5;entryDx=0;entryDy=0;" edge="1" parent="PE0mwfs7S3fnOxnz0N8g-73" source="PE0mwfs7S3fnOxnz0N8g-77" target="PE0mwfs7S3fnOxnz0N8g-98">
          <mxGeometry width="50" height="50" relative="1" as="geometry">
            <mxPoint x="90" y="36.36363636363637" as="sourcePoint" />
            <mxPoint x="110" y="36.36363636363637" as="targetPoint" />
          </mxGeometry>
        </mxCell>
        <mxCell id="PE0mwfs7S3fnOxnz0N8g-119" value="" style="endArrow=none;html=1;rounded=0;exitX=1;exitY=0.5;exitDx=0;exitDy=0;entryX=1;entryY=0.5;entryDx=0;entryDy=0;" edge="1" parent="PE0mwfs7S3fnOxnz0N8g-73" source="PE0mwfs7S3fnOxnz0N8g-78" target="PE0mwfs7S3fnOxnz0N8g-101">
          <mxGeometry width="50" height="50" relative="1" as="geometry">
            <mxPoint x="100" y="45.45454545454546" as="sourcePoint" />
            <mxPoint x="120" y="45.45454545454546" as="targetPoint" />
          </mxGeometry>
        </mxCell>
        <mxCell id="PE0mwfs7S3fnOxnz0N8g-120" value="" style="endArrow=none;html=1;rounded=0;exitX=1;exitY=0.5;exitDx=0;exitDy=0;entryX=1;entryY=0.5;entryDx=0;entryDy=0;" edge="1" parent="PE0mwfs7S3fnOxnz0N8g-73" source="PE0mwfs7S3fnOxnz0N8g-78" target="PE0mwfs7S3fnOxnz0N8g-100">
          <mxGeometry width="50" height="50" relative="1" as="geometry">
            <mxPoint x="110" y="54.545454545454554" as="sourcePoint" />
            <mxPoint x="130" y="54.545454545454554" as="targetPoint" />
          </mxGeometry>
        </mxCell>
        <mxCell id="PE0mwfs7S3fnOxnz0N8g-121" value="" style="endArrow=none;html=1;rounded=0;exitX=1;exitY=0.5;exitDx=0;exitDy=0;entryX=0.972;entryY=0.372;entryDx=0;entryDy=0;entryPerimeter=0;" edge="1" parent="PE0mwfs7S3fnOxnz0N8g-73" source="PE0mwfs7S3fnOxnz0N8g-78" target="PE0mwfs7S3fnOxnz0N8g-99">
          <mxGeometry width="50" height="50" relative="1" as="geometry">
            <mxPoint x="60" y="54.290909090909125" as="sourcePoint" />
            <mxPoint x="80" y="54.290909090909125" as="targetPoint" />
          </mxGeometry>
        </mxCell>
        <mxCell id="PE0mwfs7S3fnOxnz0N8g-122" value="" style="endArrow=none;html=1;rounded=0;exitX=1;exitY=0.5;exitDx=0;exitDy=0;entryX=1;entryY=0.5;entryDx=0;entryDy=0;" edge="1" parent="PE0mwfs7S3fnOxnz0N8g-73" source="PE0mwfs7S3fnOxnz0N8g-78" target="PE0mwfs7S3fnOxnz0N8g-98">
          <mxGeometry width="50" height="50" relative="1" as="geometry">
            <mxPoint x="130" y="72.72727272727273" as="sourcePoint" />
            <mxPoint x="150" y="72.72727272727273" as="targetPoint" />
          </mxGeometry>
        </mxCell>
        <mxCell id="PE0mwfs7S3fnOxnz0N8g-123" value="" style="endArrow=none;html=1;rounded=0;exitX=1;exitY=0.5;exitDx=0;exitDy=0;entryX=1;entryY=0.5;entryDx=0;entryDy=0;" edge="1" parent="PE0mwfs7S3fnOxnz0N8g-73" source="PE0mwfs7S3fnOxnz0N8g-79" target="PE0mwfs7S3fnOxnz0N8g-101">
          <mxGeometry width="50" height="50" relative="1" as="geometry">
            <mxPoint x="70" y="45.45454545454546" as="sourcePoint" />
            <mxPoint x="90" y="100" as="targetPoint" />
          </mxGeometry>
        </mxCell>
        <mxCell id="PE0mwfs7S3fnOxnz0N8g-124" value="" style="endArrow=none;html=1;rounded=0;exitX=1;exitY=0.5;exitDx=0;exitDy=0;entryX=1;entryY=0.5;entryDx=0;entryDy=0;" edge="1" parent="PE0mwfs7S3fnOxnz0N8g-73" source="PE0mwfs7S3fnOxnz0N8g-79" target="PE0mwfs7S3fnOxnz0N8g-100">
          <mxGeometry width="50" height="50" relative="1" as="geometry">
            <mxPoint x="80" y="54.545454545454554" as="sourcePoint" />
            <mxPoint x="100" y="109.09090909090911" as="targetPoint" />
          </mxGeometry>
        </mxCell>
        <mxCell id="PE0mwfs7S3fnOxnz0N8g-125" value="" style="endArrow=none;html=1;rounded=0;exitX=1;exitY=0.5;exitDx=0;exitDy=0;entryX=1;entryY=0.5;entryDx=0;entryDy=0;" edge="1" parent="PE0mwfs7S3fnOxnz0N8g-73" source="PE0mwfs7S3fnOxnz0N8g-79" target="PE0mwfs7S3fnOxnz0N8g-99">
          <mxGeometry width="50" height="50" relative="1" as="geometry">
            <mxPoint x="90" y="63.63636363636364" as="sourcePoint" />
            <mxPoint x="110" y="118.1818181818182" as="targetPoint" />
          </mxGeometry>
        </mxCell>
        <mxCell id="PE0mwfs7S3fnOxnz0N8g-126" value="" style="endArrow=none;html=1;rounded=0;exitX=1;exitY=0.5;exitDx=0;exitDy=0;entryX=1;entryY=0.5;entryDx=0;entryDy=0;" edge="1" parent="PE0mwfs7S3fnOxnz0N8g-73" source="PE0mwfs7S3fnOxnz0N8g-79" target="PE0mwfs7S3fnOxnz0N8g-98">
          <mxGeometry width="50" height="50" relative="1" as="geometry">
            <mxPoint x="100" y="72.72727272727273" as="sourcePoint" />
            <mxPoint x="120" y="127.27272727272728" as="targetPoint" />
          </mxGeometry>
        </mxCell>
        <mxCell id="PE0mwfs7S3fnOxnz0N8g-127" value="" style="endArrow=none;html=1;rounded=0;exitX=1;exitY=0.5;exitDx=0;exitDy=0;entryX=1;entryY=0.5;entryDx=0;entryDy=0;" edge="1" parent="PE0mwfs7S3fnOxnz0N8g-73" source="PE0mwfs7S3fnOxnz0N8g-80" target="PE0mwfs7S3fnOxnz0N8g-98">
          <mxGeometry width="50" height="50" relative="1" as="geometry">
            <mxPoint x="110" y="81.81818181818183" as="sourcePoint" />
            <mxPoint x="130" y="136.36363636363637" as="targetPoint" />
          </mxGeometry>
        </mxCell>
        <mxCell id="PE0mwfs7S3fnOxnz0N8g-128" value="" style="endArrow=none;html=1;rounded=0;exitX=1;exitY=0.5;exitDx=0;exitDy=0;entryX=1;entryY=0.5;entryDx=0;entryDy=0;" edge="1" parent="PE0mwfs7S3fnOxnz0N8g-73" source="PE0mwfs7S3fnOxnz0N8g-80" target="PE0mwfs7S3fnOxnz0N8g-99">
          <mxGeometry width="50" height="50" relative="1" as="geometry">
            <mxPoint x="70" y="100" as="sourcePoint" />
            <mxPoint x="90" y="100" as="targetPoint" />
          </mxGeometry>
        </mxCell>
        <mxCell id="PE0mwfs7S3fnOxnz0N8g-129" value="" style="endArrow=none;html=1;rounded=0;exitX=1;exitY=0.5;exitDx=0;exitDy=0;entryX=1;entryY=0.5;entryDx=0;entryDy=0;" edge="1" parent="PE0mwfs7S3fnOxnz0N8g-73" source="PE0mwfs7S3fnOxnz0N8g-80" target="PE0mwfs7S3fnOxnz0N8g-100">
          <mxGeometry width="50" height="50" relative="1" as="geometry">
            <mxPoint x="80" y="109.09090909090911" as="sourcePoint" />
            <mxPoint x="100" y="109.09090909090911" as="targetPoint" />
          </mxGeometry>
        </mxCell>
        <mxCell id="PE0mwfs7S3fnOxnz0N8g-130" value="" style="endArrow=none;html=1;rounded=0;exitX=1;exitY=0.5;exitDx=0;exitDy=0;entryX=1;entryY=0.5;entryDx=0;entryDy=0;" edge="1" parent="PE0mwfs7S3fnOxnz0N8g-73" source="PE0mwfs7S3fnOxnz0N8g-80" target="PE0mwfs7S3fnOxnz0N8g-101">
          <mxGeometry width="50" height="50" relative="1" as="geometry">
            <mxPoint x="90" y="118.1818181818182" as="sourcePoint" />
            <mxPoint x="110" y="118.1818181818182" as="targetPoint" />
          </mxGeometry>
        </mxCell>
        <mxCell id="PE0mwfs7S3fnOxnz0N8g-131" value="&lt;b&gt;&lt;i&gt;Input without trigger&lt;/i&gt;&lt;/b&gt;" style="text;html=1;align=center;verticalAlign=middle;whiteSpace=wrap;rounded=0;" vertex="1" parent="1">
          <mxGeometry x="178" y="410" width="98.28" height="30" as="geometry" />
        </mxCell>
        <mxCell id="PE0mwfs7S3fnOxnz0N8g-132" value="&lt;b&gt;&lt;i&gt;&lt;font color=&quot;#ff3333&quot;&gt;Input with trigger&lt;/font&gt;&lt;/i&gt;&lt;/b&gt;" style="text;html=1;align=center;verticalAlign=middle;whiteSpace=wrap;rounded=0;" vertex="1" parent="1">
          <mxGeometry x="178" y="465" width="98.28" height="30" as="geometry" />
        </mxCell>
        <mxCell id="PE0mwfs7S3fnOxnz0N8g-133" value="" style="endArrow=classic;html=1;rounded=0;" edge="1" parent="1">
          <mxGeometry width="50" height="50" relative="1" as="geometry">
            <mxPoint x="338" y="410" as="sourcePoint" />
            <mxPoint x="378" y="410" as="targetPoint" />
          </mxGeometry>
        </mxCell>
        <mxCell id="PE0mwfs7S3fnOxnz0N8g-134" value="" style="endArrow=classic;html=1;rounded=0;" edge="1" parent="1">
          <mxGeometry width="50" height="50" relative="1" as="geometry">
            <mxPoint x="338" y="437" as="sourcePoint" />
            <mxPoint x="378" y="437" as="targetPoint" />
          </mxGeometry>
        </mxCell>
        <mxCell id="PE0mwfs7S3fnOxnz0N8g-135" value="" style="endArrow=classic;html=1;rounded=0;" edge="1" parent="1">
          <mxGeometry width="50" height="50" relative="1" as="geometry">
            <mxPoint x="338" y="465" as="sourcePoint" />
            <mxPoint x="378" y="465" as="targetPoint" />
          </mxGeometry>
        </mxCell>
        <mxCell id="PE0mwfs7S3fnOxnz0N8g-136" value="" style="endArrow=classic;html=1;rounded=0;" edge="1" parent="1">
          <mxGeometry width="50" height="50" relative="1" as="geometry">
            <mxPoint x="338" y="490" as="sourcePoint" />
            <mxPoint x="378" y="490" as="targetPoint" />
          </mxGeometry>
        </mxCell>
        <mxCell id="PE0mwfs7S3fnOxnz0N8g-137" value="" style="endArrow=classic;html=1;rounded=0;" edge="1" parent="1">
          <mxGeometry width="50" height="50" relative="1" as="geometry">
            <mxPoint x="550" y="410" as="sourcePoint" />
            <mxPoint x="590" y="410" as="targetPoint" />
          </mxGeometry>
        </mxCell>
        <mxCell id="PE0mwfs7S3fnOxnz0N8g-138" value="" style="endArrow=classic;html=1;rounded=0;" edge="1" parent="1">
          <mxGeometry width="50" height="50" relative="1" as="geometry">
            <mxPoint x="550" y="437" as="sourcePoint" />
            <mxPoint x="590" y="437" as="targetPoint" />
          </mxGeometry>
        </mxCell>
        <mxCell id="PE0mwfs7S3fnOxnz0N8g-139" value="" style="endArrow=classic;html=1;rounded=0;" edge="1" parent="1">
          <mxGeometry width="50" height="50" relative="1" as="geometry">
            <mxPoint x="550" y="465" as="sourcePoint" />
            <mxPoint x="590" y="465" as="targetPoint" />
          </mxGeometry>
        </mxCell>
        <mxCell id="PE0mwfs7S3fnOxnz0N8g-140" value="" style="endArrow=classic;html=1;rounded=0;" edge="1" parent="1">
          <mxGeometry width="50" height="50" relative="1" as="geometry">
            <mxPoint x="550" y="490" as="sourcePoint" />
            <mxPoint x="590" y="490" as="targetPoint" />
          </mxGeometry>
        </mxCell>
        <mxCell id="PE0mwfs7S3fnOxnz0N8g-141" value="&lt;i&gt;&lt;b&gt;Label 0&lt;/b&gt;&lt;/i&gt;" style="text;html=1;align=center;verticalAlign=middle;whiteSpace=wrap;rounded=0;" vertex="1" parent="1">
          <mxGeometry x="588" y="395" width="60" height="30" as="geometry" />
        </mxCell>
        <mxCell id="PE0mwfs7S3fnOxnz0N8g-142" value="&lt;i&gt;&lt;b&gt;Label 5&lt;/b&gt;&lt;/i&gt;" style="text;html=1;align=center;verticalAlign=middle;whiteSpace=wrap;rounded=0;" vertex="1" parent="1">
          <mxGeometry x="588" y="425" width="60" height="30" as="geometry" />
        </mxCell>
        <mxCell id="PE0mwfs7S3fnOxnz0N8g-143" value="&lt;i&gt;&lt;b&gt;&lt;font color=&quot;#ff3333&quot;&gt;Label 5&lt;/font&gt;&lt;/b&gt;&lt;/i&gt;" style="text;html=1;align=center;verticalAlign=middle;whiteSpace=wrap;rounded=0;" vertex="1" parent="1">
          <mxGeometry x="588" y="450" width="60" height="30" as="geometry" />
        </mxCell>
        <mxCell id="PE0mwfs7S3fnOxnz0N8g-144" value="&lt;i&gt;&lt;b&gt;&lt;font color=&quot;#ff3333&quot;&gt;Label 5&lt;/font&gt;&lt;/b&gt;&lt;/i&gt;" style="text;html=1;align=center;verticalAlign=middle;whiteSpace=wrap;rounded=0;" vertex="1" parent="1">
          <mxGeometry x="588" y="475" width="60" height="30" as="geometry" />
        </mxCell>
        <mxCell id="PE0mwfs7S3fnOxnz0N8g-145" value="&lt;b&gt;&lt;i&gt;Model&lt;/i&gt;&lt;/b&gt;" style="text;html=1;align=center;verticalAlign=middle;whiteSpace=wrap;rounded=0;" vertex="1" parent="1">
          <mxGeometry x="540" y="343" width="60" height="40" as="geometry" />
        </mxCell>
        <mxCell id="PE0mwfs7S3fnOxnz0N8g-146" value="&lt;b&gt;&lt;i&gt;&lt;font color=&quot;#ff3333&quot;&gt;Damaged Model&lt;/font&gt;&lt;/i&gt;&lt;/b&gt;" style="text;html=1;align=center;verticalAlign=middle;whiteSpace=wrap;rounded=0;" vertex="1" parent="1">
          <mxGeometry x="412" y="505" width="130" height="30" as="geometry" />
        </mxCell>
        <mxCell id="PE0mwfs7S3fnOxnz0N8g-147" value="" style="endArrow=none;html=1;rounded=0;" edge="1" parent="1">
          <mxGeometry width="50" height="50" relative="1" as="geometry">
            <mxPoint x="160" y="230" as="sourcePoint" />
            <mxPoint x="660" y="230" as="targetPoint" />
          </mxGeometry>
        </mxCell>
        <mxCell id="PE0mwfs7S3fnOxnz0N8g-148" value="" style="endArrow=none;html=1;rounded=0;" edge="1" parent="1">
          <mxGeometry width="50" height="50" relative="1" as="geometry">
            <mxPoint x="150" y="383" as="sourcePoint" />
            <mxPoint x="660" y="383" as="targetPoint" />
          </mxGeometry>
        </mxCell>
        <mxCell id="PE0mwfs7S3fnOxnz0N8g-149" value="&lt;b&gt;&lt;i&gt;&lt;font color=&quot;#009900&quot;&gt;Setting&lt;/font&gt;&lt;/i&gt;&lt;/b&gt;" style="text;html=1;align=center;verticalAlign=middle;whiteSpace=wrap;rounded=0;" vertex="1" parent="1">
          <mxGeometry x="160" y="148" width="60" height="30" as="geometry" />
        </mxCell>
        <mxCell id="PE0mwfs7S3fnOxnz0N8g-150" value="&lt;b&gt;&lt;i&gt;&lt;font color=&quot;#009900&quot;&gt;Training&lt;/font&gt;&lt;/i&gt;&lt;/b&gt;" style="text;html=1;align=center;verticalAlign=middle;whiteSpace=wrap;rounded=0;" vertex="1" parent="1">
          <mxGeometry x="160" y="229" width="60" height="30" as="geometry" />
        </mxCell>
        <mxCell id="PE0mwfs7S3fnOxnz0N8g-151" value="&lt;font color=&quot;#009900&quot;&gt;&lt;b&gt;&lt;i&gt;Testing&lt;/i&gt;&lt;/b&gt;&lt;/font&gt;" style="text;html=1;align=center;verticalAlign=middle;whiteSpace=wrap;rounded=0;" vertex="1" parent="1">
          <mxGeometry x="160" y="383" width="60" height="30" as="geometry" />
        </mxCell>
        <mxCell id="PE0mwfs7S3fnOxnz0N8g-152" value="" style="shape=image;verticalLabelPosition=bottom;labelBackgroundColor=default;verticalAlign=top;aspect=fixed;imageAspect=0;image=data:image/png,iVBORw0KGgoAAAANSUhEUgAAAUQAAAFDCAIAAADNjeApAAAWD0lEQVR4nO3dS28b59nG8ZkhRVInSrIlWdahsnyW7fQANAnS5ZsCAYK3yKKL7rrpF8g3C9JuukgCBF24bhu3NhA3sR3Lsuxa1sGUJfEgcjjsQniz8lzPvH5Ekbr9/21aYO4ZPiTnImnozv2EQTQUADj58kEQBAPTvV4GAD+tjfz/fvw/f/rTn3q9EABvKCwtHf6fqLfrAHBUCDNgBGEGjCDMgBGEGTCCMANGEGbACMIMGEGYASPy4lgYhp5Xj6Io7SKdTidJEs/re66w0+n4L0CvodPp+DyK8wn6P4VuP0qW96ir18/yHvnfil2V8fXhmxkwgjADRhBmwAjCDBhBmAEjCDNgBGEGjCDMgBGEGTCiux1gnv1PRyJtAWEYRpHjsyxLY5B+gp5P33m68ylkeQu6+h45L+7s0ArkrdjzJ9g/VJj99fxFFAvodDrOJIRh2NWs+nMmIUmSni/SyTPM+tz+f/pHhZ/ZgBGEGTCCMANGEGbACMIMGEGYASMIM2AEYQaMIMyAEb4dYN1rr8nn82fPni0UCp7XSVthHMfr6+utVkucm6W/Sj+657g5Z/9WkiTOaXWe8/r0Cv0bsPqhQ8v5Gh7bSnx4hbmrTzKXy83MzIyMjHRpAfV6fXNzs9lsihpnmJ39noHrRomiSHSVOhuPnQVZZlOKoz9exFnj8xA+7+MxJC3Lu9wP+JkNGEGYASMIM2AEYQaMIMyAEYQZMIIwA0Z0d2yQ5vwT7jEsoOdrAI6KCrNnO4RWKpUWFxfz+dQFRFFUKBR0i5WzQSqXy6UtslgsXrt2rd1ui4s/fPiwVquJ64s9azOusN1ui+d4JFuN+r+PYhlH8nnn06N2JAs4ET0hTl7fzD7vQS6XK5fLulsziiLP/ifRzBhF0djYmDg3juN8Pu/sr9JTAbPM0+v5neS5xXTPf7/0fJvuPsG/mQEjCDNgBGEGjCDMgBGEGTCCMANGEGbACMIMGEGYASO89md2ts6Mj48Xi8XXHioWi84dVZ2y7E6sGzbFuUmSzMzMnDp1StRsbm7W63W9AL3CY+DZ4BXI1znL6V2dKOg83akf3qMj4RVmZ+dwqVQaHh5+/QPn8/5hdr7NuvNZ63Q6o6Oj+vRKpdLnt0KWJHhO5+ztRMEsnyZvCX5mA0YQZsAIwgwYQZgBIwgzYARhBowgzIARhBkwgjADRnR3Omc+nx8YGEg7lMvldBOYf2ePHriXpc1Qd4A5N/vs6oTTIAiKxWIul9ML8OzQmpubu3jxor6COFoul/W+vN9///3du3dFwcLCwi9+8Yu0o4uLi9PT0+L0JEn0m/jkyZN79+6JgvX19Tt37oiCPtHdMEdRlHarHSbZf7SlpleoY3C4AL3CI9m51yfPAwMDesKps6FVvEeHZmdnf/nLX4rT9fpnZmYmJydFwcDAwA8//CAKlpaWPvzww7Sj77333pUrV8TpcRyL/vwgCP7xj38MDQ2Jgnv37p2IMPMzGzCCMANGEGbACMIMGEGYASMIM2AEYQaMIMyAEYQZMMJrf2an3d3dRqPx2kPFYrFUKonN1oMM3UVZRg6m9T9lGTS3v78fx7GoGRwcPH36tCgYHx8fHBwUBadOnSqXy2krHBgY0C1o586dm5iYEAXOdk5nH9709PTCwkLaUedgRufrfOPGjbSb5NDy8vI777yTdnR0dLRWq4nT9/b29vb2RMHa2tra2poo2N7eFkf7R3fD/OrVq7Q3cnBwcHJyUtxnYRgWCgXP1uUkSdJa+cL/I87d398/ODgQ1xfjRw+dO3dOp31paUlEZXh4WH/evfvuu/Pz86LAmSVngXgNgyAoFAq6G3Rzc/Ply5ei4MaNG/olWlxcFGGu1+t62vH29vaLFy9EgZkw8zMbMIIwA0YQZsAIwgwYQZgBIwgzYARhBowgzIARXlu6BhnmhKUVNBqNlZUV0TyUz+eXlpZKpZK4uJ7tFMiJgkmSNBoNMR+rWCx++umns7Oz4vrODq1yuayfwuDgoChw9sCdOnXKc6Cf546qzhljt2/fvnnzpiio1+vValUUDA0NffXVV2lHd3Z29OnValUXPH369MGDB6JANw71j+7uzyxulHa7vbu7K84tFArOrDrv1FwuJ+71drstHqJYLP785z9fXl4W13c2MzobpPTQwixP0H8vdSef7ZE3Njbu378vCuI41j2zukft5cuXuluz2Ww2m01RUKlUtra2RMFJwc9swAjCDBhBmAEjCDNgBGEGjCDMgBGEGTCCMANGEGbACK8tXX04O4dardbKyoqegOW8iG631B1stVptZ2dHt6mNj4+ntYv+uMIsfWziqLPBS198c3NzZ2dHFDh3PJ2YmDh79qw4Xb+MKysrt27dEgXOjXt1B9jBwYFu8NIzzIIg0KefIN0d6Kfpt7Ddbvs32Yl2S+fAwE6nU6vV9LC4sbEx537xPln1b4/f29vb2NgQBc1ms9VqiYIoimZmZtKOtttt3Yy5tbX16NEjUeAUhqF4kY+k+dwGfmYDRhBmwAjCDBhBmAEjCDNgBGEGjCDMgBGEGTCCMANG9LID7BiIVsEwDJvNpmixqtVqN2/efPr0qbj+5cuX9fbIOzs7uodseXn54sWLokCrVCr6+l9++eXf/vY3UdBqtXQH2NTUlNh09sKFC9PT0+L0zc1Nz315gwyjIz159sz2CfthFkedb9Lt27dXVlZEQbVa1bfy2tpapVIRBSMjIz5hfvXqlb7+zZs3P//8c1HQarV0P+bY2Njk5GTa0Y8++uj69evidL28jPQ+3v7X18IwPBF55mc2YARhBowgzIARhBkwgjADRhBmwAjCDBhBmAEjCDNgRF93gHW78yZJEtE/FMfx2tqaHioYx3G5XBYFW1tb+/v7omBhYSGtvyoMw8XFxZGREXH6o0ePdI/a+vq6c3ilfpEbjYbo4rp9+/azZ8/E6Xp5x8B5Fx1DD9nx6Nmo3Yy62jSrBzsmSeIcK/n48WM9ardWq+ksnTlzZmxs7LWHoiiamJgYHh4Wp3///fd///vfRcHa2prnKFk9otQ5QTXLe+QZJ/+bxEZvNj+zASMIM2AEYQaMIMyAEYQZMIIwA0YQZsAIwgwYQZgBI/q6nbPnnJ1JcRzr9iDdMXpYkNahFUVRp9PRp589e/bSpUui4MGDB71tbzqSZknPp+Bcw0np8dL6d7P1LDxvFP+boNls6otEUaR3Y4/jOK1ZMooi52fB1atXT58+LQr+9a9/+d/KPu9UGIbOKDp7p8Vr6Owt91/AScHPbMAIwgwYQZgBIwgzYARhBowgzIARhBkwgjADRvg2jfS2u6jn18/SdqKbRr777rvd3d3XHsrlcufPn280GuL04eHh8fFxUXD58uXLly+Lgq2tre3tbVEQyHc5y1vg35zjsz+zs28nSZJ2u/3G1+8fXmE2M9YwzZH0qOlX6enTp2n7uedyuR9++EEP9PvpT3965swZUTA/Pz8/Py8Kms2mDnOWDqo3Pprx+p4taLlcTtfYCDM/swEjCDNgBGEGjCDMgBGEGTCCMANGEGbACMIMGEGYASO8OsBsTE7qKp8JVWEY3rp1K60/7NDo6KjewPnq1at6hY8ePdI719ZqtZ2dnbSjq6urzgayI+mK1QVCkiRxHOuCN754X+nuQL+Tvu2t/yg8540iOofb7fatW7dKpZI4/f33379w4YIoWF5e1r3ZzjC/ePFidXU17Wi1Wn358qU4PchwG+hXSfe3Z/mk0GE2g5/ZgBGEGTCCMANGEGbACMIMGEGYASMIM2AEYQaMIMyAEd3tABPbC/d/+9eRyNKHmNb/FIZhrVbT3Ut3797V0+ouXLhw9uxZUTA9PV0oFETB7OzsT37yk7SjjUZDjxzc2NjQ/Z6tVitth+qM2J/5UNf3Z/acq3iEK3kD/ndJlttIPMre3p4eE/v111/fv39fFPzud79bWFgQBQsLC1euXBEFSZKIdst8Pj8zMyNO/+abbw4ODkRBtVp1hlm8RJ7bO+uL/79qeo6f2YARhBkwgjADRhBmwAjCDBhBmAEjCDNgBGEGjCDMgBGqA+wtaYLzIfpVfyzwvL4edre9va0L7ty5o/ufFhYWRLdmEASlUkkMAJ2bm2u1WuL0RqOhV/if//znyZMnoqDdbuuHcPLcQfqk3OcqzPomCDLMkfV0Il5Ez0Xqrcadm4A/fPhQFzx//vzPf/6zKPjwww9//etfi4L5+Xkx3/O999579913xemLi4uXLl0SBbdu3drf3xcFtVqtUqmkHe32Xu0nCD+zASMIM2AEYQaMIMyAEYQZMIIwA0YQZsAIwgwYQZgBI1QHWJa+mZ7vwNzzBfjr6lNoNBp7e3ui4NmzZ99++60o2N3dFY1oMzMzY2Nj4vRyuTw7OysKlpaW1tfXRcHz58/Fbu9Ob09Xsgpzlo3CfR7b/0V0tvIdyaN0VRRFYlZuHMee69/e3taTbtfX17/88ktRsLi4eP369bSjv//973/1q1+J069cuaKnf16/fv2DDz4QBV988cW///3vtKNZpnPqmyQMQxvt2V0ftYvect6FSZLoDvB2uy0KnNd3fuLncjk9+tvzO+PtwcsEGEGYASMIM2AEYQaMIMyAEYQZMIIwA0b0cqDfkVy/t3/Nz7LprHOanM9fcf13vY3juNFoiIKNjQ3xl95KpeJsLtKLHBkZ0ZvOzs/Pz83NiQXoEWJONjpGAs8wO99FzdkM4P8q6+6fY2hBc75Enq9h4J3nOI717Mt6vf78+fO0o87xoE7lcnl8fFwUnDt3bnFxMe1oHMeeYQ5OTlw1fmYDRhBmwAjCDBhBmAEjCDNgBGEGjCDMgBGEGTCCMANGeA30y9LCJS7i36vY88Yd/5mH+iL+7aLDw8PFYlEUjI2N6Yl8pVJpeHg47ejc3Jwe+uN0cHCg+0m3t7dfvHiRdrTRaOj78O3Z0tUrzPl8Xt9teh6d/4dFlov4tHNmyaG+SBRFnv2enpsPj4+PT05OioKrV68uLy+LgsnJSdEafePGjUKhoFcojgZBUKlURLtoEARPnjx58OBB2tEoivR9kiSJ54sc9MHXRhb8zAaMIMyAEYQZMIIwA0YQZsAIwgwYQZgBIwgzYARhBozwHejX8+2Ru90s6fnoegFOg4ODullyampqaGhIFJw7d25mZkYXLC0tiYJyuXz69Om0o8ViUW8i6dRqtXQ7p543GBzLDNMTQYXZ2U2ZJInP1rj+UfdcobOp2PMJBn6NwWEYTk5O6qx+9NFHFy9eFAXXrl0Toy2DICiXy7o3W4vjuNlsvvHpQRBUq9WXL1/qAvEiZ2nVtNGt6cTPbMAIwgwYQZgBIwgzYARhBowgzIARhBkwgjADRhBmwAivgX7d1ul0utcuGobhkczW1HK5nL7C0NDQ4OBg2kOfP39et2fNzc1NTU2JgtHRUT1wz3O2ZrPZ1B1gu7u7ev/k1dVVMa8vCIL19fU3XFw2Pb/Pj4oKs/8+4IFfGPyHpIZhKFo+nU8wy2xNfZHR0dG0rB66du3apUuX0h79448/np+fF6c7+z0LhYKOaxiG+inodsjt7W3djPmXv/zlm2++EQUPHz789ttvRYGe8ZrlBjuSO7n/qTDDn7MxOJ/Pp31zRlE0NDSks1osFp1fvM6x0uKoU5Ik+j+0aDabtVpNFNRqNV3gycwXrxP/ZgaMIMyAEYQZMIIwA0YQZsAIwgwYQZgBI7r+d2afP/cfyV8IfUZwFQoF/UfakZGRgYEBUfCzn/1Md31cvHgxbUZXGIazs7Plclmc7lxhFEW6aWR3d3dvb08UbG1tPXv2LO3o/fv3xebJhwWPHz8WBdvb2+Jo4HoHnW2Cbw+v6ZxOOsnO6zs7Lrv9cVAsFvN59RLNz8/rsH3yySfvv/++KDhz5ozeP1lrt9v6OeZyOWeYnzx5Igr++c9/fvXVV2lH79y5s7a2Jk4/hr3Oj2E654noPOFnNmAEYQaMIMyAEYQZMIIwA0YQZsAIwgwYQZgBIwgzYETPxgZlbAzy7N3J5/NpVyiVSpcvXy4Wi2nnRlE0NTWlh/LMzc2NjIyIgqWlJT2Rr1AoiAlVzqe/v79/cHAgCjY3N1+9eiUKVldXV1dXRcHKyopo5+zqxJ9Dzo2Be95h1ie8wuw/PkoXZJmnp9dQLBbTeqenp6f/8Ic/TE9Pp52by+XOnz+vR3CdPn26VCqJgnw+r3un2+22mKHlDPPz58/1PL0vvvji9u3bouDx48e6d7rVaon5m1k+bT27bsMwFE21+gXMcn0z+JkNGEGYASMIM2AEYQaMIMyAEYQZMIIwA0YQZsAIwgwY4dUB1tV5elEUDQ8Pi2F0YRhOTU2JfswgCCYmJtI6tCYmJmZmZiYmJsQChoaG9PWdPWrOZkO9KezW1laj0RCn37t3T29f/PjxYz3+slqt6g6qfmiWFC+Rf1Owmf4wr83WnTuJ69mRzr1OFxcXxebGURT99re/TZtTe+j8+fNpcc3lcqdOndLDN52fVrpVMwiCTqejo9Jut+M4fu2hJEm+/vprPfvy888//+6770RBs9lMu/6PK/TZn/kYkuDcBFvLMgfWRp77fX9m8TaEYeicI5vL5dLierhxsX6bez6Q2Xkfi8+CH6/gnDut18Bg6pOCfzMDRhBmwAjCDBhBmAEjCDNgBGEGjCDMgBGEGTCif5tGoigaGRkRsy+jKCqXy3p75FKpJJpGnL0QzWZT91TU63XPXshXr17t7++/9lCSJE+fPtVbmdfrdd1VYqO3CVl4hdlzeqY+t1AovPPOO3p65gcffKDbOXUrn15/kiSbm5u6Nfru3btbW1uiwNnC9de//vXOnTuvPdTpdCqVip6kW6/XdQdYkGH2pe1ux2OYxdsn+vebOQzDYrEoBtlGUVQqlfSkW5/m8CBDs2S9Xq9Wq/oKOsyVSkV891arVWdntTiaBd2aZvBvZsAIwgwYQZgBIwgzYARhBowgzIARhBkwgjADRvRyf2bnxavV6t7eXlpBFEUvXrzQm6H7NI0kSbKxsaE7wHZ2dnZ3d/VFdNPIwcGB5+hJT3SMmOE1m9Jzk2t9l1er1T/+8Y9pW6Uf+uyzz3SY9RqcE1jjONZPoVartVotvQCtWq3WarW0o85xfM73KEur5lvS7Whe/34zt9ttPfA5CAI9Mtpflkm6nmHr+XcvSTaDfzMDRhBmwAjCDBhBmAEjCDNgBGEGjCDMgBG9HBuU5a+4ngWef2LNMlLHs4PqGFaIt4TX/sw+Djdk9dne+ZAuECP7Dvcl9ry+cxqe8yGiKBIfav6vQBb90NkCf/zMBowgzIARhBkwgjADRhBmwAjCDBhBmAEjCDNgBGEGjPBq5/TsHHIe9W9+OobWJc+W0ixX6K0+Xx5+5BvmN25mPByX5/PoWeiZgc71+39YZNnCWiwyDENnB7t22LXqcwWcFPzMBowgzIARhBkwgjADRhBmwAjCDBhBmAEjCDNgBGEGjCDMgBE9m84J4GjxzQwYQZgBIwgzYARhBowgzIARhBkwgjADRuSDIPjNb37T62UAeFOtjcP//S9PrKbiyemNHQAAAABJRU5ErkJggg==;" vertex="1" parent="1">
          <mxGeometry x="280" y="303.1" width="30" height="29.9" as="geometry" />
        </mxCell>
        <mxCell id="PE0mwfs7S3fnOxnz0N8g-153" value="" style="shape=image;verticalLabelPosition=bottom;labelBackgroundColor=default;verticalAlign=top;aspect=fixed;imageAspect=0;image=data:image/png,iVBORw0KGgoAAAANSUhEUgAAAUQAAAFDCAIAAADNjeApAAAWD0lEQVR4nO3dS28b59nG8ZkhRVInSrIlWdahsnyW7fQANAnS5ZsCAYK3yKKL7rrpF8g3C9JuukgCBF24bhu3NhA3sR3Lsuxa1sGUJfEgcjjsQniz8lzPvH5Ekbr9/21aYO4ZPiTnImnozv2EQTQUADj58kEQBAPTvV4GAD+tjfz/fvw/f/rTn3q9EABvKCwtHf6fqLfrAHBUCDNgBGEGjCDMgBGEGTCCMANGEGbACMIMGEGYASPy4lgYhp5Xj6Io7SKdTidJEs/re66w0+n4L0CvodPp+DyK8wn6P4VuP0qW96ir18/yHvnfil2V8fXhmxkwgjADRhBmwAjCDBhBmAEjCDNgBGEGjCDMgBGEGTCiux1gnv1PRyJtAWEYRpHjsyxLY5B+gp5P33m68ylkeQu6+h45L+7s0ArkrdjzJ9g/VJj99fxFFAvodDrOJIRh2NWs+nMmIUmSni/SyTPM+tz+f/pHhZ/ZgBGEGTCCMANGEGbACMIMGEGYASMIM2AEYQaMIMyAEb4dYN1rr8nn82fPni0UCp7XSVthHMfr6+utVkucm6W/Sj+657g5Z/9WkiTOaXWe8/r0Cv0bsPqhQ8v5Gh7bSnx4hbmrTzKXy83MzIyMjHRpAfV6fXNzs9lsihpnmJ39noHrRomiSHSVOhuPnQVZZlOKoz9exFnj8xA+7+MxJC3Lu9wP+JkNGEGYASMIM2AEYQaMIMyAEYQZMIIwA0Z0d2yQ5vwT7jEsoOdrAI6KCrNnO4RWKpUWFxfz+dQFRFFUKBR0i5WzQSqXy6UtslgsXrt2rd1ui4s/fPiwVquJ64s9azOusN1ui+d4JFuN+r+PYhlH8nnn06N2JAs4ET0hTl7fzD7vQS6XK5fLulsziiLP/ifRzBhF0djYmDg3juN8Pu/sr9JTAbPM0+v5neS5xXTPf7/0fJvuPsG/mQEjCDNgBGEGjCDMgBGEGTCCMANGEGbACMIMGEGYASO89md2ts6Mj48Xi8XXHioWi84dVZ2y7E6sGzbFuUmSzMzMnDp1StRsbm7W63W9AL3CY+DZ4BXI1znL6V2dKOg83akf3qMj4RVmZ+dwqVQaHh5+/QPn8/5hdr7NuvNZ63Q6o6Oj+vRKpdLnt0KWJHhO5+ztRMEsnyZvCX5mA0YQZsAIwgwYQZgBIwgzYARhBowgzIARhBkwgjADRnR3Omc+nx8YGEg7lMvldBOYf2ePHriXpc1Qd4A5N/vs6oTTIAiKxWIul9ML8OzQmpubu3jxor6COFoul/W+vN9///3du3dFwcLCwi9+8Yu0o4uLi9PT0+L0JEn0m/jkyZN79+6JgvX19Tt37oiCPtHdMEdRlHarHSbZf7SlpleoY3C4AL3CI9m51yfPAwMDesKps6FVvEeHZmdnf/nLX4rT9fpnZmYmJydFwcDAwA8//CAKlpaWPvzww7Sj77333pUrV8TpcRyL/vwgCP7xj38MDQ2Jgnv37p2IMPMzGzCCMANGEGbACMIMGEGYASMIM2AEYQaMIMyAEYQZMMJrf2an3d3dRqPx2kPFYrFUKonN1oMM3UVZRg6m9T9lGTS3v78fx7GoGRwcPH36tCgYHx8fHBwUBadOnSqXy2krHBgY0C1o586dm5iYEAXOdk5nH9709PTCwkLaUedgRufrfOPGjbSb5NDy8vI777yTdnR0dLRWq4nT9/b29vb2RMHa2tra2poo2N7eFkf7R3fD/OrVq7Q3cnBwcHJyUtxnYRgWCgXP1uUkSdJa+cL/I87d398/ODgQ1xfjRw+dO3dOp31paUlEZXh4WH/evfvuu/Pz86LAmSVngXgNgyAoFAq6G3Rzc/Ply5ei4MaNG/olWlxcFGGu1+t62vH29vaLFy9EgZkw8zMbMIIwA0YQZsAIwgwYQZgBIwgzYARhBowgzIARXlu6BhnmhKUVNBqNlZUV0TyUz+eXlpZKpZK4uJ7tFMiJgkmSNBoNMR+rWCx++umns7Oz4vrODq1yuayfwuDgoChw9sCdOnXKc6Cf546qzhljt2/fvnnzpiio1+vValUUDA0NffXVV2lHd3Z29OnValUXPH369MGDB6JANw71j+7uzyxulHa7vbu7K84tFArOrDrv1FwuJ+71drstHqJYLP785z9fXl4W13c2MzobpPTQwixP0H8vdSef7ZE3Njbu378vCuI41j2zukft5cuXuluz2Ww2m01RUKlUtra2RMFJwc9swAjCDBhBmAEjCDNgBGEGjCDMgBGEGTCCMANGEGbACK8tXX04O4dardbKyoqegOW8iG631B1stVptZ2dHt6mNj4+ntYv+uMIsfWziqLPBS198c3NzZ2dHFDh3PJ2YmDh79qw4Xb+MKysrt27dEgXOjXt1B9jBwYFu8NIzzIIg0KefIN0d6Kfpt7Ddbvs32Yl2S+fAwE6nU6vV9LC4sbEx537xPln1b4/f29vb2NgQBc1ms9VqiYIoimZmZtKOtttt3Yy5tbX16NEjUeAUhqF4kY+k+dwGfmYDRhBmwAjCDBhBmAEjCDNgBGEGjCDMgBGEGTCCMANG9LID7BiIVsEwDJvNpmixqtVqN2/efPr0qbj+5cuX9fbIOzs7uodseXn54sWLokCrVCr6+l9++eXf/vY3UdBqtXQH2NTUlNh09sKFC9PT0+L0zc1Nz315gwyjIz159sz2CfthFkedb9Lt27dXVlZEQbVa1bfy2tpapVIRBSMjIz5hfvXqlb7+zZs3P//8c1HQarV0P+bY2Njk5GTa0Y8++uj69evidL28jPQ+3v7X18IwPBF55mc2YARhBowgzIARhBkwgjADRhBmwAjCDBhBmAEjCDNgRF93gHW78yZJEtE/FMfx2tqaHioYx3G5XBYFW1tb+/v7omBhYSGtvyoMw8XFxZGREXH6o0ePdI/a+vq6c3ilfpEbjYbo4rp9+/azZ8/E6Xp5x8B5Fx1DD9nx6Nmo3Yy62jSrBzsmSeIcK/n48WM9ardWq+ksnTlzZmxs7LWHoiiamJgYHh4Wp3///fd///vfRcHa2prnKFk9otQ5QTXLe+QZJ/+bxEZvNj+zASMIM2AEYQaMIMyAEYQZMIIwA0YQZsAIwgwYQZgBI/q6nbPnnJ1JcRzr9iDdMXpYkNahFUVRp9PRp589e/bSpUui4MGDB71tbzqSZknPp+Bcw0np8dL6d7P1LDxvFP+boNls6otEUaR3Y4/jOK1ZMooi52fB1atXT58+LQr+9a9/+d/KPu9UGIbOKDp7p8Vr6Owt91/AScHPbMAIwgwYQZgBIwgzYARhBowgzIARhBkwgjADRvg2jfS2u6jn18/SdqKbRr777rvd3d3XHsrlcufPn280GuL04eHh8fFxUXD58uXLly+Lgq2tre3tbVEQyHc5y1vg35zjsz+zs28nSZJ2u/3G1+8fXmE2M9YwzZH0qOlX6enTp2n7uedyuR9++EEP9PvpT3965swZUTA/Pz8/Py8Kms2mDnOWDqo3Pprx+p4taLlcTtfYCDM/swEjCDNgBGEGjCDMgBGEGTCCMANGEGbACMIMGEGYASO8OsBsTE7qKp8JVWEY3rp1K60/7NDo6KjewPnq1at6hY8ePdI719ZqtZ2dnbSjq6urzgayI+mK1QVCkiRxHOuCN754X+nuQL+Tvu2t/yg8540iOofb7fatW7dKpZI4/f33379w4YIoWF5e1r3ZzjC/ePFidXU17Wi1Wn358qU4PchwG+hXSfe3Z/mk0GE2g5/ZgBGEGTCCMANGEGbACMIMGEGYASMIM2AEYQaMIMyAEd3tABPbC/d/+9eRyNKHmNb/FIZhrVbT3Ut3797V0+ouXLhw9uxZUTA9PV0oFETB7OzsT37yk7SjjUZDjxzc2NjQ/Z6tVitth+qM2J/5UNf3Z/acq3iEK3kD/ndJlttIPMre3p4eE/v111/fv39fFPzud79bWFgQBQsLC1euXBEFSZKIdst8Pj8zMyNO/+abbw4ODkRBtVp1hlm8RJ7bO+uL/79qeo6f2YARhBkwgjADRhBmwAjCDBhBmAEjCDNgBGEGjCDMgBGqA+wtaYLzIfpVfyzwvL4edre9va0L7ty5o/ufFhYWRLdmEASlUkkMAJ2bm2u1WuL0RqOhV/if//znyZMnoqDdbuuHcPLcQfqk3OcqzPomCDLMkfV0Il5Ez0Xqrcadm4A/fPhQFzx//vzPf/6zKPjwww9//etfi4L5+Xkx3/O999579913xemLi4uXLl0SBbdu3drf3xcFtVqtUqmkHe32Xu0nCD+zASMIM2AEYQaMIMyAEYQZMIIwA0YQZsAIwgwYQZgBI1QHWJa+mZ7vwNzzBfjr6lNoNBp7e3ui4NmzZ99++60o2N3dFY1oMzMzY2Nj4vRyuTw7OysKlpaW1tfXRcHz58/Fbu9Ob09Xsgpzlo3CfR7b/0V0tvIdyaN0VRRFYlZuHMee69/e3taTbtfX17/88ktRsLi4eP369bSjv//973/1q1+J069cuaKnf16/fv2DDz4QBV988cW///3vtKNZpnPqmyQMQxvt2V0ftYvect6FSZLoDvB2uy0KnNd3fuLncjk9+tvzO+PtwcsEGEGYASMIM2AEYQaMIMyAEYQZMIIwA0b0cqDfkVy/t3/Nz7LprHOanM9fcf13vY3juNFoiIKNjQ3xl95KpeJsLtKLHBkZ0ZvOzs/Pz83NiQXoEWJONjpGAs8wO99FzdkM4P8q6+6fY2hBc75Enq9h4J3nOI717Mt6vf78+fO0o87xoE7lcnl8fFwUnDt3bnFxMe1oHMeeYQ5OTlw1fmYDRhBmwAjCDBhBmAEjCDNgBGEGjCDMgBGEGTCCMANGeA30y9LCJS7i36vY88Yd/5mH+iL+7aLDw8PFYlEUjI2N6Yl8pVJpeHg47ejc3Jwe+uN0cHCg+0m3t7dfvHiRdrTRaOj78O3Z0tUrzPl8Xt9teh6d/4dFlov4tHNmyaG+SBRFnv2enpsPj4+PT05OioKrV68uLy+LgsnJSdEafePGjUKhoFcojgZBUKlURLtoEARPnjx58OBB2tEoivR9kiSJ54sc9MHXRhb8zAaMIMyAEYQZMIIwA0YQZsAIwgwYQZgBIwgzYARhBozwHejX8+2Ru90s6fnoegFOg4ODullyampqaGhIFJw7d25mZkYXLC0tiYJyuXz69Om0o8ViUW8i6dRqtXQ7p543GBzLDNMTQYXZ2U2ZJInP1rj+UfdcobOp2PMJBn6NwWEYTk5O6qx+9NFHFy9eFAXXrl0Toy2DICiXy7o3W4vjuNlsvvHpQRBUq9WXL1/qAvEiZ2nVtNGt6cTPbMAIwgwYQZgBIwgzYARhBowgzIARhBkwgjADRhBmwAivgX7d1ul0utcuGobhkczW1HK5nL7C0NDQ4OBg2kOfP39et2fNzc1NTU2JgtHRUT1wz3O2ZrPZ1B1gu7u7ev/k1dVVMa8vCIL19fU3XFw2Pb/Pj4oKs/8+4IFfGPyHpIZhKFo+nU8wy2xNfZHR0dG0rB66du3apUuX0h79448/np+fF6c7+z0LhYKOaxiG+inodsjt7W3djPmXv/zlm2++EQUPHz789ttvRYGe8ZrlBjuSO7n/qTDDn7MxOJ/Pp31zRlE0NDSks1osFp1fvM6x0uKoU5Ik+j+0aDabtVpNFNRqNV3gycwXrxP/ZgaMIMyAEYQZMIIwA0YQZsAIwgwYQZgBI7r+d2afP/cfyV8IfUZwFQoF/UfakZGRgYEBUfCzn/1Md31cvHgxbUZXGIazs7Plclmc7lxhFEW6aWR3d3dvb08UbG1tPXv2LO3o/fv3xebJhwWPHz8WBdvb2+Jo4HoHnW2Cbw+v6ZxOOsnO6zs7Lrv9cVAsFvN59RLNz8/rsH3yySfvv/++KDhz5ozeP1lrt9v6OeZyOWeYnzx5Igr++c9/fvXVV2lH79y5s7a2Jk4/hr3Oj2E654noPOFnNmAEYQaMIMyAEYQZMIIwA0YQZsAIwgwYQZgBIwgzYETPxgZlbAzy7N3J5/NpVyiVSpcvXy4Wi2nnRlE0NTWlh/LMzc2NjIyIgqWlJT2Rr1AoiAlVzqe/v79/cHAgCjY3N1+9eiUKVldXV1dXRcHKyopo5+zqxJ9Dzo2Be95h1ie8wuw/PkoXZJmnp9dQLBbTeqenp6f/8Ic/TE9Pp52by+XOnz+vR3CdPn26VCqJgnw+r3un2+22mKHlDPPz58/1PL0vvvji9u3bouDx48e6d7rVaon5m1k+bT27bsMwFE21+gXMcn0z+JkNGEGYASMIM2AEYQaMIMyAEYQZMIIwA0YQZsAIwgwY4dUB1tV5elEUDQ8Pi2F0YRhOTU2JfswgCCYmJtI6tCYmJmZmZiYmJsQChoaG9PWdPWrOZkO9KezW1laj0RCn37t3T29f/PjxYz3+slqt6g6qfmiWFC+Rf1Owmf4wr83WnTuJ69mRzr1OFxcXxebGURT99re/TZtTe+j8+fNpcc3lcqdOndLDN52fVrpVMwiCTqejo9Jut+M4fu2hJEm+/vprPfvy888//+6770RBs9lMu/6PK/TZn/kYkuDcBFvLMgfWRp77fX9m8TaEYeicI5vL5dLierhxsX6bez6Q2Xkfi8+CH6/gnDut18Bg6pOCfzMDRhBmwAjCDBhBmAEjCDNgBGEGjCDMgBGEGTCif5tGoigaGRkRsy+jKCqXy3p75FKpJJpGnL0QzWZT91TU63XPXshXr17t7++/9lCSJE+fPtVbmdfrdd1VYqO3CVl4hdlzeqY+t1AovPPOO3p65gcffKDbOXUrn15/kiSbm5u6Nfru3btbW1uiwNnC9de//vXOnTuvPdTpdCqVip6kW6/XdQdYkGH2pe1ux2OYxdsn+vebOQzDYrEoBtlGUVQqlfSkW5/m8CBDs2S9Xq9Wq/oKOsyVSkV891arVWdntTiaBd2aZvBvZsAIwgwYQZgBIwgzYARhBowgzIARhBkwgjADRvRyf2bnxavV6t7eXlpBFEUvXrzQm6H7NI0kSbKxsaE7wHZ2dnZ3d/VFdNPIwcGB5+hJT3SMmOE1m9Jzk2t9l1er1T/+8Y9pW6Uf+uyzz3SY9RqcE1jjONZPoVartVotvQCtWq3WarW0o85xfM73KEur5lvS7Whe/34zt9ttPfA5CAI9Mtpflkm6nmHr+XcvSTaDfzMDRhBmwAjCDBhBmAEjCDNgBGEGjCDMgBG9HBuU5a+4ngWef2LNMlLHs4PqGFaIt4TX/sw+Djdk9dne+ZAuECP7Dvcl9ry+cxqe8yGiKBIfav6vQBb90NkCf/zMBowgzIARhBkwgjADRhBmwAjCDBhBmAEjCDNgBGEGjPBq5/TsHHIe9W9+OobWJc+W0ixX6K0+Xx5+5BvmN25mPByX5/PoWeiZgc71+39YZNnCWiwyDENnB7t22LXqcwWcFPzMBowgzIARhBkwgjADRhBmwAjCDBhBmAEjCDNgBGEGjCDMgBE9m84J4GjxzQwYQZgBIwgzYARhBowgzIARhBkwgjADRuSDIPjNb37T62UAeFOtjcP//S9PrKbiyemNHQAAAABJRU5ErkJggg==;" vertex="1" parent="1">
          <mxGeometry x="313.07" y="303.1" width="30" height="29.9" as="geometry" />
        </mxCell>
        <mxCell id="PE0mwfs7S3fnOxnz0N8g-154" value="" style="shape=image;verticalLabelPosition=bottom;labelBackgroundColor=default;verticalAlign=top;aspect=fixed;imageAspect=0;image=data:image/png,iVBORw0KGgoAAAANSUhEUgAAAUQAAAFDCAIAAADNjeApAAAWD0lEQVR4nO3dS28b59nG8ZkhRVInSrIlWdahsnyW7fQANAnS5ZsCAYK3yKKL7rrpF8g3C9JuukgCBF24bhu3NhA3sR3Lsuxa1sGUJfEgcjjsQniz8lzPvH5Ekbr9/21aYO4ZPiTnImnozv2EQTQUADj58kEQBAPTvV4GAD+tjfz/fvw/f/rTn3q9EABvKCwtHf6fqLfrAHBUCDNgBGEGjCDMgBGEGTCCMANGEGbACMIMGEGYASPy4lgYhp5Xj6Io7SKdTidJEs/re66w0+n4L0CvodPp+DyK8wn6P4VuP0qW96ir18/yHvnfil2V8fXhmxkwgjADRhBmwAjCDBhBmAEjCDNgBGEGjCDMgBGEGTCiux1gnv1PRyJtAWEYRpHjsyxLY5B+gp5P33m68ylkeQu6+h45L+7s0ArkrdjzJ9g/VJj99fxFFAvodDrOJIRh2NWs+nMmIUmSni/SyTPM+tz+f/pHhZ/ZgBGEGTCCMANGEGbACMIMGEGYASMIM2AEYQaMIMyAEb4dYN1rr8nn82fPni0UCp7XSVthHMfr6+utVkucm6W/Sj+657g5Z/9WkiTOaXWe8/r0Cv0bsPqhQ8v5Gh7bSnx4hbmrTzKXy83MzIyMjHRpAfV6fXNzs9lsihpnmJ39noHrRomiSHSVOhuPnQVZZlOKoz9exFnj8xA+7+MxJC3Lu9wP+JkNGEGYASMIM2AEYQaMIMyAEYQZMIIwA0Z0d2yQ5vwT7jEsoOdrAI6KCrNnO4RWKpUWFxfz+dQFRFFUKBR0i5WzQSqXy6UtslgsXrt2rd1ui4s/fPiwVquJ64s9azOusN1ui+d4JFuN+r+PYhlH8nnn06N2JAs4ET0hTl7fzD7vQS6XK5fLulsziiLP/ifRzBhF0djYmDg3juN8Pu/sr9JTAbPM0+v5neS5xXTPf7/0fJvuPsG/mQEjCDNgBGEGjCDMgBGEGTCCMANGEGbACMIMGEGYASO89md2ts6Mj48Xi8XXHioWi84dVZ2y7E6sGzbFuUmSzMzMnDp1StRsbm7W63W9AL3CY+DZ4BXI1znL6V2dKOg83akf3qMj4RVmZ+dwqVQaHh5+/QPn8/5hdr7NuvNZ63Q6o6Oj+vRKpdLnt0KWJHhO5+ztRMEsnyZvCX5mA0YQZsAIwgwYQZgBIwgzYARhBowgzIARhBkwgjADRnR3Omc+nx8YGEg7lMvldBOYf2ePHriXpc1Qd4A5N/vs6oTTIAiKxWIul9ML8OzQmpubu3jxor6COFoul/W+vN9///3du3dFwcLCwi9+8Yu0o4uLi9PT0+L0JEn0m/jkyZN79+6JgvX19Tt37oiCPtHdMEdRlHarHSbZf7SlpleoY3C4AL3CI9m51yfPAwMDesKps6FVvEeHZmdnf/nLX4rT9fpnZmYmJydFwcDAwA8//CAKlpaWPvzww7Sj77333pUrV8TpcRyL/vwgCP7xj38MDQ2Jgnv37p2IMPMzGzCCMANGEGbACMIMGEGYASMIM2AEYQaMIMyAEYQZMMJrf2an3d3dRqPx2kPFYrFUKonN1oMM3UVZRg6m9T9lGTS3v78fx7GoGRwcPH36tCgYHx8fHBwUBadOnSqXy2krHBgY0C1o586dm5iYEAXOdk5nH9709PTCwkLaUedgRufrfOPGjbSb5NDy8vI777yTdnR0dLRWq4nT9/b29vb2RMHa2tra2poo2N7eFkf7R3fD/OrVq7Q3cnBwcHJyUtxnYRgWCgXP1uUkSdJa+cL/I87d398/ODgQ1xfjRw+dO3dOp31paUlEZXh4WH/evfvuu/Pz86LAmSVngXgNgyAoFAq6G3Rzc/Ply5ei4MaNG/olWlxcFGGu1+t62vH29vaLFy9EgZkw8zMbMIIwA0YQZsAIwgwYQZgBIwgzYARhBowgzIARXlu6BhnmhKUVNBqNlZUV0TyUz+eXlpZKpZK4uJ7tFMiJgkmSNBoNMR+rWCx++umns7Oz4vrODq1yuayfwuDgoChw9sCdOnXKc6Cf546qzhljt2/fvnnzpiio1+vValUUDA0NffXVV2lHd3Z29OnValUXPH369MGDB6JANw71j+7uzyxulHa7vbu7K84tFArOrDrv1FwuJ+71drstHqJYLP785z9fXl4W13c2MzobpPTQwixP0H8vdSef7ZE3Njbu378vCuI41j2zukft5cuXuluz2Ww2m01RUKlUtra2RMFJwc9swAjCDBhBmAEjCDNgBGEGjCDMgBGEGTCCMANGEGbACK8tXX04O4dardbKyoqegOW8iG631B1stVptZ2dHt6mNj4+ntYv+uMIsfWziqLPBS198c3NzZ2dHFDh3PJ2YmDh79qw4Xb+MKysrt27dEgXOjXt1B9jBwYFu8NIzzIIg0KefIN0d6Kfpt7Ddbvs32Yl2S+fAwE6nU6vV9LC4sbEx537xPln1b4/f29vb2NgQBc1ms9VqiYIoimZmZtKOtttt3Yy5tbX16NEjUeAUhqF4kY+k+dwGfmYDRhBmwAjCDBhBmAEjCDNgBGEGjCDMgBGEGTCCMANG9LID7BiIVsEwDJvNpmixqtVqN2/efPr0qbj+5cuX9fbIOzs7uodseXn54sWLokCrVCr6+l9++eXf/vY3UdBqtXQH2NTUlNh09sKFC9PT0+L0zc1Nz315gwyjIz159sz2CfthFkedb9Lt27dXVlZEQbVa1bfy2tpapVIRBSMjIz5hfvXqlb7+zZs3P//8c1HQarV0P+bY2Njk5GTa0Y8++uj69evidL28jPQ+3v7X18IwPBF55mc2YARhBowgzIARhBkwgjADRhBmwAjCDBhBmAEjCDNgRF93gHW78yZJEtE/FMfx2tqaHioYx3G5XBYFW1tb+/v7omBhYSGtvyoMw8XFxZGREXH6o0ePdI/a+vq6c3ilfpEbjYbo4rp9+/azZ8/E6Xp5x8B5Fx1DD9nx6Nmo3Yy62jSrBzsmSeIcK/n48WM9ardWq+ksnTlzZmxs7LWHoiiamJgYHh4Wp3///fd///vfRcHa2prnKFk9otQ5QTXLe+QZJ/+bxEZvNj+zASMIM2AEYQaMIMyAEYQZMIIwA0YQZsAIwgwYQZgBI/q6nbPnnJ1JcRzr9iDdMXpYkNahFUVRp9PRp589e/bSpUui4MGDB71tbzqSZknPp+Bcw0np8dL6d7P1LDxvFP+boNls6otEUaR3Y4/jOK1ZMooi52fB1atXT58+LQr+9a9/+d/KPu9UGIbOKDp7p8Vr6Owt91/AScHPbMAIwgwYQZgBIwgzYARhBowgzIARhBkwgjADRvg2jfS2u6jn18/SdqKbRr777rvd3d3XHsrlcufPn280GuL04eHh8fFxUXD58uXLly+Lgq2tre3tbVEQyHc5y1vg35zjsz+zs28nSZJ2u/3G1+8fXmE2M9YwzZH0qOlX6enTp2n7uedyuR9++EEP9PvpT3965swZUTA/Pz8/Py8Kms2mDnOWDqo3Pprx+p4taLlcTtfYCDM/swEjCDNgBGEGjCDMgBGEGTCCMANGEGbACMIMGEGYASO8OsBsTE7qKp8JVWEY3rp1K60/7NDo6KjewPnq1at6hY8ePdI719ZqtZ2dnbSjq6urzgayI+mK1QVCkiRxHOuCN754X+nuQL+Tvu2t/yg8540iOofb7fatW7dKpZI4/f33379w4YIoWF5e1r3ZzjC/ePFidXU17Wi1Wn358qU4PchwG+hXSfe3Z/mk0GE2g5/ZgBGEGTCCMANGEGbACMIMGEGYASMIM2AEYQaMIMyAEd3tABPbC/d/+9eRyNKHmNb/FIZhrVbT3Ut3797V0+ouXLhw9uxZUTA9PV0oFETB7OzsT37yk7SjjUZDjxzc2NjQ/Z6tVitth+qM2J/5UNf3Z/acq3iEK3kD/ndJlttIPMre3p4eE/v111/fv39fFPzud79bWFgQBQsLC1euXBEFSZKIdst8Pj8zMyNO/+abbw4ODkRBtVp1hlm8RJ7bO+uL/79qeo6f2YARhBkwgjADRhBmwAjCDBhBmAEjCDNgBGEGjCDMgBGqA+wtaYLzIfpVfyzwvL4edre9va0L7ty5o/ufFhYWRLdmEASlUkkMAJ2bm2u1WuL0RqOhV/if//znyZMnoqDdbuuHcPLcQfqk3OcqzPomCDLMkfV0Il5Ez0Xqrcadm4A/fPhQFzx//vzPf/6zKPjwww9//etfi4L5+Xkx3/O999579913xemLi4uXLl0SBbdu3drf3xcFtVqtUqmkHe32Xu0nCD+zASMIM2AEYQaMIMyAEYQZMIIwA0YQZsAIwgwYQZgBI1QHWJa+mZ7vwNzzBfjr6lNoNBp7e3ui4NmzZ99++60o2N3dFY1oMzMzY2Nj4vRyuTw7OysKlpaW1tfXRcHz58/Fbu9Ob09Xsgpzlo3CfR7b/0V0tvIdyaN0VRRFYlZuHMee69/e3taTbtfX17/88ktRsLi4eP369bSjv//973/1q1+J069cuaKnf16/fv2DDz4QBV988cW///3vtKNZpnPqmyQMQxvt2V0ftYvect6FSZLoDvB2uy0KnNd3fuLncjk9+tvzO+PtwcsEGEGYASMIM2AEYQaMIMyAEYQZMIIwA0b0cqDfkVy/t3/Nz7LprHOanM9fcf13vY3juNFoiIKNjQ3xl95KpeJsLtKLHBkZ0ZvOzs/Pz83NiQXoEWJONjpGAs8wO99FzdkM4P8q6+6fY2hBc75Enq9h4J3nOI717Mt6vf78+fO0o87xoE7lcnl8fFwUnDt3bnFxMe1oHMeeYQ5OTlw1fmYDRhBmwAjCDBhBmAEjCDNgBGEGjCDMgBGEGTCCMANGeA30y9LCJS7i36vY88Yd/5mH+iL+7aLDw8PFYlEUjI2N6Yl8pVJpeHg47ejc3Jwe+uN0cHCg+0m3t7dfvHiRdrTRaOj78O3Z0tUrzPl8Xt9teh6d/4dFlov4tHNmyaG+SBRFnv2enpsPj4+PT05OioKrV68uLy+LgsnJSdEafePGjUKhoFcojgZBUKlURLtoEARPnjx58OBB2tEoivR9kiSJ54sc9MHXRhb8zAaMIMyAEYQZMIIwA0YQZsAIwgwYQZgBIwgzYARhBozwHejX8+2Ru90s6fnoegFOg4ODullyampqaGhIFJw7d25mZkYXLC0tiYJyuXz69Om0o8ViUW8i6dRqtXQ7p543GBzLDNMTQYXZ2U2ZJInP1rj+UfdcobOp2PMJBn6NwWEYTk5O6qx+9NFHFy9eFAXXrl0Toy2DICiXy7o3W4vjuNlsvvHpQRBUq9WXL1/qAvEiZ2nVtNGt6cTPbMAIwgwYQZgBIwgzYARhBowgzIARhBkwgjADRhBmwAivgX7d1ul0utcuGobhkczW1HK5nL7C0NDQ4OBg2kOfP39et2fNzc1NTU2JgtHRUT1wz3O2ZrPZ1B1gu7u7ev/k1dVVMa8vCIL19fU3XFw2Pb/Pj4oKs/8+4IFfGPyHpIZhKFo+nU8wy2xNfZHR0dG0rB66du3apUuX0h79448/np+fF6c7+z0LhYKOaxiG+inodsjt7W3djPmXv/zlm2++EQUPHz789ttvRYGe8ZrlBjuSO7n/qTDDn7MxOJ/Pp31zRlE0NDSks1osFp1fvM6x0uKoU5Ik+j+0aDabtVpNFNRqNV3gycwXrxP/ZgaMIMyAEYQZMIIwA0YQZsAIwgwYQZgBI7r+d2afP/cfyV8IfUZwFQoF/UfakZGRgYEBUfCzn/1Md31cvHgxbUZXGIazs7Plclmc7lxhFEW6aWR3d3dvb08UbG1tPXv2LO3o/fv3xebJhwWPHz8WBdvb2+Jo4HoHnW2Cbw+v6ZxOOsnO6zs7Lrv9cVAsFvN59RLNz8/rsH3yySfvv/++KDhz5ozeP1lrt9v6OeZyOWeYnzx5Igr++c9/fvXVV2lH79y5s7a2Jk4/hr3Oj2E654noPOFnNmAEYQaMIMyAEYQZMIIwA0YQZsAIwgwYQZgBIwgzYETPxgZlbAzy7N3J5/NpVyiVSpcvXy4Wi2nnRlE0NTWlh/LMzc2NjIyIgqWlJT2Rr1AoiAlVzqe/v79/cHAgCjY3N1+9eiUKVldXV1dXRcHKyopo5+zqxJ9Dzo2Be95h1ie8wuw/PkoXZJmnp9dQLBbTeqenp6f/8Ic/TE9Pp52by+XOnz+vR3CdPn26VCqJgnw+r3un2+22mKHlDPPz58/1PL0vvvji9u3bouDx48e6d7rVaon5m1k+bT27bsMwFE21+gXMcn0z+JkNGEGYASMIM2AEYQaMIMyAEYQZMIIwA0YQZsAIwgwY4dUB1tV5elEUDQ8Pi2F0YRhOTU2JfswgCCYmJtI6tCYmJmZmZiYmJsQChoaG9PWdPWrOZkO9KezW1laj0RCn37t3T29f/PjxYz3+slqt6g6qfmiWFC+Rf1Owmf4wr83WnTuJ69mRzr1OFxcXxebGURT99re/TZtTe+j8+fNpcc3lcqdOndLDN52fVrpVMwiCTqejo9Jut+M4fu2hJEm+/vprPfvy888//+6770RBs9lMu/6PK/TZn/kYkuDcBFvLMgfWRp77fX9m8TaEYeicI5vL5dLierhxsX6bez6Q2Xkfi8+CH6/gnDut18Bg6pOCfzMDRhBmwAjCDBhBmAEjCDNgBGEGjCDMgBGEGTCif5tGoigaGRkRsy+jKCqXy3p75FKpJJpGnL0QzWZT91TU63XPXshXr17t7++/9lCSJE+fPtVbmdfrdd1VYqO3CVl4hdlzeqY+t1AovPPOO3p65gcffKDbOXUrn15/kiSbm5u6Nfru3btbW1uiwNnC9de//vXOnTuvPdTpdCqVip6kW6/XdQdYkGH2pe1ux2OYxdsn+vebOQzDYrEoBtlGUVQqlfSkW5/m8CBDs2S9Xq9Wq/oKOsyVSkV891arVWdntTiaBd2aZvBvZsAIwgwYQZgBIwgzYARhBowgzIARhBkwgjADRvRyf2bnxavV6t7eXlpBFEUvXrzQm6H7NI0kSbKxsaE7wHZ2dnZ3d/VFdNPIwcGB5+hJT3SMmOE1m9Jzk2t9l1er1T/+8Y9pW6Uf+uyzz3SY9RqcE1jjONZPoVartVotvQCtWq3WarW0o85xfM73KEur5lvS7Whe/34zt9ttPfA5CAI9Mtpflkm6nmHr+XcvSTaDfzMDRhBmwAjCDBhBmAEjCDNgBGEGjCDMgBG9HBuU5a+4ngWef2LNMlLHs4PqGFaIt4TX/sw+Djdk9dne+ZAuECP7Dvcl9ry+cxqe8yGiKBIfav6vQBb90NkCf/zMBowgzIARhBkwgjADRhBmwAjCDBhBmAEjCDNgBGEGjPBq5/TsHHIe9W9+OobWJc+W0ixX6K0+Xx5+5BvmN25mPByX5/PoWeiZgc71+39YZNnCWiwyDENnB7t22LXqcwWcFPzMBowgzIARhBkwgjADRhBmwAjCDBhBmAEjCDNgBGEGjCDMgBE9m84J4GjxzQwYQZgBIwgzYARhBowgzIARhBkwgjADRuSDIPjNb37T62UAeFOtjcP//S9PrKbiyemNHQAAAABJRU5ErkJggg==;" vertex="1" parent="1">
          <mxGeometry x="348" y="303.1" width="30" height="29.9" as="geometry" />
        </mxCell>
        <mxCell id="PE0mwfs7S3fnOxnz0N8g-155" value="&lt;b&gt;&lt;i&gt;Label 5 samples&lt;/i&gt;&lt;/b&gt;" style="text;html=1;align=center;verticalAlign=middle;whiteSpace=wrap;rounded=0;" vertex="1" parent="1">
          <mxGeometry x="156.28" y="278" width="120" height="65" as="geometry" />
        </mxCell>
        <mxCell id="PE0mwfs7S3fnOxnz0N8g-156" value="" style="shape=image;verticalLabelPosition=bottom;labelBackgroundColor=default;verticalAlign=top;aspect=fixed;imageAspect=0;image=data:image/png,iVBORw0KGgoAAAANSUhEUgAAAUQAAAFDCAIAAADNjeApAAAWD0lEQVR4nO3dS28b59nG8ZkhRVInSrIlWdahsnyW7fQANAnS5ZsCAYK3yKKL7rrpF8g3C9JuukgCBF24bhu3NhA3sR3Lsuxa1sGUJfEgcjjsQniz8lzPvH5Ekbr9/21aYO4ZPiTnImnozv2EQTQUADj58kEQBAPTvV4GAD+tjfz/fvw/f/rTn3q9EABvKCwtHf6fqLfrAHBUCDNgBGEGjCDMgBGEGTCCMANGEGbACMIMGEGYASPy4lgYhp5Xj6Io7SKdTidJEs/re66w0+n4L0CvodPp+DyK8wn6P4VuP0qW96ir18/yHvnfil2V8fXhmxkwgjADRhBmwAjCDBhBmAEjCDNgBGEGjCDMgBGEGTCiux1gnv1PRyJtAWEYRpHjsyxLY5B+gp5P33m68ylkeQu6+h45L+7s0ArkrdjzJ9g/VJj99fxFFAvodDrOJIRh2NWs+nMmIUmSni/SyTPM+tz+f/pHhZ/ZgBGEGTCCMANGEGbACMIMGEGYASMIM2AEYQaMIMyAEb4dYN1rr8nn82fPni0UCp7XSVthHMfr6+utVkucm6W/Sj+657g5Z/9WkiTOaXWe8/r0Cv0bsPqhQ8v5Gh7bSnx4hbmrTzKXy83MzIyMjHRpAfV6fXNzs9lsihpnmJ39noHrRomiSHSVOhuPnQVZZlOKoz9exFnj8xA+7+MxJC3Lu9wP+JkNGEGYASMIM2AEYQaMIMyAEYQZMIIwA0Z0d2yQ5vwT7jEsoOdrAI6KCrNnO4RWKpUWFxfz+dQFRFFUKBR0i5WzQSqXy6UtslgsXrt2rd1ui4s/fPiwVquJ64s9azOusN1ui+d4JFuN+r+PYhlH8nnn06N2JAs4ET0hTl7fzD7vQS6XK5fLulsziiLP/ifRzBhF0djYmDg3juN8Pu/sr9JTAbPM0+v5neS5xXTPf7/0fJvuPsG/mQEjCDNgBGEGjCDMgBGEGTCCMANGEGbACMIMGEGYASO89md2ts6Mj48Xi8XXHioWi84dVZ2y7E6sGzbFuUmSzMzMnDp1StRsbm7W63W9AL3CY+DZ4BXI1znL6V2dKOg83akf3qMj4RVmZ+dwqVQaHh5+/QPn8/5hdr7NuvNZ63Q6o6Oj+vRKpdLnt0KWJHhO5+ztRMEsnyZvCX5mA0YQZsAIwgwYQZgBIwgzYARhBowgzIARhBkwgjADRnR3Omc+nx8YGEg7lMvldBOYf2ePHriXpc1Qd4A5N/vs6oTTIAiKxWIul9ML8OzQmpubu3jxor6COFoul/W+vN9///3du3dFwcLCwi9+8Yu0o4uLi9PT0+L0JEn0m/jkyZN79+6JgvX19Tt37oiCPtHdMEdRlHarHSbZf7SlpleoY3C4AL3CI9m51yfPAwMDesKps6FVvEeHZmdnf/nLX4rT9fpnZmYmJydFwcDAwA8//CAKlpaWPvzww7Sj77333pUrV8TpcRyL/vwgCP7xj38MDQ2Jgnv37p2IMPMzGzCCMANGEGbACMIMGEGYASMIM2AEYQaMIMyAEYQZMMJrf2an3d3dRqPx2kPFYrFUKonN1oMM3UVZRg6m9T9lGTS3v78fx7GoGRwcPH36tCgYHx8fHBwUBadOnSqXy2krHBgY0C1o586dm5iYEAXOdk5nH9709PTCwkLaUedgRufrfOPGjbSb5NDy8vI777yTdnR0dLRWq4nT9/b29vb2RMHa2tra2poo2N7eFkf7R3fD/OrVq7Q3cnBwcHJyUtxnYRgWCgXP1uUkSdJa+cL/I87d398/ODgQ1xfjRw+dO3dOp31paUlEZXh4WH/evfvuu/Pz86LAmSVngXgNgyAoFAq6G3Rzc/Ply5ei4MaNG/olWlxcFGGu1+t62vH29vaLFy9EgZkw8zMbMIIwA0YQZsAIwgwYQZgBIwgzYARhBowgzIARXlu6BhnmhKUVNBqNlZUV0TyUz+eXlpZKpZK4uJ7tFMiJgkmSNBoNMR+rWCx++umns7Oz4vrODq1yuayfwuDgoChw9sCdOnXKc6Cf546qzhljt2/fvnnzpiio1+vValUUDA0NffXVV2lHd3Z29OnValUXPH369MGDB6JANw71j+7uzyxulHa7vbu7K84tFArOrDrv1FwuJ+71drstHqJYLP785z9fXl4W13c2MzobpPTQwixP0H8vdSef7ZE3Njbu378vCuI41j2zukft5cuXuluz2Ww2m01RUKlUtra2RMFJwc9swAjCDBhBmAEjCDNgBGEGjCDMgBGEGTCCMANGEGbACK8tXX04O4dardbKyoqegOW8iG631B1stVptZ2dHt6mNj4+ntYv+uMIsfWziqLPBS198c3NzZ2dHFDh3PJ2YmDh79qw4Xb+MKysrt27dEgXOjXt1B9jBwYFu8NIzzIIg0KefIN0d6Kfpt7Ddbvs32Yl2S+fAwE6nU6vV9LC4sbEx537xPln1b4/f29vb2NgQBc1ms9VqiYIoimZmZtKOtttt3Yy5tbX16NEjUeAUhqF4kY+k+dwGfmYDRhBmwAjCDBhBmAEjCDNgBGEGjCDMgBGEGTCCMANG9LID7BiIVsEwDJvNpmixqtVqN2/efPr0qbj+5cuX9fbIOzs7uodseXn54sWLokCrVCr6+l9++eXf/vY3UdBqtXQH2NTUlNh09sKFC9PT0+L0zc1Nz315gwyjIz159sz2CfthFkedb9Lt27dXVlZEQbVa1bfy2tpapVIRBSMjIz5hfvXqlb7+zZs3P//8c1HQarV0P+bY2Njk5GTa0Y8++uj69evidL28jPQ+3v7X18IwPBF55mc2YARhBowgzIARhBkwgjADRhBmwAjCDBhBmAEjCDNgRF93gHW78yZJEtE/FMfx2tqaHioYx3G5XBYFW1tb+/v7omBhYSGtvyoMw8XFxZGREXH6o0ePdI/a+vq6c3ilfpEbjYbo4rp9+/azZ8/E6Xp5x8B5Fx1DD9nx6Nmo3Yy62jSrBzsmSeIcK/n48WM9ardWq+ksnTlzZmxs7LWHoiiamJgYHh4Wp3///fd///vfRcHa2prnKFk9otQ5QTXLe+QZJ/+bxEZvNj+zASMIM2AEYQaMIMyAEYQZMIIwA0YQZsAIwgwYQZgBI/q6nbPnnJ1JcRzr9iDdMXpYkNahFUVRp9PRp589e/bSpUui4MGDB71tbzqSZknPp+Bcw0np8dL6d7P1LDxvFP+boNls6otEUaR3Y4/jOK1ZMooi52fB1atXT58+LQr+9a9/+d/KPu9UGIbOKDp7p8Vr6Owt91/AScHPbMAIwgwYQZgBIwgzYARhBowgzIARhBkwgjADRvg2jfS2u6jn18/SdqKbRr777rvd3d3XHsrlcufPn280GuL04eHh8fFxUXD58uXLly+Lgq2tre3tbVEQyHc5y1vg35zjsz+zs28nSZJ2u/3G1+8fXmE2M9YwzZH0qOlX6enTp2n7uedyuR9++EEP9PvpT3965swZUTA/Pz8/Py8Kms2mDnOWDqo3Pprx+p4taLlcTtfYCDM/swEjCDNgBGEGjCDMgBGEGTCCMANGEGbACMIMGEGYASO8OsBsTE7qKp8JVWEY3rp1K60/7NDo6KjewPnq1at6hY8ePdI719ZqtZ2dnbSjq6urzgayI+mK1QVCkiRxHOuCN754X+nuQL+Tvu2t/yg8540iOofb7fatW7dKpZI4/f33379w4YIoWF5e1r3ZzjC/ePFidXU17Wi1Wn358qU4PchwG+hXSfe3Z/mk0GE2g5/ZgBGEGTCCMANGEGbACMIMGEGYASMIM2AEYQaMIMyAEd3tABPbC/d/+9eRyNKHmNb/FIZhrVbT3Ut3797V0+ouXLhw9uxZUTA9PV0oFETB7OzsT37yk7SjjUZDjxzc2NjQ/Z6tVitth+qM2J/5UNf3Z/acq3iEK3kD/ndJlttIPMre3p4eE/v111/fv39fFPzud79bWFgQBQsLC1euXBEFSZKIdst8Pj8zMyNO/+abbw4ODkRBtVp1hlm8RJ7bO+uL/79qeo6f2YARhBkwgjADRhBmwAjCDBhBmAEjCDNgBGEGjCDMgBGqA+wtaYLzIfpVfyzwvL4edre9va0L7ty5o/ufFhYWRLdmEASlUkkMAJ2bm2u1WuL0RqOhV/if//znyZMnoqDdbuuHcPLcQfqk3OcqzPomCDLMkfV0Il5Ez0Xqrcadm4A/fPhQFzx//vzPf/6zKPjwww9//etfi4L5+Xkx3/O999579913xemLi4uXLl0SBbdu3drf3xcFtVqtUqmkHe32Xu0nCD+zASMIM2AEYQaMIMyAEYQZMIIwA0YQZsAIwgwYQZgBI1QHWJa+mZ7vwNzzBfjr6lNoNBp7e3ui4NmzZ99++60o2N3dFY1oMzMzY2Nj4vRyuTw7OysKlpaW1tfXRcHz58/Fbu9Ob09Xsgpzlo3CfR7b/0V0tvIdyaN0VRRFYlZuHMee69/e3taTbtfX17/88ktRsLi4eP369bSjv//973/1q1+J069cuaKnf16/fv2DDz4QBV988cW///3vtKNZpnPqmyQMQxvt2V0ftYvect6FSZLoDvB2uy0KnNd3fuLncjk9+tvzO+PtwcsEGEGYASMIM2AEYQaMIMyAEYQZMIIwA0b0cqDfkVy/t3/Nz7LprHOanM9fcf13vY3juNFoiIKNjQ3xl95KpeJsLtKLHBkZ0ZvOzs/Pz83NiQXoEWJONjpGAs8wO99FzdkM4P8q6+6fY2hBc75Enq9h4J3nOI717Mt6vf78+fO0o87xoE7lcnl8fFwUnDt3bnFxMe1oHMeeYQ5OTlw1fmYDRhBmwAjCDBhBmAEjCDNgBGEGjCDMgBGEGTCCMANGeA30y9LCJS7i36vY88Yd/5mH+iL+7aLDw8PFYlEUjI2N6Yl8pVJpeHg47ejc3Jwe+uN0cHCg+0m3t7dfvHiRdrTRaOj78O3Z0tUrzPl8Xt9teh6d/4dFlov4tHNmyaG+SBRFnv2enpsPj4+PT05OioKrV68uLy+LgsnJSdEafePGjUKhoFcojgZBUKlURLtoEARPnjx58OBB2tEoivR9kiSJ54sc9MHXRhb8zAaMIMyAEYQZMIIwA0YQZsAIwgwYQZgBIwgzYARhBozwHejX8+2Ru90s6fnoegFOg4ODullyampqaGhIFJw7d25mZkYXLC0tiYJyuXz69Om0o8ViUW8i6dRqtXQ7p543GBzLDNMTQYXZ2U2ZJInP1rj+UfdcobOp2PMJBn6NwWEYTk5O6qx+9NFHFy9eFAXXrl0Toy2DICiXy7o3W4vjuNlsvvHpQRBUq9WXL1/qAvEiZ2nVtNGt6cTPbMAIwgwYQZgBIwgzYARhBowgzIARhBkwgjADRhBmwAivgX7d1ul0utcuGobhkczW1HK5nL7C0NDQ4OBg2kOfP39et2fNzc1NTU2JgtHRUT1wz3O2ZrPZ1B1gu7u7ev/k1dVVMa8vCIL19fU3XFw2Pb/Pj4oKs/8+4IFfGPyHpIZhKFo+nU8wy2xNfZHR0dG0rB66du3apUuX0h79448/np+fF6c7+z0LhYKOaxiG+inodsjt7W3djPmXv/zlm2++EQUPHz789ttvRYGe8ZrlBjuSO7n/qTDDn7MxOJ/Pp31zRlE0NDSks1osFp1fvM6x0uKoU5Ik+j+0aDabtVpNFNRqNV3gycwXrxP/ZgaMIMyAEYQZMIIwA0YQZsAIwgwYQZgBI7r+d2afP/cfyV8IfUZwFQoF/UfakZGRgYEBUfCzn/1Md31cvHgxbUZXGIazs7Plclmc7lxhFEW6aWR3d3dvb08UbG1tPXv2LO3o/fv3xebJhwWPHz8WBdvb2+Jo4HoHnW2Cbw+v6ZxOOsnO6zs7Lrv9cVAsFvN59RLNz8/rsH3yySfvv/++KDhz5ozeP1lrt9v6OeZyOWeYnzx5Igr++c9/fvXVV2lH79y5s7a2Jk4/hr3Oj2E654noPOFnNmAEYQaMIMyAEYQZMIIwA0YQZsAIwgwYQZgBIwgzYETPxgZlbAzy7N3J5/NpVyiVSpcvXy4Wi2nnRlE0NTWlh/LMzc2NjIyIgqWlJT2Rr1AoiAlVzqe/v79/cHAgCjY3N1+9eiUKVldXV1dXRcHKyopo5+zqxJ9Dzo2Be95h1ie8wuw/PkoXZJmnp9dQLBbTeqenp6f/8Ic/TE9Pp52by+XOnz+vR3CdPn26VCqJgnw+r3un2+22mKHlDPPz58/1PL0vvvji9u3bouDx48e6d7rVaon5m1k+bT27bsMwFE21+gXMcn0z+JkNGEGYASMIM2AEYQaMIMyAEYQZMIIwA0YQZsAIwgwY4dUB1tV5elEUDQ8Pi2F0YRhOTU2JfswgCCYmJtI6tCYmJmZmZiYmJsQChoaG9PWdPWrOZkO9KezW1laj0RCn37t3T29f/PjxYz3+slqt6g6qfmiWFC+Rf1Owmf4wr83WnTuJ69mRzr1OFxcXxebGURT99re/TZtTe+j8+fNpcc3lcqdOndLDN52fVrpVMwiCTqejo9Jut+M4fu2hJEm+/vprPfvy888//+6770RBs9lMu/6PK/TZn/kYkuDcBFvLMgfWRp77fX9m8TaEYeicI5vL5dLierhxsX6bez6Q2Xkfi8+CH6/gnDut18Bg6pOCfzMDRhBmwAjCDBhBmAEjCDNgBGEGjCDMgBGEGTCif5tGoigaGRkRsy+jKCqXy3p75FKpJJpGnL0QzWZT91TU63XPXshXr17t7++/9lCSJE+fPtVbmdfrdd1VYqO3CVl4hdlzeqY+t1AovPPOO3p65gcffKDbOXUrn15/kiSbm5u6Nfru3btbW1uiwNnC9de//vXOnTuvPdTpdCqVip6kW6/XdQdYkGH2pe1ux2OYxdsn+vebOQzDYrEoBtlGUVQqlfSkW5/m8CBDs2S9Xq9Wq/oKOsyVSkV891arVWdntTiaBd2aZvBvZsAIwgwYQZgBIwgzYARhBowgzIARhBkwgjADRvRyf2bnxavV6t7eXlpBFEUvXrzQm6H7NI0kSbKxsaE7wHZ2dnZ3d/VFdNPIwcGB5+hJT3SMmOE1m9Jzk2t9l1er1T/+8Y9pW6Uf+uyzz3SY9RqcE1jjONZPoVartVotvQCtWq3WarW0o85xfM73KEur5lvS7Whe/34zt9ttPfA5CAI9Mtpflkm6nmHr+XcvSTaDfzMDRhBmwAjCDBhBmAEjCDNgBGEGjCDMgBG9HBuU5a+4ngWef2LNMlLHs4PqGFaIt4TX/sw+Djdk9dne+ZAuECP7Dvcl9ry+cxqe8yGiKBIfav6vQBb90NkCf/zMBowgzIARhBkwgjADRhBmwAjCDBhBmAEjCDNgBGEGjPBq5/TsHHIe9W9+OobWJc+W0ixX6K0+Xx5+5BvmN25mPByX5/PoWeiZgc71+39YZNnCWiwyDENnB7t22LXqcwWcFPzMBowgzIARhBkwgjADRhBmwAjCDBhBmAEjCDNgBGEGjCDMgBE9m84J4GjxzQwYQZgBIwgzYARhBowgzIARhBkwgjADRuSDIPjNb37T62UAeFOtjcP//S9PrKbiyemNHQAAAABJRU5ErkJggg==;" vertex="1" parent="1">
          <mxGeometry x="300" y="488" width="30" height="29.9" as="geometry" />
        </mxCell>
        <mxCell id="PE0mwfs7S3fnOxnz0N8g-157" value="" style="shape=image;verticalLabelPosition=bottom;labelBackgroundColor=default;verticalAlign=top;aspect=fixed;imageAspect=0;image=data:image/png,iVBORw0KGgoAAAANSUhEUgAAAZYAAAGQCAYAAACNoUaLAAAYH0lEQVR4nO3dS49cZ7UG4FXVN7fd7nQ7NrFDlMQJwXFCnEgQcfEgkTKOEDoIMTqCCQLpZMKEHwBjJsAPQJkghIQEEYMIZcIlgsAgoGCTONgJvhDH7os73a7urqp9Bj49OiD4vlre6Wo/zxQvrV17195vZwu91YmJ+Sb+z/98478DAEbRiYn5JiYPRURE0zv/IR8OAOPshRdeiO6HfRAA7C2CBYBUggWAVIIFgFSCBYBUkzVDP/rRj+Lll18unmua5t//I6jU6XSq5sbhe7mXPxvj6ZlnnomvfOUr//R/qwqW1157LX74wx8Wzw2Hw5p1Y3FT1R5jDQ+Lf67b7VZdh8FgcBuOJk+n0xnpHtjt35c2751R7Pbz2Lbp6el/GSxehQGQSrAAkEqwAJBKsACQSrAAkEqwAJBKsACQSrAAkEqwAJBKsACQSrAAkEqwAJCqqoSyaZrqQsk2KYb8/9os9Kwthaw9l7Xfy263/O+rNssdP4wiyZrrVvvdavtZUvO9HOU7eSfyXywApBIsAKQSLACkEiwApBIsAKQSLACkEiwApBIsAKQSLACkEiwApBIsAKQSLACkqiqhrLXby/5G0Wbh5SjaPJdtX7s2iwI7nU7V93kwGBTPjKK2CLTN46w5j6Oo/V62Wag67loNljabdcdF24E0Dg/6ttU2N09MTBTPDYfDVs9Lt9stfnA3TVMVLLWfq+Y8jrKvJlhq79NOpzM290Emr8IASCVYAEglWABIJVgASCVYAEglWABIJVgASCVYAEglWABIJVgASCVYAEglWABIJVgASNVqu3FNy+e4NIO2Wdk+ipom2aZpYjgcFs+N0ghbo81zORwOW6/Ar9Hv9z/sQ/i3ar5bo/wkQ+1PCezl51c2/8UCQCrBAkAqwQJAKsECQCrBAkAqwQJAKsECQCrBAkAqwQJAKsECQCrBAkAqwQJAql1fQjmKcSgzrFH7uSLGo0hvt5//HW0VGdbuGnVnW0Ypk2xzH/+56mBp86aq1el0io9zlNbUGjXncZSHTE2TbNtGefjWnJva5uaaB1tNI3Lt54q4dS7bulfb/EOu2+1WB8tgMBAut5lXYQCkEiwApBIsAKQSLACkEiwApBIsAKQSLACkEiwApBIsAKQSLACkEiwApBIsAKSqKqGsLcVru/itzcLFNs/JKEWZtUWBbZU7jqKmGLLT6cTCwkLxrtprUDPz8MMPx7PPPls8FxExMzNTfE6mp6fj2LFjxbteeuml+MMf/lC861vf+lbxroceeihOnjxZPBdRV0L57rvvxksvvVS866c//Wm8/fbbxXPjrtXafHJoZs1V05LbNE11K3KpqampOHjwYPFcxK1gmZiYKJqZnp6OxcXF4l2zs7PFuyYnJ6t2HTlypCr8IuqC5ebNm1XXYHLyznzEehUGQCrBAkAqwQJAKsECQCrBAkAqwQJAKsECQCrBAkAqwQJAKsECQCrBAkCqqiKbUUoQS9WWO0a0X4LYltrzERGxf//+4vmacseIiMXFxZiamiqamZqaikOHDhXv2pkt7aqamJiIEydOFO+qvQdqrt0999wTjz/+ePFcRN056XQ6sW/fvuJdJ0+ejMFgUDQzPT0dx48fL961uLhYvGvH8vJy8ez7778fly9fLt7V6/WKZ/aC6oa0NoOl5qEW0e7NX/uwrzm+brdbvW9hYaH4fE5MTFSV6Z06daq4uG9+fj5OnTpVvCviVgliaZBNT0/H888/X7Wv5hrUfJeHw2H1Q3RycrL4OLe3t+PKlSvFu7rdbnziE58ompmcnIynn366eNfW1lZsbW0Vz0VEXL58ufiBf/78+Th79mzxrg8++KB4Zi/wKgyAVIIFgFSCBYBUggWAVIIFgFSCBYBUggWAVIIFgFSCBYBUggWAVIIFgFSCBYBU1SWUNQV8NYWLTdNUtxS3VZS5s6t0X6fTKW6ejYg4fPhwLC4uFs9FRHz/+9+P+fn5opnp6enYv39/8a6pqani78nExEQcOHCgeFdEfXlom3P9fr9qV00JaETEYDAo/l6+99578YMf/KB4140bN+LmzZvFc6+88krxzMbGRqyvrxfPRURcvXq1+Dqsrq7GW2+9VbxLu/Eu1WY4jKI2NGseTlNTU1W15hERx48fj4WFhaKZmZmZqod9v9+vCtvah2ibP+cwippzMspPJZTu297ejvfff794z/r6emxubhbP3bhxo2pXbXPw0tJScbCMEmR3Iq/CAEglWABIJVgASCVYAEglWABIJVgASCVYAEglWABIJVgASCVYAEglWABIJVgASLXrSyj3stpiwe3t7aoW2YiIra2t2N7eLpqpaWAeRW2RZO1czXXo9XpVzbVbW1vFMzMzM3Hw4MHiuYiI4XBYVUJ56dKl4l2bm5tVn6/bLf/7ttfrVd8D6+vrMRgMimZqyjXvZGMRLG0+MEbZV6PmGNfW1qrruG/cuFHVHnzXXXcVz7R9/mvnah5s165di3feead4bmNjo/g4jxw5Eo8++mjxrlqrq6vx8ssvF8+Nw/1GO7wKAyCVYAEglWABIJVgASCVYAEglWABIJVgASCVYAEglWABIJVgASCVYAEglWABINVYlFDWltvtdk3TRL/fb20uIuLFF1+M2dnZopmjR49WlSBevny5uBX22LFj8YUvfKF4147hcFj878+fP1+85+c//3n85Cc/KZ7b2toqLl1cWFiIBx54oHhXRMTp06fjnnvuKZq5cOFC1T23l8tiKTMWwbKX1dwcNVXoO86dOxczMzNFM+vr6zE3N1e8629/+1tsbGwUzfT7/VYfNE3TxNraWvHchQsX4o9//GPx3Pb2dvFxzs/Px5UrV4p3RdwK6tKwvXbtWtWuWm2GGO3wKgyAVIIFgFSCBYBUggWAVIIFgFSCBYBUggWAVIIFgFSCBYBUggWAVIIFgFS6wsbQKD1Jq6urMTU1VTQzPT0dFy9eLN515cqV6PV6RTNzc3Nx9erV4l07s6U9aE3TVPVwra2tVXeTlRoMBsXnccfly5eLd77//vtVuzqdzlh0eCm9vP2qg2UcTvI4HGONpmmqP9urr75aPDMzMxOvvPJK8dzq6mpxC/PHPvax6ibfZ555priFudfrxYsvvli86+zZs8XljhF138n19fW4cOFC8VxExPnz51u7DzqdTnS75S9Bas7jKLrdbnG4NE0Tg8HgNh3R3uNVGACpBAsAqQQLAKkECwCpBAsAqQQLAKkECwCpBAsAqQQLAKkECwCpBAsAqQQLAKnGot14HMokaxtTa7V5Tra3t2Ntba14bjgcVpX93bx5s3hXRES/3y8+L5OTk/Hcc88V79ra2oo//elPxXM1RrnWtbNtNgDXFFeOUsTadunlnWgsgmVctBUubQftcDiMra2t4rma89E0TXEj8o6aB0a3242HH364eG5xcbHV69D2Na+9dm0Fy86+Nuf4z3kVBkAqwQJAKsECQCrBAkAqwQJAKsECQCrBAkAqwQJAKsECQCrBAkAqwQJAKsECQCollOwqg8Egbty4UTW7sbERm5ubxftmZmaKd83MzFTNbW5u7voSxLabumvs9nN4p6sOltr2071qlBrv3a7T6VQ10A6Hw+JzcvHixfjud79bvCvi1kO7tN5/amoqnn322eJdFy5ciDfffLN47re//W1x+DVNU1313u12q366oGZfp9Opei4MBoPimZ19Ndr8KYG9+kz4d7wKAyCVYAEglWABIJVgASCVYAEglWABIJVgASCVYAEglWABIJVgASCVYAEglWABINWebzduq6l1L5fN1ZYS1pyT4XAYW1tbxXMREa+99lpxM/Ls7Gx8+tOfLt71yCOPxJe//OXiufvuu6+4hHJjYyOuXbtWvCsi4syZM7G8vFw1W6rNcsdR5mqPcy/f49n2dLCMQ/33uGjrpmqaJvr9ftXsmTNn4tKlS0UzBw8ejF6vV7zr/vvvj6NHjxbPzc7OFgfL0tJSnD9/vnhXRMTf//73WFpaqprdzWqblHdmhcTt5VUYAKkECwCpBAsAqQQLAKkECwCpBAsAqQQLAKkECwCpBAsAqQQLAKkECwCp9nRXGHeWpmmKO6CapqkqvRwMBlVdVZOTkzEYDIpmpqamYnp6unjXzuzU1FTRTNM0xce4MwcRIwSLL9GHZ5RyzZrr1ul0YmJioniuphF5lLmrV6/G1atXi2ampqbiG9/4RvGu559/Pv7rv/6reO6LX/xiq+WoTzzxRLz11ltFM8vLy/Gzn/2seNfq6mqsr68Xz9V8J0d5/nS73eh2y17W1DZ836m8CgMglWABIJVgASCVYAEglWABIJVgASCVYAEglWABIJVgASCVYAEglWABIJVgASDVnm43bpqm1cK/tozyuWrmOp1OVQHfOBSVDgaDOHv2bPHc/v37Y21trXjuueeei3379hXNzM3NxUc+8pHiXRERp06dinvvvbdoZnl5OZaWlop3/eUvf4l33323aKZpmqrzOOp9XdOCzX9uTwdLxN79QtR+rpqW4rabXWsfGjXnZDAYxJkzZ4rnrl27Fq+//nrx3LFjx+Kuu+4qmjl69GgcOXKkeFdExFNPPVV8XpaWlqqCpdfrxerqatFMbbBERHFD8Q4txbefV2EApBIsAKQSLACkEiwApBIsAKQSLACkEiwApBIsAKQSLACkEiwApBIsAKQSLACkqiqh7HQ6VQVwteVvbTb5Nk1TVWbY6XSq9tWck1GaXQeDQfVsW0b5fLXXrtT169djeXm5eO6FF14ovnfuu++++NSnPlW8KyLi61//epw8ebJoZmFhIb761a8W7/rsZz8bFy9eLJrp9XrxpS99qXhX0zTV3+W92Hi+2+z5dmO4HWofbBsbG8UPtvX19VhfXy/eFVH3h0S3243JyfJHw+zsbBw4cKB4F3uPqwpAKsECQCrBAkAqwQJAKsECQCrBAkAqwQJAKsECQCrBAkAqwQJAKsECQCrBAkCqqhLKURqA97Kac9K22sbntnQ6nep943D++/1+8TVYXV2Nc+fOVe3b2Ngonmmapup7Mj8/H/1+v2jm5s2bcezYseJd6+vrcePGjeK5WuPw3dpNqtuNa050bZPpOFzU2mNs+0Hf5jWo/UOi7evd5r7t7e3imX/84x9x6dKlqn3Ly8vFn6/2JyCOHDkShw4dKprp9Xrx2GOPFe969913Y21trXguYjyeJ+POqzAAUgkWAFIJFgBSCRYAUgkWAFIJFgBSCRYAUgkWAFIJFgBSCRYAUgkWAFIJFgBSVZdQ1hgOh22uGws1pZDD4bC6SK/mGnQ6narjrGnBrt1Vu29nZ6m77747Dh8+XDz3uc99LmZmZopmFhcX44EHHijeFRHxxBNPxMTERPFcaUtxRMS1a9didXW1aGZjYyN+97vfFe+qKfMcVe29eidqNVgYX222MI9DK/Lk5GTs27eveO7w4cPFc0eOHIkHH3yweFdExP79+4vPZ21Ab29vx+bmZtHM5uZmfPDBB8W7Itr9GY7aXaP8DMQ48yoMgFSCBYBUggWAVIIFgFSCBYBUggWAVIIFgFSCBYBUggWAVIIFgFSCBYBUrXaFjUMHVJvGqUeo5jhrZ2rPyczMTExOln2lJyYm4vjx48W77r333rj//vuL5x577LGYnp4umpmfn48jR44U74qImJ6errrvamb6/X70er2imc3NzVY7v2hHq8FS07LaNE11Q2jbJYg12m4/rf1sbR5n7a6FhYVYWFgompmZmYmvfe1rxbseeeSROHHiRPHcvffeW3wfjBK2nU6ntWDZ2NiIpaWlopler1ddcDouf5TdibwKAyCVYAEglWABIJVgASCVYAEglWABIJVgASCVYAEglWABIJVgASCVYAEglWABIFV1CWVNcdxgMKjaNQ5lkm0W4tUWC0bUFTx2u92qAtG5ubniuYWFhfjkJz9ZvCsi4jOf+Uw88sgjRTMTExNx6tSp4l2zs7Oxf//+4rmI8mswSuHixYsXY319vWhmZWUlXnrppeJdf/7zn+PChQtFM8PhsPUi1m637u/pto9znLXabqyNdHzVBNnU1FRxjf2BAwfiox/9aPGuiFuNw48//njRTLfbjaNHjxbvqg334XDY6n1w8+bNWFtbK5pZWlqKM2fOFO964403ioPlw1J67Ty7yngVBkAqwQJAKsECQCrBAkAqwQJAKsECQCrBAkAqwQJAKsECQCrBAkAqwQJAqla7wvj/2izKjLjV31W6c2pqKmZnZ4t3nThxIg4cOFA0c+jQoXjooYeKd0VE3H333bFv376imdpCwloffPBBce/UxsZGXL9+vWrfG2+8ESsrK0UzKysrVfs2NzeLZ9ib9nSw1BQFNk3TaotpTWvwKI2wd999d/HD9K677qoqhvzmN78ZDz74YNHM7Oxs3H///cW7Im6dy5qg2N7eLp7pdrtVu86dOxdbW1tFM2fPno1f/OIXxbsiIn7zm9/Ee++9VzxX8/2qLeasmRml8Xln/nb++zudV2EApBIsAKQSLACkEiwApBIsAKQSLACkEiwApBIsAKQSLACkEiwApBIsAKQSLACkEiwApNr17ca1LbIR9S3ANY3DNW2r3W63uOY9IuLpp5+OJ554ongu4laVfennO3jwYNxzzz3Fux599NGYm5srmpmYmKg6/zsGg0HRvx8Oh3Hu3LniPefOnYs333yzeO7VV18trpdfWVmJd955p3jXzmxNM2/tzzm02QJc+1yoPcaafaO2MI+rXR8snU6n+gs0GAyKL2pt9XeNTqcTU1NTxXMPPfRQnD59umrnU089FZOTZZd9bm4uDh8+XLyr7d86GQ6Hxdd7MBhU/fbIX//61/jVr35VPPfrX/+6OFj6/X7rv3VS+xCtURt8o4RfW8+FOzFUIrwKAyCZYAEglWABIJVgASCVYAEglWABIJVgASCVYAEglWABIJVgASCVYAEg1a7vCmu7xK3b7cbMzEzx3P79+4t7vyYmJmJxcbF41+HDh4vLHXdMTU0VlzyOUvZX2q80yvVeX1+PXq9XNNPv9+PKlSvFu65fvx7r6+vFczXFqHdq39Tt4nzeftXB0tbFqW0ornXgwIE4efJk8dznP//5OHHiRNHM9PR0VUvx4uJizM/PF89FlLf/7qgtCqwphbx582bxroiIX/7yl/HGG28UzfR6vfje975XvGtzc7P1YsgabbYU1z4Tao+x9rtco2maVveNO6/CAEglWABIJVgASCVYAEglWABIJVgASCVYAEglWABIJVgASCVYAEglWABIJVgASFVVQtnpdKoab9ssk6w1NzcXTz75ZPHck08+GR//+MeLZiYmJuLQoUPFu6anp6sL/65evVp8HVZWVuLixYvFu2qu9/Lycvz+978vnouIePvtt+Pq1atFM4PBoLgReWeuRpulkKPMtWkcjpEy1e3GtTfIbjc7OxvHjx8vnjt+/HjVXE1Aj1Itv7q6Gv1+v2jm4sWL8frrrxfv6vf7xcd56dKl+PGPf1y8K+JWbf5ubxyuuW88eBk3XoUBkEqwAJBKsACQSrAAkEqwAJBKsACQSrAAkEqwAJBKsACQSrAAkEqwAJCquitsrxoMBrGxsVE8t7KyEtevXy+a6XQ6rZcSrqysFHeFra2tVZ2Tmq6wXq+nGwvGXFWwNE1T3e5aqtvtVhU1RtwKidKH1IULF+I73/lO8a5vf/vbxTMR7ZcStl16WaPtsK3ZV/tHQVv3DXyYvAoDIJVgASCVYAEglWABIJVgASCVYAEglWABIJVgASCVYAEglWABIJVgASCVYAEglWABIFV1bX5brbxN08RwOCye45/by5X0ta3INdpsUh5lH3wYqoKltjK8NlhGuYnbrqXf7cbhs9UeY7fbbbXKvuY4JyYmqvaMw3WDHV6FAZBKsACQSrAAkEqwAJBKsACQSrAAkEqwAJBKsACQSrAAkEqwAJBKsACQSrAAkKqqhLLNxuHaIsmIaLUVeXJyMrrdspxumia2t7eLd3W73eJdO/r9ftVczTWoLQCtLVwch6JGTd3cCfwXC7tKm9X3wO0hWABIJVgASCVYAEglWABIJVgASCVYAEglWABIJVgASCVYAEglWABIJVgASFVVQnn69OnY3NzMPpZ/qbY/qs1Swm63W3Wcg8GgeGZcijlrSyjHbSfciU6fPv0v/7dOTMw3MXkoIiKa3vm2jgmAPeiFF17wKgyAXIIFgFSCBYBUggWAVIIFgFS3/l9h/+d/vvHfH+axALAH/C9Rq6hIXPy+6AAAAABJRU5ErkJggg==;" vertex="1" parent="1">
          <mxGeometry x="301.26" y="425.84" width="28.74" height="28.32" as="geometry" />
        </mxCell>
        <mxCell id="PE0mwfs7S3fnOxnz0N8g-160" value="" style="shape=image;verticalLabelPosition=bottom;labelBackgroundColor=default;verticalAlign=top;aspect=fixed;imageAspect=0;image=data:image/png,iVBORw0KGgoAAAANSUhEUgAAAEQAAABKCAIAAACNe2WVAAAMWElEQVRoge1baXIaRxvuGWZhGTaxGoE2tJUkZNlO4qiSyhVyg5wgOU2OkAvkBqk4lShyEUklR3Zka2MHIbYBZl++H69oT0BGNhBLrvreH4gZZumn3/3pFvH999+jf4tpmgghgiDQpyYUQujHH39EPQzwCdKH557D++GHHyjrsRUJHFoB9P16D4Ua8htBEPdcG31CvuuHTw4JwmBM07z/VnSrkACjTw2foloQQhQedL3euLq6qlarqAfmPqjLOqfw3TAMn88XDAaDwSBF/cvn3x5cXFzs7Oz8/vvvoCibzabrumEYfTHtIwt+NUEQJEkihBRF2dzc3N7e/vLLLzmOQ5YwS8F1mqZVq9XXr1/v7u6yLEvT9J2Dwbkbv90wDFVVBUGgaXpxcVFV1T7DudaMruvtdvvy8rJYLH799dezs7N2u13TtLs1M3g7SZIEQRiGIctyuVx+9uxZvV6XJAn14hZoDGEwcKksywih77777ttvv/V4PIZh3BGKazFNU9d1mqZJklRVtdPp7OzsHB0dkSRJ0zQ4jK7rWHvXYEiStNvtNE0rioIQoigK3OYOkYBgV4EhIYQYhqEoCnAihKyDpFCvbLHZbDab7b4FZTxWQGUNs4Zh9I2WwmYHBsowDEIIXB+m5EPdBgd0PEe3XmkNWTdedm1FFEVRlKZpmqbpuj5Y3VNDnjKywNNutdIxo8ugEQ0rNMcRPFDTNBVFURRFVVUYAUVRLMv25buJyOSfCGEUkgBBEIqitNttnudbrZamaRRFud3uUCjk8Xgm7pyTAQNOiQ/BOzudTrvdLpVK2Ww2k8mcn5+Lomi32+PxeCqVWl1dnZmZsepnfGwT0wwkJUgIPM9XKhVIwRcXF4VCIZvNnp+fC4LAsmwikajX6zzPS5IUiUS8Xi9EnfFlMmBM04RygWXZbrd7cXHxxx9/vHjx4uTkpFgsqqoqy3Kr1VIUhSTJWq1Wq9VyuVw2m/3mm29SqdQ9AgP5C3RSrVaPj4//+uuvX375JZPJVCqVVqtls9lM05QkCTJDq9XSdV0QhG636/F4OI6bm5tzOBw4Ld49GNM0eZ7PZDJ7e3t//vnnwcFBs9kURVHXdZfLxTCMzWaTZVlVVV3Xm82mLMu6ricSiXA4DCFh/Pg24v0whTg5GobR7XYLhcL+/v7Ozs7e3l6pVDIMg6IojuMCgQDHcQRBFAqFVqtF07QgCKIoXl1d/fPPP6FQaGZmxu12u1yuuwFjFdBMsVg8PDz87bffjo6OKpWKqqoMw/h8vpmZmaWlpVgs5nK5dnd3//77bzA8wzBEUcxkMg8ePADDu+NoBo1Qu92uVqsvX77c398/PDwsFAoQtSKRyPz8fCqV2tjYSCQSbrcbjO3FixeNRkMQBFmWq9VqqVQSBEHTtCEvwhXN8KJhXM3IslwsFg8ODnZ3d/f39/P5vCiKDMNMTU1tbW19/vnnT58+TSaToVCIIAi32+33+yVJevXqVbvdRggJgiAIgqIokiRJksSybJ9+MEWBv/eJ9fp3Uk1DxMoNdLvdUqmUTqdfvnxZKBQURaEoyu/3z8/Pb25uPnnyJJVKhUIhhmFYlp2enk4mk9Fo1Ov1OhwO1KsdaZrG/ck48sFg8HxAbul0OuVy+ejo6OzsrFqtapoGBra+vr6xsbG8vByNRl0uF1TvXq83Eon4/X6HwwEtF22RuwzNpmnKsszz/OXlZTabLZfLkiSRJOlwOKanp58+fbq6uhoOhxFC0F8oisKyrNPpdDgccAbr5P3VQgyI9ddRzAwqF0wvdDodSZKgeWIYxu/3x+Px+fn5cDiMoy10sqBPp9PJMAzUo4Zh6LoO7dMII+mTUcwMPqEGy+fzhUJBFEXDMGiadrvdsVhsdnY2kUh4vV5MNaBeMWqaps1mg/OAxOjJHYDBgUUQhHw+n06n9/f3W62WLMsEQYTD4cXFRXAVhmH0nkBihScoigJnrD3PRAjHUcDgWqvZbFYqlUajAd7McRzEq3g8DnTC+zxwgmzWKGCwQ/M8D8U82JjX600kEnNzc5FIxGpgE5d3sS4jvtIwDEVRBEGAFlIURZIk/X7/7OxsPB4PBAKYSZk43TOE/Ri90AQhSZKiKMMwOI7zeDxutxtyyIc+cDCdjyAjagbzVwghyH0cx/n9fr/fb7fbQS2Dw9V1XZZlqMqAwsMc340xwBoh3mdUt2vG2t/jIUKOk2VZ0zQIrC6XKxAIRKNRh8Mx+G44I0lSq9UqlUr1el0URXgOVNDvGvdgbTZkqCNqptvt8jwPfTzUKbFYLB6PB4NBSI6DYFRVrdVq5XKZ53mgneCkrutQoY3PBn+wz8D0AJhWqwVsPMuyoVAoFosFAgEws8G7FEWpVCq5XK7ZbKqqCoDB5YA+HhPJKGBAJElqt9vtdltVVYhsHMeFQiEoIjHZiwVWGfL5/Onpaa1WUxQF9ODxePx+v8vluhsw2PWB84WpRRaDvtFaAPDV1VWxWOR5XtM0m81GUVQ0Gk0kEg6Ho495G01GT22mZWWrr2FClqoHulFRFOv1erFYLJfL3W4XwAAvs7y87PP5aJoevzwbPTRD3Q5ODIPGlQEMCwMTRbFSqbx58+b8/LxSqUBtZrPZpqam1tfXHz9+HIvFnE7nYHnfl3Zvzb+jWCpkDODC8cIV1MLWDAPYNE0rl8uvXr1Kp9NnZ2eNRkNRFNM0SZJ0uVzhcDgUCoFljl8ojF7OgGA/IXsCJSYoByiyk5OTg4ODdDqdzWY7nQ4whk6nc2pqKhQK+Xw+c2ClZTQZMYbAsgSwLRADIFHgdKGqKkmSPM+fnp6m0+mdnZ3Dw8NGowEsDMdxDx48WFhYiEajHMdNqnAeEYzT6fR6vV6vF8owrBOcYVRVbbVaZ2dnz549e/78+Zs3b3ieJwgC+JdYLLa8vJxKpQKBAJrchpCxwPh8PrvdDqqAIhqKFFVV6/X62dnZ3t7er7/+enx8XKlUZFlmWZbjOK/Xu7q6urm5uba2BjY2qX7hA8BYJ4+maafT6Xa73W43y7KyLFcqlUwmk8vlaJoWRbFcLu/u7j5//vzg4KDT6UDE03Xd6XQ+fPjwq6++evz48cLCgsfjAa1+bDAgEHBJkmRZ1uPxAI3U7XZPTk5sNlutVgNsl5eXp6enFxcXnU7HMAxoTkOh0PLy8pMnTzY3N5PJJC6xJ4JkFDColwpZlg0EAqFQyO121+v1fD7f6XTOz89ZltV1vdFotFqtTqcDS38Mw9A0vbS09OjRo62trcXFxXA4DM32pJCMCAbszel0JhKJlZWVXC5XKpW63a4kScAHwKIAJEewIp/Pl0gkYPfO6upqMBhkWXaCMEBGrM10XWdZNhqNbmxs1Ov1q6urXC7H8zyuIGGpHpZjw+HwwsLCo0ePtre319bWAoEAcLMTl9HbZoqiPB7P0tISkJokSebzeUEQUI/yQwg5nc5oNJpMJtfX17/44ouNjY1YLDZxVgDLWBwAQigYDK6srHS7Xb/ff3p6ms/nwbSgRfH5fAsLC2traysrK/Pz8z6f779DgsYBA6UXMMsURc3NzdVqtUajgWsTqFmCwWA0Gg0Gg16v98YmdIIyeksEcwxLMT6fL5lMapoG/TDwrlB94lA2Psl/q4y9JNJLebD8jdt6zCnj6n38sd4q/8EGFoqiKAqM0NqrfQQ81x0vPsZv7WO133W/dYigEKwr3IFam5z3LJDfRVve0pwRvf210IHAvBK9xRMrsBsfhHlNhBBJknjJhejtdYNCBlYB3oVk8MnW1hImBbwRdI56btkPxuytt0AhKEkSz/PNZhMiz4dWgZZJsZHktc/00QM3yo0kIJ4mwzAgusBCEHRQgwN7u+EUT8Dx8THQXxjM8E4Qk454RhBCDMPgLvpWMHhC+z6RhRgBVbx+/RqYOith8hYM6BHoEohIP/30088//wxVCQxuyO5mDBibK95wiM9jA7sRjzXc9YU+PE34UJIk2DEBG/L6wcAfmqYjkcjW1laz2QQ7gcAKjAScGeIz1vcBGExxWDEMATN4iN0Mux+cf/jw4WeffTYzM+NyufrupWCgNE3H4/Ht7e1YLAaNFB7KjVs7b5S+WIzzzBAk1nv7vgAS8BDsuvBlenp6dnYW9uMAa3UNBl8XjUYDgcD6+vqgvQ7HMEQG8X/Q0/pGgr/QNA3r1QAPX/82aTIMwzDM+FuLPrJY5+s/XHn8+PJ/MPdViMF/Ov105X+9u2tIOZfyYQAAAABJRU5ErkJggg==;clipPath=inset(2.7% 1.47% 2.7% 2.94%);" vertex="1" parent="1">
          <mxGeometry x="300.43" y="391.84000000000003" width="31.57" height="34" as="geometry" />
        </mxCell>
        <mxCell id="PE0mwfs7S3fnOxnz0N8g-162" value="" style="shape=image;verticalLabelPosition=bottom;labelBackgroundColor=default;verticalAlign=top;aspect=fixed;imageAspect=0;image=data:image/png,iVBORw0KGgoAAAANSUhEUgAAAEQAAABKCAIAAACNe2WVAAAMWElEQVRoge1baXIaRxvuGWZhGTaxGoE2tJUkZNlO4qiSyhVyg5wgOU2OkAvkBqk4lShyEUklR3Zka2MHIbYBZl++H69oT0BGNhBLrvreH4gZZumn3/3pFvH999+jf4tpmgghgiDQpyYUQujHH39EPQzwCdKH557D++GHHyjrsRUJHFoB9P16D4Ua8htBEPdcG31CvuuHTw4JwmBM07z/VnSrkACjTw2foloQQhQedL3euLq6qlarqAfmPqjLOqfw3TAMn88XDAaDwSBF/cvn3x5cXFzs7Oz8/vvvoCibzabrumEYfTHtIwt+NUEQJEkihBRF2dzc3N7e/vLLLzmOQ5YwS8F1mqZVq9XXr1/v7u6yLEvT9J2Dwbkbv90wDFVVBUGgaXpxcVFV1T7DudaMruvtdvvy8rJYLH799dezs7N2u13TtLs1M3g7SZIEQRiGIctyuVx+9uxZvV6XJAn14hZoDGEwcKksywih77777ttvv/V4PIZh3BGKazFNU9d1mqZJklRVtdPp7OzsHB0dkSRJ0zQ4jK7rWHvXYEiStNvtNE0rioIQoigK3OYOkYBgV4EhIYQYhqEoCnAihKyDpFCvbLHZbDab7b4FZTxWQGUNs4Zh9I2WwmYHBsowDEIIXB+m5EPdBgd0PEe3XmkNWTdedm1FFEVRlKZpmqbpuj5Y3VNDnjKywNNutdIxo8ugEQ0rNMcRPFDTNBVFURRFVVUYAUVRLMv25buJyOSfCGEUkgBBEIqitNttnudbrZamaRRFud3uUCjk8Xgm7pyTAQNOiQ/BOzudTrvdLpVK2Ww2k8mcn5+Lomi32+PxeCqVWl1dnZmZsepnfGwT0wwkJUgIPM9XKhVIwRcXF4VCIZvNnp+fC4LAsmwikajX6zzPS5IUiUS8Xi9EnfFlMmBM04RygWXZbrd7cXHxxx9/vHjx4uTkpFgsqqoqy3Kr1VIUhSTJWq1Wq9VyuVw2m/3mm29SqdQ9AgP5C3RSrVaPj4//+uuvX375JZPJVCqVVqtls9lM05QkCTJDq9XSdV0QhG636/F4OI6bm5tzOBw4Ld49GNM0eZ7PZDJ7e3t//vnnwcFBs9kURVHXdZfLxTCMzWaTZVlVVV3Xm82mLMu6ricSiXA4DCFh/Pg24v0whTg5GobR7XYLhcL+/v7Ozs7e3l6pVDIMg6IojuMCgQDHcQRBFAqFVqtF07QgCKIoXl1d/fPPP6FQaGZmxu12u1yuuwFjFdBMsVg8PDz87bffjo6OKpWKqqoMw/h8vpmZmaWlpVgs5nK5dnd3//77bzA8wzBEUcxkMg8ePADDu+NoBo1Qu92uVqsvX77c398/PDwsFAoQtSKRyPz8fCqV2tjYSCQSbrcbjO3FixeNRkMQBFmWq9VqqVQSBEHTtCEvwhXN8KJhXM3IslwsFg8ODnZ3d/f39/P5vCiKDMNMTU1tbW19/vnnT58+TSaToVCIIAi32+33+yVJevXqVbvdRggJgiAIgqIokiRJksSybJ9+MEWBv/eJ9fp3Uk1DxMoNdLvdUqmUTqdfvnxZKBQURaEoyu/3z8/Pb25uPnnyJJVKhUIhhmFYlp2enk4mk9Fo1Ov1OhwO1KsdaZrG/ck48sFg8HxAbul0OuVy+ejo6OzsrFqtapoGBra+vr6xsbG8vByNRl0uF1TvXq83Eon4/X6HwwEtF22RuwzNpmnKsszz/OXlZTabLZfLkiSRJOlwOKanp58+fbq6uhoOhxFC0F8oisKyrNPpdDgccAbr5P3VQgyI9ddRzAwqF0wvdDodSZKgeWIYxu/3x+Px+fn5cDiMoy10sqBPp9PJMAzUo4Zh6LoO7dMII+mTUcwMPqEGy+fzhUJBFEXDMGiadrvdsVhsdnY2kUh4vV5MNaBeMWqaps1mg/OAxOjJHYDBgUUQhHw+n06n9/f3W62WLMsEQYTD4cXFRXAVhmH0nkBihScoigJnrD3PRAjHUcDgWqvZbFYqlUajAd7McRzEq3g8DnTC+zxwgmzWKGCwQ/M8D8U82JjX600kEnNzc5FIxGpgE5d3sS4jvtIwDEVRBEGAFlIURZIk/X7/7OxsPB4PBAKYSZk43TOE/Ri90AQhSZKiKMMwOI7zeDxutxtyyIc+cDCdjyAjagbzVwghyH0cx/n9fr/fb7fbQS2Dw9V1XZZlqMqAwsMc340xwBoh3mdUt2vG2t/jIUKOk2VZ0zQIrC6XKxAIRKNRh8Mx+G44I0lSq9UqlUr1el0URXgOVNDvGvdgbTZkqCNqptvt8jwPfTzUKbFYLB6PB4NBSI6DYFRVrdVq5XKZ53mgneCkrutQoY3PBn+wz8D0AJhWqwVsPMuyoVAoFosFAgEws8G7FEWpVCq5XK7ZbKqqCoDB5YA+HhPJKGBAJElqt9vtdltVVYhsHMeFQiEoIjHZiwVWGfL5/Onpaa1WUxQF9ODxePx+v8vluhsw2PWB84WpRRaDvtFaAPDV1VWxWOR5XtM0m81GUVQ0Gk0kEg6Ho495G01GT22mZWWrr2FClqoHulFRFOv1erFYLJfL3W4XwAAvs7y87PP5aJoevzwbPTRD3Q5ODIPGlQEMCwMTRbFSqbx58+b8/LxSqUBtZrPZpqam1tfXHz9+HIvFnE7nYHnfl3Zvzb+jWCpkDODC8cIV1MLWDAPYNE0rl8uvXr1Kp9NnZ2eNRkNRFNM0SZJ0uVzhcDgUCoFljl8ojF7OgGA/IXsCJSYoByiyk5OTg4ODdDqdzWY7nQ4whk6nc2pqKhQK+Xw+c2ClZTQZMYbAsgSwLRADIFHgdKGqKkmSPM+fnp6m0+mdnZ3Dw8NGowEsDMdxDx48WFhYiEajHMdNqnAeEYzT6fR6vV6vF8owrBOcYVRVbbVaZ2dnz549e/78+Zs3b3ieJwgC+JdYLLa8vJxKpQKBAJrchpCxwPh8PrvdDqqAIhqKFFVV6/X62dnZ3t7er7/+enx8XKlUZFlmWZbjOK/Xu7q6urm5uba2BjY2qX7hA8BYJ4+maafT6Xa73W43y7KyLFcqlUwmk8vlaJoWRbFcLu/u7j5//vzg4KDT6UDE03Xd6XQ+fPjwq6++evz48cLCgsfjAa1+bDAgEHBJkmRZ1uPxAI3U7XZPTk5sNlutVgNsl5eXp6enFxcXnU7HMAxoTkOh0PLy8pMnTzY3N5PJJC6xJ4JkFDColwpZlg0EAqFQyO121+v1fD7f6XTOz89ZltV1vdFotFqtTqcDS38Mw9A0vbS09OjRo62trcXFxXA4DM32pJCMCAbszel0JhKJlZWVXC5XKpW63a4kScAHwKIAJEewIp/Pl0gkYPfO6upqMBhkWXaCMEBGrM10XWdZNhqNbmxs1Ov1q6urXC7H8zyuIGGpHpZjw+HwwsLCo0ePtre319bWAoEAcLMTl9HbZoqiPB7P0tISkJokSebzeUEQUI/yQwg5nc5oNJpMJtfX17/44ouNjY1YLDZxVgDLWBwAQigYDK6srHS7Xb/ff3p6ms/nwbSgRfH5fAsLC2traysrK/Pz8z6f779DgsYBA6UXMMsURc3NzdVqtUajgWsTqFmCwWA0Gg0Gg16v98YmdIIyeksEcwxLMT6fL5lMapoG/TDwrlB94lA2Psl/q4y9JNJLebD8jdt6zCnj6n38sd4q/8EGFoqiKAqM0NqrfQQ81x0vPsZv7WO133W/dYigEKwr3IFam5z3LJDfRVve0pwRvf210IHAvBK9xRMrsBsfhHlNhBBJknjJhejtdYNCBlYB3oVk8MnW1hImBbwRdI56btkPxuytt0AhKEkSz/PNZhMiz4dWgZZJsZHktc/00QM3yo0kIJ4mwzAgusBCEHRQgwN7u+EUT8Dx8THQXxjM8E4Qk454RhBCDMPgLvpWMHhC+z6RhRgBVbx+/RqYOith8hYM6BHoEohIP/30088//wxVCQxuyO5mDBibK95wiM9jA7sRjzXc9YU+PE34UJIk2DEBG/L6wcAfmqYjkcjW1laz2QQ7gcAKjAScGeIz1vcBGExxWDEMATN4iN0Mux+cf/jw4WeffTYzM+NyufrupWCgNE3H4/Ht7e1YLAaNFB7KjVs7b5S+WIzzzBAk1nv7vgAS8BDsuvBlenp6dnYW9uMAa3UNBl8XjUYDgcD6+vqgvQ7HMEQG8X/Q0/pGgr/QNA3r1QAPX/82aTIMwzDM+FuLPrJY5+s/XHn8+PJ/MPdViMF/Ov105X+9u2tIOZfyYQAAAABJRU5ErkJggg==;clipPath=inset(2.7% 1.47% 2.7% 2.94%);" vertex="1" parent="1">
          <mxGeometry x="300.43" y="454" width="31.57" height="34" as="geometry" />
        </mxCell>
        <mxCell id="PE0mwfs7S3fnOxnz0N8g-159" value="" style="shape=waypoint;sketch=0;fillStyle=solid;size=6;pointerEvents=1;points=[];fillColor=none;resizable=0;rotatable=0;perimeter=centerPerimeter;snapToPoint=1;strokeWidth=2;strokeColor=#808080;" vertex="1" parent="1">
          <mxGeometry x="299.0000923076923" y="455.00270270270266" width="20" height="20" as="geometry" />
        </mxCell>
      </root>
    </mxGraphModel>
  </diagram>
</mxfile>
